<?xml version="1.0" encoding="utf-8" standalone="no"?>
<!DOCTYPE svg PUBLIC "-//W3C//DTD SVG 1.1//EN"
  "http://www.w3.org/Graphics/SVG/1.1/DTD/svg11.dtd">
<svg xmlns:xlink="http://www.w3.org/1999/xlink" width="592.125pt" height="267.142752pt" viewBox="0 0 592.125 267.142752" xmlns="http://www.w3.org/2000/svg" version="1.1">
 <metadata>
  <rdf:RDF xmlns:dc="http://purl.org/dc/elements/1.1/" xmlns:cc="http://creativecommons.org/ns#" xmlns:rdf="http://www.w3.org/1999/02/22-rdf-syntax-ns#">
   <cc:Work>
    <dc:type rdf:resource="http://purl.org/dc/dcmitype/StillImage"/>
    <dc:date>2026-04-23T00:22:36.102069</dc:date>
    <dc:format>image/svg+xml</dc:format>
    <dc:creator>
     <cc:Agent>
      <dc:title>Matplotlib v3.7.5, https://matplotlib.org/</dc:title>
     </cc:Agent>
    </dc:creator>
   </cc:Work>
  </rdf:RDF>
 </metadata>
 <defs>
  <style type="text/css">*{stroke-linejoin: round; stroke-linecap: butt}</style>
 </defs>
 <g id="figure_1">
  <g id="patch_1">
   <path d="M 0 267.142752 
L 592.125 267.142752 
L 592.125 0 
L 0 0 
z
" style="fill: #ffffff"/>
  </g>
  <g id="axes_1">
   <g id="patch_2">
    <path d="M 26.925 218.158125 
L 584.925 218.158125 
L 584.925 22.318125 
L 26.925 22.318125 
z
" style="fill: #ffffff"/>
   </g>
   <g id="matplotlib.axis_1">
    <g id="xtick_1">
     <g id="line2d_1">
      <defs>
       <path id="m6535e0a6fb" d="M 0 0 
L 0 3.5 
" style="stroke: #000000; stroke-width: 0.8"/>
      </defs>
      <g>
       <use xlink:href="#m6535e0a6fb" x="38.728913" y="218.158125" style="stroke: #000000; stroke-width: 0.8"/>
      </g>
     </g>
     <g id="text_1">
      <!-- 2014 -->
      <g transform="translate(15.648723 244.463565) rotate(-30) scale(0.1 -0.1)">
       <defs>
        <path id="DejaVuSans-32" d="M 1228 531 
L 3431 531 
L 3431 0 
L 469 0 
L 469 531 
Q 828 903 1448 1529 
Q 2069 2156 2228 2338 
Q 2531 2678 2651 2914 
Q 2772 3150 2772 3378 
Q 2772 3750 2511 3984 
Q 2250 4219 1831 4219 
Q 1534 4219 1204 4116 
Q 875 4013 500 3803 
L 500 4441 
Q 881 4594 1212 4672 
Q 1544 4750 1819 4750 
Q 2544 4750 2975 4387 
Q 3406 4025 3406 3419 
Q 3406 3131 3298 2873 
Q 3191 2616 2906 2266 
Q 2828 2175 2409 1742 
Q 1991 1309 1228 531 
z
" transform="scale(0.015625)"/>
        <path id="DejaVuSans-30" d="M 2034 4250 
Q 1547 4250 1301 3770 
Q 1056 3291 1056 2328 
Q 1056 1369 1301 889 
Q 1547 409 2034 409 
Q 2525 409 2770 889 
Q 3016 1369 3016 2328 
Q 3016 3291 2770 3770 
Q 2525 4250 2034 4250 
z
M 2034 4750 
Q 2819 4750 3233 4129 
Q 3647 3509 3647 2328 
Q 3647 1150 3233 529 
Q 2819 -91 2034 -91 
Q 1250 -91 836 529 
Q 422 1150 422 2328 
Q 422 3509 836 4129 
Q 1250 4750 2034 4750 
z
" transform="scale(0.015625)"/>
        <path id="DejaVuSans-31" d="M 794 531 
L 1825 531 
L 1825 4091 
L 703 3866 
L 703 4441 
L 1819 4666 
L 2450 4666 
L 2450 531 
L 3481 531 
L 3481 0 
L 794 0 
L 794 531 
z
" transform="scale(0.015625)"/>
        <path id="DejaVuSans-34" d="M 2419 4116 
L 825 1625 
L 2419 1625 
L 2419 4116 
z
M 2253 4666 
L 3047 4666 
L 3047 1625 
L 3713 1625 
L 3713 1100 
L 3047 1100 
L 3047 0 
L 2419 0 
L 2419 1100 
L 313 1100 
L 313 1709 
L 2253 4666 
z
" transform="scale(0.015625)"/>
       </defs>
       <use xlink:href="#DejaVuSans-32"/>
       <use xlink:href="#DejaVuSans-30" x="63.623047"/>
       <use xlink:href="#DejaVuSans-31" x="127.246094"/>
       <use xlink:href="#DejaVuSans-34" x="190.869141"/>
      </g>
     </g>
    </g>
    <g id="xtick_2">
     <g id="line2d_2">
      <g>
       <use xlink:href="#m6535e0a6fb" x="123.332315" y="218.158125" style="stroke: #000000; stroke-width: 0.8"/>
      </g>
     </g>
     <g id="text_2">
      <!-- 2016 -->
      <g transform="translate(100.252125 244.463565) rotate(-30) scale(0.1 -0.1)">
       <defs>
        <path id="DejaVuSans-36" d="M 2113 2584 
Q 1688 2584 1439 2293 
Q 1191 2003 1191 1497 
Q 1191 994 1439 701 
Q 1688 409 2113 409 
Q 2538 409 2786 701 
Q 3034 994 3034 1497 
Q 3034 2003 2786 2293 
Q 2538 2584 2113 2584 
z
M 3366 4563 
L 3366 3988 
Q 3128 4100 2886 4159 
Q 2644 4219 2406 4219 
Q 1781 4219 1451 3797 
Q 1122 3375 1075 2522 
Q 1259 2794 1537 2939 
Q 1816 3084 2150 3084 
Q 2853 3084 3261 2657 
Q 3669 2231 3669 1497 
Q 3669 778 3244 343 
Q 2819 -91 2113 -91 
Q 1303 -91 875 529 
Q 447 1150 447 2328 
Q 447 3434 972 4092 
Q 1497 4750 2381 4750 
Q 2619 4750 2861 4703 
Q 3103 4656 3366 4563 
z
" transform="scale(0.015625)"/>
       </defs>
       <use xlink:href="#DejaVuSans-32"/>
       <use xlink:href="#DejaVuSans-30" x="63.623047"/>
       <use xlink:href="#DejaVuSans-31" x="127.246094"/>
       <use xlink:href="#DejaVuSans-36" x="190.869141"/>
      </g>
     </g>
    </g>
    <g id="xtick_3">
     <g id="line2d_3">
      <g>
       <use xlink:href="#m6535e0a6fb" x="208.051612" y="218.158125" style="stroke: #000000; stroke-width: 0.8"/>
      </g>
     </g>
     <g id="text_3">
      <!-- 2018 -->
      <g transform="translate(184.971422 244.463565) rotate(-30) scale(0.1 -0.1)">
       <defs>
        <path id="DejaVuSans-38" d="M 2034 2216 
Q 1584 2216 1326 1975 
Q 1069 1734 1069 1313 
Q 1069 891 1326 650 
Q 1584 409 2034 409 
Q 2484 409 2743 651 
Q 3003 894 3003 1313 
Q 3003 1734 2745 1975 
Q 2488 2216 2034 2216 
z
M 1403 2484 
Q 997 2584 770 2862 
Q 544 3141 544 3541 
Q 544 4100 942 4425 
Q 1341 4750 2034 4750 
Q 2731 4750 3128 4425 
Q 3525 4100 3525 3541 
Q 3525 3141 3298 2862 
Q 3072 2584 2669 2484 
Q 3125 2378 3379 2068 
Q 3634 1759 3634 1313 
Q 3634 634 3220 271 
Q 2806 -91 2034 -91 
Q 1263 -91 848 271 
Q 434 634 434 1313 
Q 434 1759 690 2068 
Q 947 2378 1403 2484 
z
M 1172 3481 
Q 1172 3119 1398 2916 
Q 1625 2713 2034 2713 
Q 2441 2713 2670 2916 
Q 2900 3119 2900 3481 
Q 2900 3844 2670 4047 
Q 2441 4250 2034 4250 
Q 1625 4250 1398 4047 
Q 1172 3844 1172 3481 
z
" transform="scale(0.015625)"/>
       </defs>
       <use xlink:href="#DejaVuSans-32"/>
       <use xlink:href="#DejaVuSans-30" x="63.623047"/>
       <use xlink:href="#DejaVuSans-31" x="127.246094"/>
       <use xlink:href="#DejaVuSans-38" x="190.869141"/>
      </g>
     </g>
    </g>
    <g id="xtick_4">
     <g id="line2d_4">
      <g>
       <use xlink:href="#m6535e0a6fb" x="292.655014" y="218.158125" style="stroke: #000000; stroke-width: 0.8"/>
      </g>
     </g>
     <g id="text_4">
      <!-- 2020 -->
      <g transform="translate(269.574824 244.463565) rotate(-30) scale(0.1 -0.1)">
       <use xlink:href="#DejaVuSans-32"/>
       <use xlink:href="#DejaVuSans-30" x="63.623047"/>
       <use xlink:href="#DejaVuSans-32" x="127.246094"/>
       <use xlink:href="#DejaVuSans-30" x="190.869141"/>
      </g>
     </g>
    </g>
    <g id="xtick_5">
     <g id="line2d_5">
      <g>
       <use xlink:href="#m6535e0a6fb" x="377.374311" y="218.158125" style="stroke: #000000; stroke-width: 0.8"/>
      </g>
     </g>
     <g id="text_5">
      <!-- 2022 -->
      <g transform="translate(354.294121 244.463565) rotate(-30) scale(0.1 -0.1)">
       <use xlink:href="#DejaVuSans-32"/>
       <use xlink:href="#DejaVuSans-30" x="63.623047"/>
       <use xlink:href="#DejaVuSans-32" x="127.246094"/>
       <use xlink:href="#DejaVuSans-32" x="190.869141"/>
      </g>
     </g>
    </g>
    <g id="xtick_6">
     <g id="line2d_6">
      <g>
       <use xlink:href="#m6535e0a6fb" x="461.977714" y="218.158125" style="stroke: #000000; stroke-width: 0.8"/>
      </g>
     </g>
     <g id="text_6">
      <!-- 2024 -->
      <g transform="translate(438.897523 244.463565) rotate(-30) scale(0.1 -0.1)">
       <use xlink:href="#DejaVuSans-32"/>
       <use xlink:href="#DejaVuSans-30" x="63.623047"/>
       <use xlink:href="#DejaVuSans-32" x="127.246094"/>
       <use xlink:href="#DejaVuSans-34" x="190.869141"/>
      </g>
     </g>
    </g>
    <g id="xtick_7">
     <g id="line2d_7">
      <g>
       <use xlink:href="#m6535e0a6fb" x="546.697011" y="218.158125" style="stroke: #000000; stroke-width: 0.8"/>
      </g>
     </g>
     <g id="text_7">
      <!-- 2026 -->
      <g transform="translate(523.61682 244.463565) rotate(-30) scale(0.1 -0.1)">
       <use xlink:href="#DejaVuSans-32"/>
       <use xlink:href="#DejaVuSans-30" x="63.623047"/>
       <use xlink:href="#DejaVuSans-32" x="127.246094"/>
       <use xlink:href="#DejaVuSans-36" x="190.869141"/>
      </g>
     </g>
    </g>
    <g id="text_8">
     <!-- Time -->
     <g transform="translate(293.691406 257.863065) scale(0.1 -0.1)">
      <defs>
       <path id="DejaVuSans-54" d="M -19 4666 
L 3928 4666 
L 3928 4134 
L 2272 4134 
L 2272 0 
L 1638 0 
L 1638 4134 
L -19 4134 
L -19 4666 
z
" transform="scale(0.015625)"/>
       <path id="DejaVuSans-69" d="M 603 3500 
L 1178 3500 
L 1178 0 
L 603 0 
L 603 3500 
z
M 603 4863 
L 1178 4863 
L 1178 4134 
L 603 4134 
L 603 4863 
z
" transform="scale(0.015625)"/>
       <path id="DejaVuSans-6d" d="M 3328 2828 
Q 3544 3216 3844 3400 
Q 4144 3584 4550 3584 
Q 5097 3584 5394 3201 
Q 5691 2819 5691 2113 
L 5691 0 
L 5113 0 
L 5113 2094 
Q 5113 2597 4934 2840 
Q 4756 3084 4391 3084 
Q 3944 3084 3684 2787 
Q 3425 2491 3425 1978 
L 3425 0 
L 2847 0 
L 2847 2094 
Q 2847 2600 2669 2842 
Q 2491 3084 2119 3084 
Q 1678 3084 1418 2786 
Q 1159 2488 1159 1978 
L 1159 0 
L 581 0 
L 581 3500 
L 1159 3500 
L 1159 2956 
Q 1356 3278 1631 3431 
Q 1906 3584 2284 3584 
Q 2666 3584 2933 3390 
Q 3200 3197 3328 2828 
z
" transform="scale(0.015625)"/>
       <path id="DejaVuSans-65" d="M 3597 1894 
L 3597 1613 
L 953 1613 
Q 991 1019 1311 708 
Q 1631 397 2203 397 
Q 2534 397 2845 478 
Q 3156 559 3463 722 
L 3463 178 
Q 3153 47 2828 -22 
Q 2503 -91 2169 -91 
Q 1331 -91 842 396 
Q 353 884 353 1716 
Q 353 2575 817 3079 
Q 1281 3584 2069 3584 
Q 2775 3584 3186 3129 
Q 3597 2675 3597 1894 
z
M 3022 2063 
Q 3016 2534 2758 2815 
Q 2500 3097 2075 3097 
Q 1594 3097 1305 2825 
Q 1016 2553 972 2059 
L 3022 2063 
z
" transform="scale(0.015625)"/>
      </defs>
      <use xlink:href="#DejaVuSans-54"/>
      <use xlink:href="#DejaVuSans-69" x="57.958984"/>
      <use xlink:href="#DejaVuSans-6d" x="85.742188"/>
      <use xlink:href="#DejaVuSans-65" x="183.154297"/>
     </g>
    </g>
   </g>
   <g id="matplotlib.axis_2">
    <g id="ytick_1">
     <g id="line2d_8">
      <defs>
       <path id="m594b547a74" d="M 0 0 
L -3.5 0 
" style="stroke: #000000; stroke-width: 0.8"/>
      </defs>
      <g>
       <use xlink:href="#m594b547a74" x="26.925" y="210.580256" style="stroke: #000000; stroke-width: 0.8"/>
      </g>
     </g>
     <g id="text_9">
      <!-- 10 -->
      <g transform="translate(7.2 214.379475) scale(0.1 -0.1)">
       <use xlink:href="#DejaVuSans-31"/>
       <use xlink:href="#DejaVuSans-30" x="63.623047"/>
      </g>
     </g>
    </g>
    <g id="ytick_2">
     <g id="line2d_9">
      <g>
       <use xlink:href="#m594b547a74" x="26.925" y="175.739481" style="stroke: #000000; stroke-width: 0.8"/>
      </g>
     </g>
     <g id="text_10">
      <!-- 20 -->
      <g transform="translate(7.2 179.538699) scale(0.1 -0.1)">
       <use xlink:href="#DejaVuSans-32"/>
       <use xlink:href="#DejaVuSans-30" x="63.623047"/>
      </g>
     </g>
    </g>
    <g id="ytick_3">
     <g id="line2d_10">
      <g>
       <use xlink:href="#m594b547a74" x="26.925" y="140.898705" style="stroke: #000000; stroke-width: 0.8"/>
      </g>
     </g>
     <g id="text_11">
      <!-- 30 -->
      <g transform="translate(7.2 144.697924) scale(0.1 -0.1)">
       <defs>
        <path id="DejaVuSans-33" d="M 2597 2516 
Q 3050 2419 3304 2112 
Q 3559 1806 3559 1356 
Q 3559 666 3084 287 
Q 2609 -91 1734 -91 
Q 1441 -91 1130 -33 
Q 819 25 488 141 
L 488 750 
Q 750 597 1062 519 
Q 1375 441 1716 441 
Q 2309 441 2620 675 
Q 2931 909 2931 1356 
Q 2931 1769 2642 2001 
Q 2353 2234 1838 2234 
L 1294 2234 
L 1294 2753 
L 1863 2753 
Q 2328 2753 2575 2939 
Q 2822 3125 2822 3475 
Q 2822 3834 2567 4026 
Q 2313 4219 1838 4219 
Q 1578 4219 1281 4162 
Q 984 4106 628 3988 
L 628 4550 
Q 988 4650 1302 4700 
Q 1616 4750 1894 4750 
Q 2613 4750 3031 4423 
Q 3450 4097 3450 3541 
Q 3450 3153 3228 2886 
Q 3006 2619 2597 2516 
z
" transform="scale(0.015625)"/>
       </defs>
       <use xlink:href="#DejaVuSans-33"/>
       <use xlink:href="#DejaVuSans-30" x="63.623047"/>
      </g>
     </g>
    </g>
    <g id="ytick_4">
     <g id="line2d_11">
      <g>
       <use xlink:href="#m594b547a74" x="26.925" y="106.057929" style="stroke: #000000; stroke-width: 0.8"/>
      </g>
     </g>
     <g id="text_12">
      <!-- 40 -->
      <g transform="translate(7.2 109.857148) scale(0.1 -0.1)">
       <use xlink:href="#DejaVuSans-34"/>
       <use xlink:href="#DejaVuSans-30" x="63.623047"/>
      </g>
     </g>
    </g>
    <g id="ytick_5">
     <g id="line2d_12">
      <g>
       <use xlink:href="#m594b547a74" x="26.925" y="71.217154" style="stroke: #000000; stroke-width: 0.8"/>
      </g>
     </g>
     <g id="text_13">
      <!-- 50 -->
      <g transform="translate(7.2 75.016372) scale(0.1 -0.1)">
       <defs>
        <path id="DejaVuSans-35" d="M 691 4666 
L 3169 4666 
L 3169 4134 
L 1269 4134 
L 1269 2991 
Q 1406 3038 1543 3061 
Q 1681 3084 1819 3084 
Q 2600 3084 3056 2656 
Q 3513 2228 3513 1497 
Q 3513 744 3044 326 
Q 2575 -91 1722 -91 
Q 1428 -91 1123 -41 
Q 819 9 494 109 
L 494 744 
Q 775 591 1075 516 
Q 1375 441 1709 441 
Q 2250 441 2565 725 
Q 2881 1009 2881 1497 
Q 2881 1984 2565 2268 
Q 2250 2553 1709 2553 
Q 1456 2553 1204 2497 
Q 953 2441 691 2322 
L 691 4666 
z
" transform="scale(0.015625)"/>
       </defs>
       <use xlink:href="#DejaVuSans-35"/>
       <use xlink:href="#DejaVuSans-30" x="63.623047"/>
      </g>
     </g>
    </g>
    <g id="ytick_6">
     <g id="line2d_13">
      <g>
       <use xlink:href="#m594b547a74" x="26.925" y="36.376378" style="stroke: #000000; stroke-width: 0.8"/>
      </g>
     </g>
     <g id="text_14">
      <!-- 60 -->
      <g transform="translate(7.2 40.175597) scale(0.1 -0.1)">
       <use xlink:href="#DejaVuSans-36"/>
       <use xlink:href="#DejaVuSans-30" x="63.623047"/>
      </g>
     </g>
    </g>
   </g>
   <g id="line2d_14">
    <path d="M 52.288636 160.305017 
L 52.520427 160.479221 
L 53.215797 161.454763 
L 53.447587 162.743871 
L 53.563482 162.813553 
L 53.911167 163.301324 
L 54.142958 162.430304 
L 54.258853 160.757947 
L 54.374748 162.430304 
L 54.722433 162.22126 
L 54.838328 161.977374 
L 54.954223 162.395464 
L 55.070118 161.210877 
L 55.186013 162.047056 
L 55.533698 161.454763 
L 55.649593 162.22126 
L 55.765489 162.012215 
L 55.881384 161.001833 
L 55.997279 162.151578 
L 56.460859 162.047056 
L 56.576754 161.80317 
L 56.808544 162.465145 
L 57.156229 162.395464 
L 57.272124 163.231642 
L 57.38802 162.918075 
L 57.503915 163.649731 
L 57.61981 167.935147 
L 57.967495 164.172343 
L 58.08339 165.80986 
L 58.199285 165.8447 
L 58.31518 165.426611 
L 58.431075 165.565974 
L 58.77876 165.600815 
L 58.894655 165.740178 
L 59.010551 165.600815 
L 59.242341 166.576357 
L 59.590026 166.402153 
L 59.821816 165.496293 
L 60.053606 166.227949 
L 60.401291 165.531133 
L 60.517186 164.416229 
L 60.633082 164.451069 
L 60.748977 164.276865 
L 60.864872 162.499986 
L 61.328452 161.35024 
L 61.676137 162.499986 
L 62.023822 163.405846 
L 62.139717 163.022598 
L 62.371508 163.858776 
L 62.487403 164.903999 
L 62.835088 166.332471 
L 62.950983 162.151578 
L 63.066878 163.545209 
L 63.182773 162.081897 
L 63.298668 163.998139 
L 63.994039 165.113044 
L 64.109934 165.113044 
L 64.457619 165.287248 
L 64.573514 166.889924 
L 64.689409 165.287248 
L 64.805304 166.924764 
L 64.921199 165.80986 
L 65.384779 167.029287 
L 65.500674 164.416229 
L 65.732465 167.726102 
L 66.08015 165.287248 
L 66.196045 165.461452 
L 66.31194 165.217566 
L 66.54373 162.081897 
L 67.00731 162.569667 
L 67.123205 162.22126 
L 67.239101 162.395464 
L 67.354996 161.977374 
L 67.818576 168.666803 
L 67.934471 161.76833 
L 68.050366 161.76833 
L 68.166261 161.001833 
L 68.513946 160.966992 
L 68.629841 160.757947 
L 68.745736 161.106355 
L 68.861632 161.036673 
L 68.977527 161.106355 
L 69.441107 159.99145 
L 69.557002 160.130813 
L 69.672897 160.061132 
L 70.136477 158.841704 
L 70.252372 158.353934 
L 71.179533 157.935844 
L 71.295428 157.482914 
L 71.411323 155.566672 
L 71.759008 157.27387 
L 71.990798 155.671194 
L 72.106694 156.054442 
L 72.222589 155.810557 
L 72.570274 155.531831 
L 72.802064 159.503679 
L 73.033854 157.27387 
L 73.729225 158.144889 
L 73.84512 158.144889 
L 74.192805 157.76164 
L 74.3087 157.343551 
L 74.424595 157.343551 
L 74.656385 158.841704 
L 75.119965 158.319093 
L 75.351756 161.106355 
L 75.467651 160.548902 
L 75.931231 160.061132 
L 76.047126 160.618584 
L 76.163021 160.409539 
L 76.278916 161.280559 
L 76.742496 161.80317 
L 76.974287 160.757947 
L 77.090182 161.071514 
L 77.437867 160.89731 
L 77.669657 161.106355 
L 77.785552 160.479221 
L 77.901447 161.036673 
L 78.249132 160.723106 
L 78.365027 160.374699 
L 78.480922 160.89731 
L 78.596818 160.688266 
L 78.712713 160.792788 
L 79.292188 160.688266 
L 79.408083 161.489603 
L 79.523978 161.3154 
L 80.219349 161.489603 
L 80.335244 161.594126 
L 80.798824 161.454763 
L 80.914719 161.106355 
L 81.494194 161.594126 
L 81.610089 161.210877 
L 81.725984 161.454763 
L 81.84188 160.932151 
L 81.957775 160.966992 
L 82.76904 161.594126 
L 83.116725 161.35024 
L 83.464411 161.80317 
L 83.580306 161.419922 
L 84.159781 161.524444 
L 84.275676 161.210877 
L 84.391571 161.280559 
L 84.739256 161.141196 
L 85.086942 161.454763 
L 85.202837 161.454763 
L 85.550522 161.698648 
L 85.782312 161.454763 
L 86.014102 161.245718 
L 86.361787 162.430304 
L 86.477682 170.722409 
L 87.636633 170.722409 
L 87.984318 163.266483 
L 88.100213 171.488906 
L 88.332004 160.061132 
L 88.447899 156.786099 
L 88.795584 158.806864 
L 88.911479 157.901003 
L 89.027374 158.284252 
L 89.259164 152.744569 
L 89.606849 152.465842 
L 89.838639 152.81425 
L 89.954535 155.462149 
L 90.07043 154.242722 
L 90.418115 154.974378 
L 90.53401 154.451767 
L 90.649905 154.974378 
L 90.881695 164.207184 
L 91.345275 155.810557 
L 91.692961 156.577054 
L 92.388331 156.577054 
L 92.504226 155.322786 
L 92.851911 156.437691 
L 92.967806 156.124124 
L 93.083701 158.911386 
L 93.199597 158.981068 
L 93.315492 156.577054 
L 93.663177 157.204188 
L 93.779072 156.228646 
L 93.894967 157.27387 
L 94.126757 157.27387 
L 94.474442 155.183423 
L 94.590337 156.611895 
L 94.706232 163.336164 
L 95.749288 148.215268 
L 96.212868 151.107052 
L 96.328763 151.490301 
L 96.444659 156.577054 
L 96.560554 153.162658 
L 96.908239 155.357627 
L 97.024134 154.17304 
L 97.255924 156.925462 
L 97.371819 152.012912 
L 97.719504 153.859474 
L 97.951294 156.437691 
L 98.06719 156.228646 
L 98.183085 157.413233 
L 98.646665 157.27387 
L 98.76256 157.970685 
L 98.878455 149.608899 
L 98.99435 155.183423 
L 99.805616 157.029984 
L 100.153301 157.587437 
L 100.269196 157.27387 
L 100.385091 158.040367 
L 100.500986 158.040367 
L 100.616881 157.099666 
L 101.196356 157.622277 
L 101.312252 157.622277 
L 101.428147 158.005526 
L 101.891727 158.319093 
L 102.007622 158.319093 
L 102.123517 156.577054 
L 102.239412 164.625273 
L 102.587097 161.838011 
L 102.818887 158.075207 
L 102.934783 160.44438 
L 103.050678 155.357627 
L 103.514258 147.379089 
L 103.746048 148.389472 
L 103.861943 149.608899 
L 104.209628 149.330173 
L 104.441418 151.420619 
L 104.673209 158.63266 
L 105.136789 160.095972 
L 105.252684 155.531831 
L 105.368579 155.531831 
L 105.484474 160.061132 
L 105.832159 158.319093 
L 105.948054 167.029287 
L 106.063949 164.416229 
L 106.179845 157.343551 
L 106.29574 158.319093 
L 106.643425 154.835015 
L 106.75932 154.835015 
L 106.875215 158.353934 
L 107.107005 157.448073 
L 107.45469 161.001833 
L 107.68648 157.622277 
L 107.918271 156.124124 
L 108.265956 156.925462 
L 108.381851 159.433998 
L 108.613641 156.751258 
L 108.729536 160.339858 
L 109.077221 160.095972 
L 109.193116 159.364316 
L 109.309011 159.399157 
L 109.888487 160.061132 
L 110.004382 159.712724 
L 110.120277 161.001833 
L 110.236172 160.932151 
L 110.352067 160.688266 
L 110.699752 159.015908 
L 110.815647 159.015908 
L 111.047438 160.618584 
L 111.163333 165.043363 
L 111.511018 162.151578 
L 111.742808 164.555592 
L 111.858703 164.93884 
L 111.974598 162.151578 
L 112.322283 165.113044 
L 112.554073 155.49699 
L 113.597129 163.545209 
L 113.944814 164.869159 
L 114.060709 164.416229 
L 114.2925 164.973681 
L 114.408395 164.660114 
L 114.75608 164.903999 
L 114.871975 165.705337 
L 115.103765 164.590432 
L 115.21966 164.729796 
L 115.567345 164.903999 
L 115.799135 164.660114 
L 116.378611 165.984063 
L 116.494506 172.255403 
L 116.610401 171.767632 
L 116.842191 172.150881 
L 117.189876 173.997442 
L 117.305771 175.634958 
L 117.421666 173.997442 
L 117.653457 164.590432 
L 118.348827 165.287248 
L 118.928302 164.834318 
L 119.044197 163.545209 
L 119.275988 164.93884 
L 119.623673 164.903999 
L 119.855463 165.252407 
L 119.971358 165.113044 
L 120.087253 168.07451 
L 120.434938 167.029287 
L 120.666728 165.496293 
L 120.898519 165.287248 
L 121.246204 165.461452 
L 121.362099 165.984063 
L 121.477994 165.984063 
L 121.593889 166.855083 
L 121.709784 166.680879 
L 122.057469 167.342854 
L 122.405155 165.287248 
L 122.52105 165.879541 
L 122.868735 165.043363 
L 122.98463 167.935147 
L 123.21642 160.409539 
L 123.68 164.242025 
L 123.795895 172.255403 
L 123.91179 165.008522 
L 124.143581 165.287248 
L 124.491266 165.043363 
L 124.607161 165.670496 
L 124.723056 165.635656 
L 124.954846 165.984063 
L 125.534321 165.949223 
L 125.650217 166.541516 
L 125.766112 165.984063 
L 126.229692 167.691261 
L 126.345587 166.994446 
L 126.577377 168.07451 
L 126.925062 167.16865 
L 127.040957 163.893617 
L 127.156852 165.287248 
L 127.272748 170.861772 
L 127.388643 163.545209 
L 128.547593 165.287248 
L 128.663488 163.545209 
L 128.779383 163.858776 
L 129.358859 163.196801 
L 129.474754 163.893617 
L 129.590649 165.914382 
L 129.706544 164.03298 
L 129.822439 164.172343 
L 130.170124 163.719413 
L 130.401914 166.402153 
L 130.51781 168.910689 
L 130.633705 168.562281 
L 131.21318 167.760943 
L 131.329075 168.07451 
L 131.44497 167.656421 
L 131.90855 168.597122 
L 132.024445 169.88623 
L 132.256236 168.771325 
L 132.835711 168.422918 
L 133.067501 168.597122 
L 133.415186 169.050052 
L 133.531081 169.712026 
L 133.646976 169.119733 
L 133.762872 170.408842 
L 133.878767 168.52744 
L 134.458242 168.945529 
L 134.574137 169.607504 
L 135.037717 169.572663 
L 135.153612 169.642345 
L 135.501298 171.21018 
L 135.848983 175.70464 
L 135.964878 172.255403 
L 136.196668 172.603811 
L 136.312563 175.70464 
L 136.660248 175.739481 
L 136.776143 181.836616 
L 136.892038 179.258399 
L 137.123829 181.314005 
L 137.587409 185.703942 
L 137.703304 190.860377 
L 137.819199 187.585344 
L 137.935094 187.480822 
L 138.282779 182.707636 
L 138.514569 185.320694 
L 138.630465 185.216172 
L 138.74636 184.69356 
L 139.094045 185.564579 
L 139.20994 185.355535 
L 139.44173 186.296236 
L 139.557625 188.595727 
L 139.90531 190.442288 
L 140.021205 194.344455 
L 140.1371 190.616492 
L 140.368891 191.41783 
L 140.832471 192.010123 
L 141.064261 191.139103 
L 141.180156 188.700249 
L 141.527841 187.550504 
L 141.643736 187.933752 
L 141.759631 190.407447 
L 142.339107 190.268084 
L 142.455002 189.675791 
L 142.570897 187.968593 
L 142.802687 189.606109 
L 143.266267 187.655026 
L 143.382162 187.933752 
L 143.498058 187.724707 
L 143.613953 189.431905 
L 143.961638 187.341459 
L 144.077533 187.585344 
L 144.193428 187.550504 
L 144.425218 186.853688 
L 144.772903 187.585344 
L 144.888798 187.550504 
L 145.120589 186.818847 
L 145.236484 186.749166 
L 145.584169 189.745472 
L 145.931854 203.159171 
L 146.047749 207.374905 
L 146.395434 207.758153 
L 146.859015 209.256307 
L 147.2067 205.946433 
L 147.554385 197.654329 
L 147.67028 195.947131 
L 148.017965 195.947131 
L 148.249755 197.410443 
L 148.365651 197.898214 
L 148.481546 197.898214 
L 148.829231 196.016812 
L 148.945126 193.926366 
L 149.292811 195.45936 
L 149.872286 196.330379 
L 149.988182 195.842608 
L 150.104077 194.623181 
L 150.451762 193.821843 
L 150.683552 192.846301 
L 150.915342 193.891525 
L 151.263027 194.414136 
L 151.494817 191.626874 
L 151.726608 192.672098 
L 152.074293 193.194709 
L 152.190188 193.68248 
L 152.306083 193.612799 
L 152.421978 194.13541 
L 152.537873 192.811461 
L 153.001453 191.766237 
L 153.117348 190.721014 
L 153.696824 190.9649 
L 153.928614 189.675791 
L 154.044509 190.198403 
L 154.160404 188.944135 
L 154.623984 187.271777 
L 154.97167 187.271777 
L 156.13062 187.341459 
L 156.246515 186.92337 
L 156.36241 187.515663 
L 156.478306 187.306618 
L 156.594201 187.898911 
L 156.941886 188.456364 
L 157.057781 188.28216 
L 157.405466 189.884836 
L 157.869046 190.686173 
L 157.984941 191.243626 
L 158.100837 186.226554 
L 158.216732 186.818847 
L 158.564417 187.41114 
L 158.796207 188.560886 
L 158.912102 188.560886 
L 159.027997 189.675791 
L 159.375682 190.233243 
L 159.491577 190.790696 
L 159.607472 187.968593 
L 159.839263 189.083498 
L 160.186948 187.968593 
L 160.302843 186.435599 
L 160.418738 187.027892 
L 160.534633 185.703942 
L 160.650528 185.703942 
L 160.998213 186.017509 
L 161.345898 187.759548 
L 161.461794 187.759548 
L 161.925374 182.846999 
L 162.041269 183.125725 
L 162.157164 182.707636 
L 162.273059 180.791393 
L 162.620744 178.526743 
L 163.084325 181.174642 
L 163.43201 176.401455 
L 163.6638 177.795086 
L 163.779695 174.241327 
L 163.89559 174.79878 
L 164.706856 168.248714 
L 165.054541 180.094578 
L 165.286331 176.854385 
L 165.402226 179.014514 
L 165.518121 177.481519 
L 166.097596 177.795086 
L 166.213491 180.617189 
L 166.329387 179.537125 
L 166.677072 180.895915 
L 166.792967 179.432603 
L 166.908862 179.955214 
L 167.024757 179.676488 
L 167.140652 180.268781 
L 167.604232 180.965597 
L 167.720127 181.000438 
L 167.836022 181.697253 
L 167.951918 181.697253 
L 168.299603 180.965597 
L 168.415498 183.996744 
L 168.531393 180.338463 
L 168.647288 180.338463 
L 169.574449 182.707636 
L 169.922134 181.55789 
L 170.153924 183.056044 
L 170.269819 182.185024 
L 170.733399 185.181331 
L 170.965189 183.996744 
L 171.19698 184.379993 
L 171.544665 183.090884 
L 171.66056 183.299929 
L 171.776455 182.812158 
L 172.008245 183.822541 
L 172.35593 183.927063 
L 172.471825 184.658719 
L 172.703615 184.519356 
L 172.819511 185.460057 
L 173.167196 186.888529 
L 173.283091 183.683177 
L 173.398986 184.798082 
L 173.630776 184.798082 
L 173.978461 185.285853 
L 174.210251 185.076809 
L 174.326146 182.707636 
L 174.442042 185.14649 
L 174.789727 184.972286 
L 174.905622 185.111649 
L 175.137412 186.679484 
L 175.253307 187.236937 
L 175.600992 186.226554 
L 175.716887 186.435599 
L 175.832782 187.794389 
L 175.948677 186.365917 
L 176.064573 187.585344 
L 176.759943 187.759548 
L 176.875838 189.571269 
L 177.223523 189.675791 
L 177.339418 190.059039 
L 177.687104 194.58834 
L 178.266579 191.348148 
L 178.382474 191.278467 
L 178.498369 190.024199 
L 178.846054 189.397065 
L 178.961949 186.993051 
L 179.193739 187.794389 
L 179.309635 188.665408 
L 179.773215 189.257702 
L 179.88911 190.233243 
L 180.005005 188.944135 
L 180.1209 188.978975 
L 180.468585 188.665408 
L 180.58448 187.933752 
L 180.700375 188.003434 
L 180.81627 188.874453 
L 180.932166 188.491205 
L 181.279851 188.526045 
L 181.627536 188.003434 
L 181.743431 186.714325 
L 182.207011 186.50528 
L 182.322906 186.749166 
L 182.438801 186.47044 
L 182.554697 187.236937 
L 183.134172 187.202096 
L 183.250067 187.480822 
L 183.365962 188.700249 
L 183.829542 189.362224 
L 183.945437 190.442288 
L 184.177228 190.337766 
L 184.524913 190.337766 
L 184.640808 191.557193 
L 184.756703 190.895218 
L 185.336178 191.069422 
L 185.567968 192.010123 
L 185.799759 195.389678 
L 186.147444 196.992354 
L 186.263339 196.678787 
L 186.495129 198.595029 
L 186.611024 198.107259 
L 186.958709 197.793692 
L 187.074604 196.400061 
L 187.190499 196.81815 
L 187.42229 196.643946 
L 187.769975 196.922672 
L 187.88587 196.643946 
L 188.001765 197.340762 
L 188.11766 196.957513 
L 188.58124 197.062035 
L 188.697135 197.863373 
L 188.928925 200.546113 
L 189.044821 198.560189 
L 189.392506 198.455666 
L 189.508401 199.361527 
L 189.624296 199.013119 
L 189.740191 199.04796 
L 189.856086 199.744775 
L 190.203771 200.093183 
L 190.435561 205.145095 
L 190.667352 202.810763 
L 191.015037 202.601719 
L 191.246827 202.113948 
L 191.362722 202.21847 
L 191.478617 201.661018 
L 191.826302 200.720317 
L 192.058092 202.810763 
L 192.289883 202.253311 
L 192.637568 202.532037 
L 192.869358 201.173247 
L 192.985253 198.769233 
L 193.101148 201.138406 
L 193.448833 201.486814 
L 193.564728 201.417132 
L 193.912414 200.232546 
L 194.260099 200.964202 
L 194.491889 200.337068 
L 194.607784 200.580954 
L 194.723679 200.546113 
L 195.071364 199.53573 
L 195.187259 200.093183 
L 195.303154 199.431208 
L 195.534945 199.849297 
L 195.88263 199.779616 
L 195.998525 199.466049 
L 196.11442 200.093183 
L 196.230315 199.849297 
L 196.34621 199.95382 
L 196.925685 199.257004 
L 197.157476 197.305921 
L 198.316426 198.351144 
L 198.432321 202.984967 
L 198.664111 197.654329 
L 198.780007 194.518659 
L 199.127692 196.887831 
L 199.243587 195.598723 
L 199.359482 196.852991 
L 199.475377 195.424519 
L 199.591272 197.584647 
L 200.054852 197.72401 
L 200.170747 197.27108 
L 200.286642 197.967896 
L 200.402538 197.201398 
L 200.750223 197.480125 
L 201.097908 195.703245 
L 201.213803 195.772927 
L 201.561488 195.285156 
L 201.909173 192.985665 
L 202.025069 189.884836 
L 202.488649 188.978975 
L 202.604544 190.372606 
L 202.836334 189.606109 
L 203.184019 189.849995 
L 203.299914 190.721014 
L 203.415809 192.811461 
L 203.531704 191.905601 
L 203.995285 193.403754 
L 204.11118 192.672098 
L 204.34297 193.577958 
L 204.458865 193.334072 
L 204.80655 192.010123 
L 205.03834 192.567575 
L 205.154235 192.497894 
L 205.270131 192.602416 
L 205.617816 192.010123 
L 205.733711 191.45267 
L 205.965501 192.428212 
L 206.081396 192.497894 
L 206.429081 192.985665 
L 206.776766 191.835919 
L 207.240347 191.069422 
L 207.472137 190.9649 
L 207.588032 191.348148 
L 207.703927 190.790696 
L 208.167507 192.358531 
L 208.283402 192.149486 
L 208.515193 194.205092 
L 208.862878 193.125028 
L 209.094668 191.696556 
L 209.210563 192.114645 
L 209.326458 192.010123 
L 209.674143 192.497894 
L 209.790038 191.975282 
L 209.905933 193.996047 
L 210.021828 193.22955 
L 210.137724 193.334072 
L 210.485409 192.672098 
L 210.833094 193.194709 
L 210.948989 194.658022 
L 211.296674 193.403754 
L 211.412569 191.626874 
L 211.644359 193.68248 
L 211.760255 193.264391 
L 212.10794 194.414136 
L 212.33973 193.403754 
L 212.57152 193.090187 
L 213.0351 196.121334 
L 213.150995 192.149486 
L 214.078156 188.456364 
L 214.194051 194.13541 
L 214.541736 195.598723 
L 214.773526 193.194709 
L 214.889421 196.400061 
L 215.005317 193.194709 
L 215.353002 193.22955 
L 215.468897 192.846301 
L 215.700687 193.717321 
L 215.816582 191.557193 
L 216.280162 193.856684 
L 216.396057 193.22955 
L 216.627848 193.22955 
L 217.091428 193.926366 
L 217.323218 191.382989 
L 217.439113 193.334072 
L 217.786798 192.32369 
L 217.902693 193.368913 
L 218.018588 192.567575 
L 218.134483 192.77662 
L 218.250379 193.543117 
L 218.829854 191.069422 
L 219.409329 190.51197 
L 219.525224 190.721014 
L 219.641119 192.915983 
L 219.87291 190.581651 
L 220.220595 194.13541 
L 220.33649 191.592034 
L 220.452385 191.522352 
L 220.56828 189.710632 
L 220.684175 191.45267 
L 221.26365 191.173944 
L 221.379545 190.860377 
L 221.495441 191.313307 
L 222.074916 189.675791 
L 222.190811 189.815154 
L 222.306706 190.372606 
L 222.886181 191.243626 
L 223.117972 190.930059 
L 223.581552 191.208785 
L 223.813342 191.104263 
L 223.929237 191.522352 
L 224.508712 191.243626 
L 224.624607 189.327383 
L 224.740503 184.379993 
L 225.088188 186.818847 
L 225.204083 186.296236 
L 225.319978 184.832923 
L 225.551768 187.062733 
L 225.899453 186.400758 
L 226.015348 186.609803 
L 226.131243 187.689867 
L 226.247138 187.550504 
L 226.363034 187.027892 
L 226.942509 188.003434 
L 227.058404 187.933752 
L 227.174299 187.236937 
L 227.637879 186.888529 
L 227.753774 187.236937 
L 227.869669 187.097573 
L 227.985565 187.202096 
L 228.680935 186.714325 
L 228.79683 186.191713 
L 229.144515 186.017509 
L 229.26041 185.181331 
L 229.376305 186.784007 
L 229.608096 183.822541 
L 229.955781 182.185024 
L 230.187571 178.561583 
L 230.303466 178.38738 
L 230.419361 174.972984 
L 230.767046 178.108653 
L 230.998836 175.425914 
L 231.114731 175.286551 
L 231.230627 175.530436 
L 231.578312 174.136805 
L 231.694207 172.987059 
L 232.041892 165.287248 
L 232.737262 156.995143 
L 232.853158 158.21457 
L 233.200843 156.054442 
L 233.432633 147.344248 
L 233.664423 141.943928 
L 234.012108 145.009916 
L 234.128003 143.337559 
L 234.359793 143.302718 
L 234.475689 143.163355 
L 234.823374 145.63705 
L 234.939269 150.131511 
L 235.055164 149.051446 
L 235.171059 149.434695 
L 235.286954 149.330173 
L 235.634639 150.270874 
L 235.750534 152.396161 
L 235.866429 150.723804 
L 235.982324 151.873549 
L 236.09822 148.633357 
L 236.5618 150.305714 
L 236.677695 150.131511 
L 236.79359 149.67858 
L 236.909485 150.654122 
L 237.25717 150.758644 
L 237.373065 148.807561 
L 237.48896 151.072211 
L 237.604855 149.852784 
L 237.720751 141.769724 
L 238.068436 144.800872 
L 238.184331 151.699345 
L 238.416121 146.194503 
L 238.532016 150.305714 
L 239.111491 146.682274 
L 239.227386 147.727497 
L 239.343282 147.170045 
L 240.618127 146.821637 
L 240.734022 145.846095 
L 240.849917 146.856478 
L 240.965813 140.968387 
L 241.313498 146.751955 
L 241.777078 142.954311 
L 242.240658 143.163355 
L 242.472448 139.574755 
L 242.588344 133.616983 
L 242.936029 144.800872 
L 243.167819 137.693354 
L 243.399609 141.247113 
L 243.747294 145.846095 
L 243.979084 145.288643 
L 244.210875 148.598516 
L 244.55856 146.995841 
L 244.906245 143.023992 
L 245.02214 143.651126 
L 245.369825 143.511763 
L 245.48572 147.170045 
L 245.71751 131.456855 
L 245.833406 134.348639 
L 246.296986 141.700043 
L 246.412881 134.940932 
L 246.644671 142.362018 
L 246.992356 142.849788 
L 247.108251 141.281954 
L 247.340041 136.299723 
L 247.455937 138.564373 
L 247.803622 141.59552 
L 247.919517 136.717812 
L 248.151307 142.675585 
L 248.267202 141.978769 
L 248.614887 140.968387 
L 248.730782 141.630361 
L 248.846677 144.556986 
L 248.962572 140.968387 
L 249.078468 147.657815 
L 249.426153 141.003227 
L 249.542048 141.978769 
L 249.657943 138.529532 
L 249.773838 143.964693 
L 249.889733 136.439086 
L 250.469208 137.344946 
L 250.585103 142.849788 
L 250.700999 140.968387 
L 251.048684 144.452464 
L 251.164579 144.069216 
L 251.280474 144.870553 
L 251.512264 137.031379 
L 251.975844 143.337559 
L 252.091739 133.860868 
L 252.32353 143.337559 
L 252.671215 143.337559 
L 252.78711 144.452464 
L 252.903005 138.320488 
L 253.0189 146.089981 
L 253.134795 139.714119 
L 253.48248 142.675585 
L 253.598375 145.60221 
L 253.830165 142.292336 
L 253.946061 143.720808 
L 255.105011 137.449468 
L 255.220906 145.079598 
L 255.336801 145.079598 
L 255.452696 146.124821 
L 255.568592 144.487305 
L 256.032172 145.393165 
L 256.148067 135.777111 
L 256.263962 146.473229 
L 256.379857 145.60221 
L 256.727542 146.333866 
L 256.843437 147.727497 
L 257.075227 144.766031 
L 257.191122 146.124821 
L 257.538808 146.961 
L 257.654703 141.247113 
L 257.770598 145.218961 
L 257.886493 145.114439 
L 258.002388 143.302718 
L 258.350073 145.950617 
L 258.465968 144.835713 
L 258.581863 148.528835 
L 258.697758 145.114439 
L 258.813653 146.124821 
L 259.277234 146.05514 
L 259.393129 145.741573 
L 259.509024 145.776414 
L 259.624919 145.428006 
L 259.972604 146.50807 
L 260.204394 145.915777 
L 260.436184 146.856478 
L 260.78387 144.417623 
L 261.01566 146.089981 
L 261.131555 145.63705 
L 261.595135 147.622975 
L 261.826925 149.469536 
L 261.94282 146.124821 
L 262.058715 136.264882 
L 262.406401 145.846095 
L 262.754086 137.553991 
L 262.869981 146.124821 
L 263.217666 145.323483 
L 263.333561 142.152973 
L 263.565351 146.542911 
L 263.681246 141.943928 
L 264.028932 141.247113 
L 264.144827 139.191507 
L 264.956092 130.481313 
L 265.187882 130.481313 
L 265.303777 127.136599 
L 265.651463 131.874944 
L 265.767358 130.481313 
L 265.883253 120.551692 
L 265.999148 120.621374 
L 266.115043 124.628063 
L 266.578623 121.283348 
L 266.694518 121.004622 
L 266.810413 116.719207 
L 266.926308 116.928251 
L 267.273994 110.726593 
L 267.621679 82.017794 
L 267.737574 65.67747 
L 268.085259 62.750845 
L 268.201154 57.803455 
L 268.432944 86.372891 
L 268.896525 102.260285 
L 269.24421 138.982462 
L 269.360105 145.60221 
L 269.70779 136.752653 
L 269.93958 113.931945 
L 270.055475 124.209973 
L 270.17137 118.112838 
L 270.519056 116.545003 
L 270.634951 116.649525 
L 270.750846 114.350034 
L 270.866741 117.450863 
L 270.982636 111.353727 
L 271.330321 113.862263 
L 271.446216 112.224747 
L 271.562111 108.078694 
L 271.678006 109.507166 
L 271.793901 109.193599 
L 272.141587 111.109842 
L 272.257482 103.096463 
L 272.373377 103.793279 
L 272.489272 103.235826 
L 272.605167 107.695446 
L 272.952852 106.963789 
L 273.068747 107.207675 
L 273.300537 108.984554 
L 273.416432 108.531624 
L 273.764118 108.670987 
L 273.880013 110.761434 
L 274.111803 108.636147 
L 274.227698 109.890415 
L 274.575383 109.855574 
L 274.691278 110.58723 
L 274.807173 103.758438 
L 275.038963 112.782199 
L 275.386649 112.747358 
L 275.502544 114.698442 
L 275.618439 113.026084 
L 275.734334 113.095766 
L 275.850229 113.583537 
L 276.313809 122.537616 
L 276.429704 129.43609 
L 276.545599 128.599911 
L 276.661494 131.805263 
L 277.125075 128.53023 
L 277.356865 118.321882 
L 277.47276 118.844494 
L 277.820445 122.886024 
L 277.93634 122.467935 
L 278.284025 124.97647 
L 278.631711 123.722203 
L 278.747606 124.244814 
L 278.863501 123.861566 
L 279.095291 129.366408 
L 279.442976 127.345643 
L 279.558871 128.704433 
L 279.674766 131.665899 
L 279.790661 130.481313 
L 280.370137 130.620676 
L 280.486032 132.641441 
L 280.601927 131.665899 
L 280.717822 133.651824 
L 281.297297 130.550995 
L 281.413192 130.620676 
L 281.876773 131.805263 
L 282.803933 128.98316 
L 282.919828 133.47762 
L 283.035723 132.432396 
L 283.151618 133.512461 
L 283.499304 130.620676 
L 283.615199 131.212969 
L 283.731094 130.516154 
L 283.846989 130.585835 
L 283.962884 129.679975 
L 284.310569 130.516154 
L 284.426464 132.885327 
L 284.542359 132.362715 
L 284.658254 132.362715 
L 284.774149 133.233734 
L 285.46952 140.68966 
L 285.585415 137.588831 
L 285.9331 138.808258 
L 286.16489 145.462847 
L 286.280785 142.152973 
L 286.39668 144.417623 
L 286.744366 147.309408 
L 286.860261 144.835713 
L 286.976156 138.146284 
L 287.207946 147.518452 
L 287.555631 145.811254 
L 287.671526 149.539217 
L 287.787421 158.110048 
L 287.903316 155.671194 
L 288.019211 156.333169 
L 288.714582 158.493297 
L 288.830477 159.224953 
L 289.294057 157.587437 
L 289.409952 158.249411 
L 289.641742 157.587437 
L 289.989428 157.27387 
L 290.221218 150.863167 
L 290.453008 150.340555 
L 290.916588 150.201192 
L 291.032483 150.723804 
L 291.148378 152.047753 
L 291.264273 151.037371 
L 291.611959 151.350938 
L 291.727854 150.967689 
L 291.843749 151.350938 
L 291.959644 152.36132 
L 292.423224 148.354631 
L 292.539119 152.535524 
L 292.770909 148.006223 
L 292.886804 151.594823 
L 293.23449 145.079598 
L 293.350385 151.246415 
L 293.46628 147.41393 
L 293.69807 148.424313 
L 294.045755 149.748262 
L 294.16165 148.389472 
L 294.277545 149.817944 
L 294.39344 143.3724 
L 294.509335 149.64374 
L 294.857021 145.18412 
L 294.972916 146.473229 
L 295.204706 150.166351 
L 301.810725 150.166351 
L 302.15841 156.263487 
L 302.274305 155.566672 
L 302.3902 156.542213 
L 302.506095 150.026988 
L 302.62199 156.263487 
L 302.969676 156.577054 
L 303.085571 154.974378 
L 303.201466 155.218264 
L 303.317361 155.915079 
L 303.433256 155.845398 
L 303.896836 156.890621 
L 304.012731 155.009219 
L 304.244521 160.095972 
L 304.592207 152.744569 
L 304.708102 154.939538 
L 304.823997 153.092976 
L 304.939892 148.703039 
L 305.055787 153.127817 
L 305.403472 155.357627 
L 305.519367 151.734186 
L 305.867052 156.368009 
L 306.214738 156.298328 
L 306.330633 149.330173 
L 306.446528 155.636353 
L 306.562423 155.078901 
L 307.257793 156.577054 
L 307.373688 155.009219 
L 307.489583 156.995143 
L 307.837269 156.611895 
L 307.953164 156.995143 
L 308.648534 154.59113 
L 308.764429 155.601512 
L 308.880324 153.824633 
L 309.112114 155.915079 
L 309.575695 158.144889 
L 309.69159 157.30871 
L 309.92338 157.30871 
L 310.271065 157.622277 
L 310.38696 158.075207 
L 310.502855 152.256798 
L 310.61875 159.259794 
L 310.734645 157.657118 
L 311.082331 157.970685 
L 311.198226 157.657118 
L 311.314121 158.319093 
L 311.430016 158.075207 
L 311.545911 158.284252 
L 312.009491 158.737182 
L 312.125386 158.737182 
L 312.241281 159.190112 
L 312.357176 159.155271 
L 312.704862 159.190112 
L 312.820757 158.772023 
L 312.936652 157.413233 
L 313.632022 157.935844 
L 313.979707 147.86686 
L 314.327393 148.215268 
L 314.790973 151.00253 
L 315.138658 148.528835 
L 315.254553 148.946924 
L 315.486343 148.877243 
L 315.602238 148.912083 
L 315.949924 148.877243 
L 316.181714 148.633357 
L 316.413504 148.389472 
L 316.761189 148.424313 
L 316.877084 148.563676 
L 317.108874 148.284949 
L 317.224769 148.563676 
L 317.572455 148.563676 
L 317.804245 148.389472 
L 318.036035 148.563676 
L 318.38372 148.424313 
L 318.499615 148.668198 
L 318.61551 148.31979 
L 319.194986 148.563676 
L 319.426776 142.814948 
L 319.542671 143.163355 
L 319.658566 142.327177 
L 320.122146 143.755649 
L 320.469831 144.382783 
L 320.933412 144.382783 
L 321.165202 144.556986 
L 321.281097 144.591827 
L 321.744677 144.417623 
L 321.860572 144.069216 
L 321.976467 145.218961 
L 322.092362 143.407241 
L 322.440048 143.964693 
L 322.555943 144.382783 
L 322.671838 146.089981 
L 322.903628 144.382783 
L 323.251313 144.382783 
L 323.714893 143.337559 
L 324.062579 142.954311 
L 324.178474 142.292336 
L 324.294369 144.766031 
L 325.337424 150.061829 
L 325.68511 144.452464 
L 325.801005 144.661509 
L 325.9169 144.417623 
L 326.032795 143.337559 
L 326.14869 145.079598 
L 326.496375 144.73119 
L 326.728165 143.964693 
L 326.84406 144.487305 
L 326.959955 144.382783 
L 327.423536 144.417623 
L 327.539431 144.661509 
L 327.771221 142.118132 
L 328.118906 142.954311 
L 328.234801 142.46654 
L 328.466591 143.616285 
L 328.582486 142.01361 
L 328.930172 142.431699 
L 329.046067 143.023992 
L 329.161962 145.323483 
L 329.277857 144.382783 
L 329.393752 145.462847 
L 329.973227 146.473229 
L 330.089122 147.901701 
L 330.205017 147.901701 
L 330.668598 150.445077 
L 330.900388 147.727497 
L 331.016283 147.448771 
L 331.363968 149.64374 
L 331.479863 151.281256 
L 331.595758 148.946924 
L 331.711653 148.912083 
L 331.827548 148.668198 
L 332.175234 148.389472 
L 332.522919 149.365013 
L 332.638814 148.912083 
L 333.102394 148.737879 
L 333.218289 148.459153 
L 333.334184 149.608899 
L 333.450079 148.633357 
L 333.797765 150.410237 
L 333.91366 149.64374 
L 334.029555 153.998837 
L 334.261345 148.424313 
L 334.60903 148.250109 
L 334.84082 146.891318 
L 334.956715 147.901701 
L 335.420296 146.612592 
L 335.767981 146.751955 
L 336.231561 148.563676 
L 336.347456 147.936542 
L 336.579246 147.901701 
L 336.695141 146.264184 
L 337.042827 144.940235 
L 337.158722 144.975076 
L 337.274617 147.239726 
L 337.390512 144.870553 
L 337.506407 147.553293 
L 337.854092 146.194503 
L 337.969987 144.870553 
L 338.085882 135.115136 
L 338.201777 144.522146 
L 338.317672 144.626668 
L 338.665358 137.449468 
L 338.897148 141.943928 
L 339.013043 142.083291 
L 339.128938 150.584441 
L 339.592518 142.849788 
L 339.708413 143.163355 
L 340.635574 132.955008 
L 340.751469 126.230738 
L 341.099154 123.757043 
L 341.215049 118.043156 
L 341.446839 118.112838 
L 341.562734 140.898705 
L 341.91042 140.933546 
L 342.14221 126.021694 
L 342.374 140.898705 
L 342.721685 138.006921 
L 342.83758 141.003227 
L 342.953475 137.240424 
L 343.185265 123.61768 
L 343.532951 128.181822 
L 343.648846 126.718509 
L 343.764741 138.599214 
L 343.996531 128.146981 
L 344.344216 133.93055 
L 344.460111 123.199591 
L 344.691901 137.693354 
L 344.807796 134.906092 
L 345.387272 144.766031 
L 345.503167 144.417623 
L 345.619062 143.685967 
L 346.082642 145.393165 
L 346.198537 141.943928 
L 346.430327 127.101758 
L 346.893908 144.940235 
L 347.125698 138.808258 
L 347.241593 140.480616 
L 347.705173 142.780107 
L 347.821068 140.201889 
L 347.936963 144.905394 
L 348.052858 142.152973 
L 348.516439 141.456157 
L 348.632334 141.247113 
L 348.748229 144.069216 
L 348.864124 140.898705 
L 349.559494 137.449468 
L 349.675389 139.156666 
L 350.023075 132.745963 
L 350.254865 141.038068 
L 350.37076 141.316794 
L 350.486655 137.344946 
L 350.950235 141.700043 
L 351.06613 135.707429 
L 351.182025 140.759342 
L 351.29792 139.714119 
L 351.645606 139.052144 
L 351.761501 139.609596 
L 351.877396 140.863864 
L 351.993291 140.376093 
L 352.109186 140.68966 
L 352.456871 130.307109 
L 352.688661 139.923163 
L 352.804556 138.006921 
L 352.920451 138.181124 
L 353.384032 140.445775 
L 353.499927 138.808258 
L 353.615822 139.888322 
L 353.731717 138.947622 
L 354.195297 133.721505 
L 354.311192 135.707429 
L 354.542982 130.585835 
L 355.006563 137.135901 
L 355.122458 134.000231 
L 355.238353 136.404245 
L 355.354248 135.28934 
L 355.701933 134.209276 
L 355.817828 133.47762 
L 355.933723 136.61329 
L 356.049618 130.481313 
L 356.165513 134.801569 
L 356.513199 135.637748 
L 356.629094 132.432396 
L 356.860884 136.578449 
L 356.976779 132.57176 
L 357.324464 132.885327 
L 357.556254 135.010614 
L 357.788044 129.192204 
L 358.13573 131.422014 
L 358.251625 128.53023 
L 358.36752 128.774115 
L 358.59931 124.000929 
L 359.06289 113.060925 
L 359.29468 97.417417 
L 359.410575 105.500477 
L 359.874156 97.905188 
L 359.990051 97.521939 
L 360.569526 89.822128 
L 360.685421 89.682765 
L 360.917211 91.564167 
L 361.033106 93.619772 
L 361.380792 93.341046 
L 361.496687 93.027479 
L 361.612582 92.295823 
L 361.844372 96.302512 
L 362.192057 95.640537 
L 362.307952 95.083085 
L 362.423847 96.441875 
L 362.539742 96.267671 
L 362.655637 97.417417 
L 363.003323 95.919264 
L 363.235113 105.883725 
L 363.351008 106.09277 
L 363.466903 103.340349 
L 363.814588 104.315891 
L 364.162273 99.960794 
L 364.278168 100.622768 
L 364.625854 100.762131 
L 364.857644 106.127611 
L 364.973539 106.09277 
L 365.089434 103.723597 
L 365.668909 103.305508 
L 365.900699 99.891112 
L 366.248385 97.696143 
L 366.480175 106.023089 
L 366.59607 104.315891 
L 367.52323 102.922259 
L 367.870916 95.954104 
L 367.986811 99.054933 
L 368.102706 96.372194 
L 368.218601 101.180221 
L 368.334496 98.044551 
L 368.682181 98.114232 
L 368.798076 100.69245 
L 368.913971 109.367803 
L 369.145761 99.438182 
L 369.493447 100.831813 
L 369.609342 100.831813 
L 369.725237 105.604999 
L 369.957027 100.901495 
L 370.304712 102.225444 
L 370.420607 96.407034 
L 370.652397 99.82143 
L 370.768292 100.831813 
L 371.115978 98.149073 
L 371.231873 102.573852 
L 371.463663 99.960794 
L 371.579558 99.960794 
L 371.927243 100.518246 
L 372.043138 101.006017 
L 372.159033 105.361114 
L 372.390823 131.874944 
L 372.738509 138.355328 
L 373.202089 125.324878 
L 373.549774 126.30042 
L 373.897459 131.979466 
L 374.013354 132.885327 
L 374.476935 132.188511 
L 374.59283 138.146284 
L 374.708725 136.682971 
L 374.82462 125.812649 
L 375.172305 134.069913 
L 375.2882 133.582142 
L 375.404095 132.188511 
L 375.51999 132.188511 
L 375.635885 132.397556 
L 375.983571 121.109144 
L 376.099466 109.890415 
L 376.215361 111.214364 
L 376.447151 117.903793 
L 376.910731 117.276659 
L 377.142521 113.444174 
L 377.258416 116.510162 
L 377.721997 113.026084 
L 378.069682 107.486401 
L 378.417367 104.385572 
L 378.533262 105.535318 
L 378.880947 102.016399 
L 379.344528 104.420413 
L 379.460423 103.967483 
L 379.576318 105.291432 
L 379.692213 103.340349 
L 380.039898 101.633151 
L 380.387583 92.922957 
L 380.503478 80.136392 
L 381.662429 63.621865 
L 381.894219 31.219943 
L 382.126009 70.868746 
L 382.58959 57.246003 
L 382.82138 61.566259 
L 382.937275 60.764921 
L 383.28496 61.844985 
L 383.51675 65.503266 
L 383.632645 65.085177 
L 384.096226 66.060719 
L 384.212121 69.475115 
L 384.328016 69.335752 
L 384.443911 74.317983 
L 384.559806 73.656008 
L 385.023386 80.659004 
L 385.139281 77.418812 
L 385.255176 80.972571 
L 385.371071 78.533717 
L 385.718757 79.57894 
L 385.834652 79.544099 
L 386.530022 81.878431 
L 386.645917 81.982953 
L 386.993602 88.672382 
L 387.341288 86.024483 
L 387.457183 81.704227 
L 387.573078 82.679769 
L 387.804868 81.982953 
L 388.384343 81.669386 
L 388.616133 81.077093 
L 389.427399 81.077093 
L 390.006874 81.669386 
L 390.122769 81.355819 
L 390.238664 81.84359 
L 390.702245 81.704227 
L 391.04993 82.888813 
L 391.7453 83.794674 
L 391.861195 89.299516 
L 392.208881 95.570856 
L 392.440671 91.041555 
L 392.556566 92.295823 
L 392.672461 91.459644 
L 393.136041 82.122316 
L 393.251936 82.401043 
L 393.483726 82.087476 
L 393.831412 82.017794 
L 393.947307 81.669386 
L 394.063202 80.693845 
L 394.294992 81.042252 
L 394.642677 81.042252 
L 394.758572 81.181615 
L 394.874467 81.599705 
L 394.990362 81.320979 
L 395.453943 80.693845 
L 395.685733 81.320979 
L 395.801628 79.997029 
L 395.917523 80.136392 
L 396.265208 78.359513 
L 396.381103 79.962188 
L 396.496998 78.185309 
L 396.612893 78.568557 
L 396.728788 78.429194 
L 397.192369 78.568557 
L 397.540054 72.994033 
L 397.887739 73.481804 
L 398.003634 73.063715 
L 398.119529 73.656008 
L 398.235424 76.44327 
L 398.351319 75.119321 
L 398.8149 74.387664 
L 398.930795 74.248301 
L 399.04669 73.481804 
L 399.162585 74.945117 
L 399.626165 73.656008 
L 399.74206 74.004416 
L 399.857955 72.959192 
L 399.97385 72.994033 
L 400.321536 75.154161 
L 400.437431 74.004416 
L 400.669221 74.17862 
L 400.785116 74.701231 
L 401.132801 74.736072 
L 401.248696 76.547792 
L 401.480486 76.652315 
L 401.596381 78.185309 
L 401.944067 78.185309 
L 402.175857 78.986647 
L 402.291752 82.052635 
L 402.407647 93.793976 
L 402.755332 88.358815 
L 402.871227 89.02079 
L 402.987122 90.344739 
L 403.218912 90.344739 
L 403.566598 85.43219 
L 403.682493 81.704227 
L 403.798388 83.690151 
L 404.030178 81.251297 
L 404.377863 81.251297 
L 404.609653 78.882124 
L 404.725548 78.882124 
L 404.841443 80.136392 
L 405.189129 80.101551 
L 405.305024 79.927348 
L 405.536814 78.70792 
L 405.652709 79.300214 
L 406.000394 79.265373 
L 406.116289 81.007412 
L 406.232184 79.335054 
L 406.348079 82.470724 
L 406.463974 79.300214 
L 407.04345 79.265373 
L 407.27524 79.892507 
L 407.622925 79.962188 
L 407.73882 78.359513 
L 407.854715 79.648621 
L 407.97061 79.369895 
L 408.086505 79.57894 
L 408.434191 79.335054 
L 408.897771 75.154161 
L 410.056722 75.223843 
L 410.172617 73.3076 
L 410.288512 73.342441 
L 410.867987 72.610785 
L 411.099777 69.719 
L 411.215672 70.067408 
L 411.679253 68.151165 
L 411.911043 69.440274 
L 412.026938 69.196389 
L 412.142833 71.461039 
L 412.606413 70.520338 
L 412.722308 70.520338 
L 412.838203 69.962886 
L 412.954098 71.461039 
L 413.301784 70.206771 
L 413.417679 71.321676 
L 413.533574 71.251994 
L 413.649469 70.694542 
L 414.113049 74.701231 
L 414.228944 73.098556 
L 414.344839 73.3076 
L 414.460734 73.098556 
L 414.576629 74.422505 
L 415.04021 74.979957 
L 415.156105 73.586326 
L 415.272 75.328365 
L 415.387895 74.805754 
L 415.73558 76.582633 
L 415.851475 73.237919 
L 416.083265 75.816136 
L 416.19916 77.140086 
L 416.778636 94.734677 
L 416.894531 95.257289 
L 417.010426 90.031173 
L 417.358111 86.895503 
L 417.589901 78.324672 
L 417.705796 79.195691 
L 417.821691 76.652315 
L 418.169377 76.44327 
L 418.285272 77.34913 
L 418.401167 76.826519 
L 418.517062 78.951806 
L 418.632957 75.258684 
L 419.096537 77.697538 
L 419.212432 77.523334 
L 419.328327 76.756837 
L 419.444222 76.861359 
L 420.023698 77.593016 
L 420.139593 77.593016 
L 420.255488 78.150468 
L 420.603173 77.418812 
L 420.950858 78.22015 
L 421.066753 77.627856 
L 421.414439 77.174926 
L 421.530334 80.728685 
L 421.646229 78.324672 
L 421.762124 78.324672 
L 421.878019 78.080786 
L 423.03697 61.740463 
L 423.152865 68.499573 
L 423.26876 68.499573 
L 423.384655 70.520338 
L 423.50055 70.032567 
L 423.848235 71.217154 
L 424.080025 71.217154 
L 424.19592 74.074097 
L 424.311815 71.321676 
L 425.007186 78.882124 
L 425.123081 76.8962 
L 425.470766 78.289831 
L 425.586661 79.857666 
L 425.702556 78.742761 
L 425.818451 78.742761 
L 425.934346 79.787984 
L 426.282032 78.289831 
L 426.397927 66.58333 
L 426.629717 81.634546 
L 426.745612 79.927348 
L 427.093297 79.787984 
L 427.209192 80.310596 
L 427.325087 79.927348 
L 427.556877 80.415118 
L 427.904563 80.275755 
L 428.020458 79.962188 
L 428.136353 80.972571 
L 428.368143 80.066711 
L 428.715828 81.704227 
L 428.831723 80.798367 
L 429.063513 80.972571 
L 429.179408 81.669386 
L 429.527094 81.042252 
L 429.642989 82.087476 
L 429.758884 80.659004 
L 429.874779 81.669386 
L 429.990674 78.812443 
L 430.338359 79.474417 
L 430.454254 80.972571 
L 430.686044 81.320979 
L 430.801939 76.965882 
L 431.26552 82.017794 
L 431.49731 82.401043 
L 431.613205 82.366202 
L 431.96089 83.446266 
L 432.076785 85.153464 
L 432.19268 81.704227 
L 432.308575 83.411425 
L 432.42447 81.320979 
L 432.772156 81.704227 
L 432.888051 79.857666 
L 433.003946 80.798367 
L 433.119841 79.021487 
L 433.235736 81.007412 
L 433.931106 81.077093 
L 434.047001 80.206074 
L 434.394687 81.669386 
L 434.626477 81.739068 
L 434.858267 81.042252 
L 435.437742 80.519641 
L 435.553637 76.652315 
L 435.669532 81.704227 
L 436.480798 81.704227 
L 436.944378 81.773909 
L 437.060273 83.585629 
L 437.292063 79.021487 
L 437.639749 81.739068 
L 437.755644 81.007412 
L 437.987434 83.272062 
L 438.103329 81.669386 
L 438.566909 82.087476 
L 438.798699 81.773909 
L 438.914594 82.191998 
L 439.49407 82.29652 
L 440.073545 80.275755 
L 440.18944 85.083782 
L 440.305335 82.366202 
L 440.42123 82.331361 
L 440.537125 82.853973 
L 440.884811 81.84359 
L 441.232496 84.97926 
L 441.696076 82.784291 
L 441.811971 81.84359 
L 441.927866 83.411425 
L 442.043761 83.132699 
L 442.159656 74.387664 
L 442.507342 78.185309 
L 442.739132 82.191998 
L 442.855027 82.366202 
L 442.970922 81.739068 
L 443.318607 81.773909 
L 443.434502 82.29652 
L 444.129873 82.366202 
L 444.245768 85.153464 
L 444.477558 82.366202 
L 444.593453 82.540406 
L 444.941138 83.934037 
L 445.172928 82.71461 
L 445.288823 82.29652 
L 445.404718 79.927348 
L 445.868299 83.655311 
L 445.984194 83.132699 
L 446.100089 78.22015 
L 446.215984 82.122316 
L 446.563669 82.71461 
L 446.679564 79.439577 
L 446.911354 84.282445 
L 447.027249 84.456648 
L 447.374935 85.188305 
L 447.606725 85.223145 
L 447.72262 88.602701 
L 447.838515 88.463338 
L 448.1862 87.696841 
L 448.302095 88.637541 
L 448.41799 92.086778 
L 448.64978 88.637541 
L 449.113361 94.769518 
L 449.229256 94.560473 
L 449.345151 95.257289 
L 449.461046 98.602003 
L 449.808731 96.023786 
L 449.924626 90.449262 
L 450.040521 96.616079 
L 450.272311 91.006714 
L 450.619997 90.344739 
L 450.735892 89.194994 
L 450.967682 92.191301 
L 452.242528 89.856969 
L 452.358423 97.347735 
L 452.590213 89.02079 
L 452.706108 89.194994 
L 453.169688 89.194994 
L 453.285583 79.997029 
L 453.401478 90.205376 
L 453.517373 86.33805 
L 453.865059 89.299516 
L 453.980954 88.498178 
L 454.096849 79.927348 
L 454.212744 94.142384 
L 454.328639 91.320281 
L 454.676324 90.484103 
L 454.792219 91.668689 
L 455.139904 81.320979 
L 455.48759 92.051937 
L 455.71938 89.438879 
L 455.835275 97.521939 
L 455.95117 90.449262 
L 456.41475 91.2506 
L 456.530645 89.47372 
L 456.762435 93.132002 
L 457.110121 100.483405 
L 457.226016 100.413724 
L 457.341911 99.33366 
L 457.573701 95.640537 
L 457.921386 101.842195 
L 458.153176 91.982256 
L 458.269071 92.713912 
L 458.384966 96.407034 
L 458.732652 95.083085 
L 458.848547 96.163149 
L 459.080337 101.284743 
L 459.196232 99.124615 
L 459.543917 98.079392 
L 459.775707 98.88073 
L 460.007497 98.741366 
L 460.355183 100.587928 
L 460.818763 115.813346 
L 461.398238 106.685063 
L 461.630028 94.177225 
L 462.093609 96.476716 
L 462.209504 104.315891 
L 462.325399 96.65092 
L 462.441294 104.768821 
L 462.788979 105.918566 
L 462.904874 104.28105 
L 463.136664 108.914873 
L 463.252559 103.305508 
L 463.600245 103.235826 
L 463.71614 105.18691 
L 463.832035 100.831813 
L 464.063825 103.897801 
L 464.41151 110.726593 
L 464.527405 102.364807 
L 464.6433 110.343345 
L 464.759195 104.002324 
L 464.87509 109.263281 
L 465.222776 107.068312 
L 465.338671 101.319584 
L 465.454566 106.928949 
L 465.570461 103.688757 
L 465.686356 109.22844 
L 466.034041 101.075698 
L 466.265831 106.963789 
L 466.381726 104.629458 
L 467.656572 106.406337 
L 467.772467 103.723597 
L 467.888362 105.395955 
L 468.004257 103.584234 
L 468.120152 111.94602 
L 468.467838 103.932642 
L 468.583733 111.318886 
L 468.815523 102.991941 
L 468.931418 102.469329 
L 469.279103 103.967483 
L 469.510893 101.284743 
L 469.742683 107.939331 
L 470.206264 102.887419 
L 470.322159 103.270667 
L 470.438054 102.608693 
L 470.553949 112.782199 
L 470.901634 103.200986 
L 471.017529 104.072005 
L 471.249319 104.141687 
L 471.365214 104.385572 
L 471.94469 106.510859 
L 472.060585 103.131304 
L 472.17648 105.988248 
L 472.755955 102.748056 
L 473.335431 102.817737 
L 473.451326 103.688757 
L 473.567221 103.270667 
L 473.683116 102.260285 
L 473.799011 102.678374 
L 474.146696 105.395955 
L 474.262591 103.479712 
L 474.494381 103.86296 
L 474.610276 103.166145 
L 474.957962 103.340349 
L 475.073857 102.713215 
L 475.189752 103.026782 
L 475.305647 102.922259 
L 475.421542 102.573852 
L 475.769227 102.608693 
L 475.885122 102.50417 
L 476.580493 102.852578 
L 476.696388 102.713215 
L 476.812283 103.166145 
L 476.928178 102.608693 
L 477.391758 102.573852 
L 477.507653 102.434489 
L 477.623548 101.911877 
L 477.739443 102.748056 
L 477.855338 101.667992 
L 478.318919 102.539011 
L 478.550709 101.215061 
L 478.666604 101.389265 
L 479.014289 101.075698 
L 479.130184 99.647227 
L 479.246079 99.751749 
L 479.361974 101.389265 
L 479.477869 99.3685 
L 479.825555 100.065316 
L 480.057345 98.741366 
L 480.17324 99.194296 
L 480.289135 97.626462 
L 480.752715 96.267671 
L 480.86861 96.894805 
L 480.984505 94.8392 
L 481.1004 98.149073 
L 481.448086 97.800665 
L 481.563981 97.034168 
L 481.679876 97.730984 
L 481.911666 105.012706 
L 482.259351 100.378883 
L 482.375246 100.344042 
L 482.491141 99.577545 
L 482.607036 103.82812 
L 482.722931 102.120922 
L 483.070617 103.653916 
L 483.302407 100.134997 
L 483.418302 102.539011 
L 483.534197 100.378883 
L 483.881882 100.971176 
L 484.113672 100.344042 
L 484.229567 103.653916 
L 484.345462 102.225444 
L 484.693148 102.225444 
L 484.809043 106.023089 
L 484.924938 101.528628 
L 485.156728 106.232133 
L 485.504413 101.528628 
L 485.852098 106.789586 
L 485.967993 105.570158 
L 486.315679 105.848885 
L 486.663364 103.653916 
L 487.358734 103.549393 
L 487.590524 102.608693 
L 487.93821 103.758438 
L 488.285895 101.702832 
L 488.40179 102.539011 
L 488.749475 101.737673 
L 488.86537 95.605697 
L 489.09716 100.727291 
L 489.213055 100.796972 
L 489.560741 98.985252 
L 489.676636 101.14538 
L 489.792531 97.870347 
L 490.024321 98.845889 
L 490.372006 98.323277 
L 490.487901 100.204679 
L 490.603796 97.487098 
L 490.719691 99.089774 
L 490.835586 97.487098 
L 491.183272 96.720601 
L 491.299167 97.278054 
L 491.415062 96.128308 
L 491.530957 98.079392 
L 491.646852 95.501174 
L 492.342222 97.870347 
L 492.458117 95.988945 
L 492.805803 96.894805 
L 492.921698 98.079392 
L 493.153488 97.940029 
L 493.269383 98.567163 
L 493.617068 98.532322 
L 494.544229 98.91557 
L 494.660124 98.706526 
L 494.891914 99.78659 
L 495.239599 101.319584 
L 495.471389 99.298819 
L 495.587284 100.309201 
L 495.703179 99.3685 
L 496.050865 100.030475 
L 496.16676 98.46264 
L 496.282655 111.075001 
L 496.514445 88.707223 
L 496.86213 93.236524 
L 496.978025 92.435186 
L 497.09392 93.166842 
L 497.209815 89.404039 
L 497.32571 90.37958 
L 497.673396 90.762829 
L 497.905186 90.170536 
L 498.021081 91.006714 
L 498.136976 90.588625 
L 498.484661 91.424804 
L 498.600556 92.086778 
L 498.716451 91.912574 
L 498.832346 90.588625 
L 498.948241 92.086778 
L 499.411822 91.076396 
L 499.527717 88.846586 
L 499.643612 89.438879 
L 499.759507 89.02079 
L 500.107192 99.82143 
L 500.223087 96.894805 
L 500.338982 89.229835 
L 500.454877 90.240217 
L 500.570772 90.135695 
L 500.918458 89.369198 
L 501.034353 76.791678 
L 501.150248 87.20907 
L 501.266143 86.79098 
L 501.382038 83.063017 
L 501.845618 83.794674 
L 503.352254 122.746661 
L 503.468149 123.722203 
L 503.584044 123.234432 
L 503.815834 118.879335 
L 504.16352 119.332265 
L 504.279415 116.579844 
L 504.511205 119.088379 
L 504.6271 119.088379 
L 504.974785 112.538314 
L 505.09068 112.712517 
L 505.206575 113.688059 
L 505.438365 113.513855 
L 505.786051 111.876339 
L 506.017841 113.409333 
L 506.133736 112.921562 
L 506.249631 114.62876 
L 506.597316 105.883725 
L 506.713211 114.001626 
L 506.829106 113.583537 
L 506.945001 113.966785 
L 507.408582 106.894108 
L 508.451637 93.933339 
L 508.567532 108.845191 
L 508.683427 103.37519 
L 509.031113 108.252898 
L 509.147008 105.256591 
L 509.378798 111.144683 
L 509.494693 107.381879 
L 509.842378 106.127611 
L 509.958273 110.273663 
L 510.074168 108.636147 
L 510.190063 108.636147 
L 510.305958 109.437485 
L 510.653644 110.622071 
L 510.769539 107.033471 
L 510.885434 112.224747 
L 511.001329 110.1343 
L 511.117224 112.503473 
L 511.580804 112.329269 
L 511.696699 110.169141 
L 511.812594 112.294428 
L 511.928489 112.120224 
L 512.276175 112.329269 
L 512.39207 111.980861 
L 512.507965 112.503473 
L 512.62386 109.716211 
L 512.739755 110.064619 
L 513.08744 110.064619 
L 513.203335 110.308504 
L 513.31923 111.388568 
L 513.55102 109.367803 
L 514.130496 111.91118 
L 514.246391 111.806657 
L 514.362286 110.482708 
L 514.709971 110.935638 
L 514.825866 111.91118 
L 514.941761 111.562772 
L 515.057656 109.22844 
L 515.521237 111.144683 
L 515.637132 111.075001 
L 515.753027 111.841498 
L 515.868922 110.935638 
L 515.984817 111.702135 
L 516.564292 112.956403 
L 516.680187 112.921562 
L 516.796082 113.060925 
L 517.143768 111.109842 
L 517.259663 114.350034 
L 517.375558 111.980861 
L 517.491453 115.569461 
L 517.607348 115.221053 
L 517.955033 109.22844 
L 518.070928 115.49978 
L 518.186823 102.573852 
L 518.998089 102.817737 
L 519.113984 112.050543 
L 519.229879 103.270667 
L 519.577564 103.270667 
L 519.693459 112.921562 
L 519.809354 110.970479 
L 519.925249 112.712517 
L 520.041144 102.991941 
L 520.38883 112.851881 
L 520.504725 109.542007 
L 520.62062 109.542007 
L 520.736515 107.765127 
L 520.85241 109.472325 
L 521.200095 109.402644 
L 521.31599 109.542007 
L 521.431885 110.726593 
L 521.54778 104.524935 
L 521.663675 104.524935 
L 522.127256 105.953407 
L 522.243151 111.249205 
L 522.359046 110.064619 
L 522.474941 106.894108 
L 522.822626 112.468632 
L 522.938521 105.883725 
L 523.170311 109.542007 
L 523.286206 109.716211 
L 523.633892 104.803661 
L 523.865682 109.542007 
L 523.981577 106.09277 
L 524.097472 108.32258 
L 524.445157 108.32258 
L 524.676947 112.956403 
L 524.908737 102.573852 
L 525.256423 102.573852 
L 525.372318 108.392261 
L 525.488213 106.127611 
L 525.720003 111.353727 
L 526.067688 109.472325 
L 526.183583 111.04016 
L 526.299478 110.273663 
L 526.415373 99.891112 
L 526.531268 99.891112 
L 526.878954 110.064619 
L 526.994849 109.542007 
L 527.110744 110.935638 
L 527.226639 110.935638 
L 527.342534 97.661302 
L 527.690219 97.661302 
L 527.922009 110.308504 
L 528.037904 109.402644 
L 528.153799 99.124615 
L 528.61738 109.367803 
L 528.965065 101.180221 
L 529.31275 104.873343 
L 529.428645 100.727291 
L 529.54454 103.061623 
L 529.660435 96.790283 
L 530.124016 96.790283 
L 530.239911 107.207675 
L 530.355806 99.229137 
L 530.471701 101.389265 
L 530.587596 111.214364 
L 530.935281 99.124615 
L 531.051176 109.123918 
L 531.167071 109.507166 
L 531.282966 109.472325 
L 531.398861 111.876339 
L 531.746547 111.249205 
L 532.094232 97.696143 
L 532.210127 97.696143 
L 532.557812 111.249205 
L 532.673707 111.284046 
L 532.789602 107.277356 
L 532.905497 98.00971 
L 533.021392 112.224747 
L 533.484973 102.573852 
L 533.600868 99.473023 
L 533.716763 99.473023 
L 533.832658 99.960794 
L 534.180343 99.960794 
L 534.412133 110.58723 
L 534.528028 110.099459 
L 534.643923 110.099459 
L 535.107504 111.771817 
L 535.339294 134.975773 
L 535.455189 123.931247 
L 535.802874 115.883028 
L 535.918769 103.305508 
L 536.961825 98.741366 
L 537.07772 109.542007 
L 537.425405 110.169141 
L 537.5413 109.960096 
L 537.77309 105.012706 
L 537.888985 112.468632 
L 538.352566 102.887419 
L 539.047936 112.015702 
L 539.163831 99.507863 
L 539.279726 109.576848 
L 539.395621 109.019395 
L 539.511516 107.660605 
L 539.859202 109.123918 
L 540.090992 105.256591 
L 540.206887 106.685063 
L 540.322782 99.124615 
L 540.670467 105.535318 
L 540.786362 102.50417 
L 541.018152 111.214364 
L 541.134047 110.517549 
L 541.481733 115.012009 
L 541.597628 127.728892 
L 541.829418 105.18691 
L 541.945313 104.072005 
L 542.292998 103.41003 
L 542.524788 109.925255 
L 542.640683 109.646529 
L 542.756578 110.517549 
L 543.104264 110.58723 
L 543.220159 117.3115 
L 543.336054 116.788888 
L 543.451949 117.938634 
L 543.567844 120.656214 
L 543.915529 124.384177 
L 544.031424 132.711123 
L 544.147319 132.780804 
L 544.263214 124.419018 
L 544.379109 128.042459 
L 544.726795 129.993542 
L 544.958585 137.693354 
L 545.07448 136.787493 
L 545.190375 139.400552 
L 545.53806 136.125519 
L 545.76985 137.06622 
L 545.885745 137.10106 
L 546.00164 138.215965 
L 546.349326 135.080295 
L 546.581116 127.763733 
L 547.160591 132.049148 
L 547.276486 131.526536 
L 547.392381 121.213667 
L 547.508276 130.237428 
L 547.624171 125.080993 
L 547.971857 121.875641 
L 548.087752 116.684366 
L 548.203647 120.02908 
L 548.319542 130.446472 
L 548.435437 129.784498 
L 548.783122 130.272268 
L 548.899017 131.352332 
L 549.014912 120.48201 
L 549.246702 131.491696 
L 549.594388 131.387173 
L 549.710283 129.784498 
L 549.826178 120.02908 
L 549.942073 131.212969 
L 550.057968 123.234432 
L 550.521548 126.370102 
L 550.637443 125.917171 
L 550.753338 121.701438 
L 550.869233 121.562074 
L 551.216918 117.694748 
L 551.332814 124.628063 
L 551.564604 110.656912 
L 551.680499 123.129909 
L 552.955345 119.367106 
L 553.07124 116.579844 
L 553.187135 117.834111 
L 553.30303 117.555385 
L 553.650715 117.799271 
L 553.76661 113.26997 
L 553.9984 129.784498 
L 554.114295 118.321882 
L 554.46198 107.834809 
L 554.577876 107.834809 
L 554.693771 105.361114 
L 554.809666 116.684366 
L 554.925561 109.68137 
L 555.389141 113.409333 
L 555.505036 113.339651 
L 555.736826 112.886721 
L 556.084511 114.071308 
L 556.200407 111.284046 
L 556.316302 116.510162 
L 556.432197 108.705828 
L 556.548092 112.39895 
L 556.895777 108.496784 
L 557.127567 108.636147 
L 557.243462 113.026084 
L 557.359357 109.193599 
L 557.822938 116.335958 
L 557.938833 113.095766 
L 558.170623 114.977168 
L 558.518308 106.232133 
L 558.634203 109.890415 
L 559.561364 109.890415 
L 559.561364 109.890415 
" clip-path="url(#pee62a125de)" style="fill: none; stroke: #0c0c0c; stroke-width: 1.5; stroke-linecap: square"/>
   </g>
   <g id="patch_3">
    <path d="M 26.925 218.158125 
L 26.925 22.318125 
" style="fill: none; stroke: #000000; stroke-width: 0.8; stroke-linejoin: miter; stroke-linecap: square"/>
   </g>
   <g id="patch_4">
    <path d="M 584.925 218.158125 
L 584.925 22.318125 
" style="fill: none; stroke: #000000; stroke-width: 0.8; stroke-linejoin: miter; stroke-linecap: square"/>
   </g>
   <g id="patch_5">
    <path d="M 26.925 218.158125 
L 584.925 218.158125 
" style="fill: none; stroke: #000000; stroke-width: 0.8; stroke-linejoin: miter; stroke-linecap: square"/>
   </g>
   <g id="patch_6">
    <path d="M 26.925 22.318125 
L 584.925 22.318125 
" style="fill: none; stroke: #000000; stroke-width: 0.8; stroke-linejoin: miter; stroke-linecap: square"/>
   </g>
   <g id="text_15">
    <!-- Original Dataset Figure -->
    <g transform="translate(236.819063 16.318125) scale(0.12 -0.12)">
     <defs>
      <path id="DejaVuSans-4f" d="M 2522 4238 
Q 1834 4238 1429 3725 
Q 1025 3213 1025 2328 
Q 1025 1447 1429 934 
Q 1834 422 2522 422 
Q 3209 422 3611 934 
Q 4013 1447 4013 2328 
Q 4013 3213 3611 3725 
Q 3209 4238 2522 4238 
z
M 2522 4750 
Q 3503 4750 4090 4092 
Q 4678 3434 4678 2328 
Q 4678 1225 4090 567 
Q 3503 -91 2522 -91 
Q 1538 -91 948 565 
Q 359 1222 359 2328 
Q 359 3434 948 4092 
Q 1538 4750 2522 4750 
z
" transform="scale(0.015625)"/>
      <path id="DejaVuSans-72" d="M 2631 2963 
Q 2534 3019 2420 3045 
Q 2306 3072 2169 3072 
Q 1681 3072 1420 2755 
Q 1159 2438 1159 1844 
L 1159 0 
L 581 0 
L 581 3500 
L 1159 3500 
L 1159 2956 
Q 1341 3275 1631 3429 
Q 1922 3584 2338 3584 
Q 2397 3584 2469 3576 
Q 2541 3569 2628 3553 
L 2631 2963 
z
" transform="scale(0.015625)"/>
      <path id="DejaVuSans-67" d="M 2906 1791 
Q 2906 2416 2648 2759 
Q 2391 3103 1925 3103 
Q 1463 3103 1205 2759 
Q 947 2416 947 1791 
Q 947 1169 1205 825 
Q 1463 481 1925 481 
Q 2391 481 2648 825 
Q 2906 1169 2906 1791 
z
M 3481 434 
Q 3481 -459 3084 -895 
Q 2688 -1331 1869 -1331 
Q 1566 -1331 1297 -1286 
Q 1028 -1241 775 -1147 
L 775 -588 
Q 1028 -725 1275 -790 
Q 1522 -856 1778 -856 
Q 2344 -856 2625 -561 
Q 2906 -266 2906 331 
L 2906 616 
Q 2728 306 2450 153 
Q 2172 0 1784 0 
Q 1141 0 747 490 
Q 353 981 353 1791 
Q 353 2603 747 3093 
Q 1141 3584 1784 3584 
Q 2172 3584 2450 3431 
Q 2728 3278 2906 2969 
L 2906 3500 
L 3481 3500 
L 3481 434 
z
" transform="scale(0.015625)"/>
      <path id="DejaVuSans-6e" d="M 3513 2113 
L 3513 0 
L 2938 0 
L 2938 2094 
Q 2938 2591 2744 2837 
Q 2550 3084 2163 3084 
Q 1697 3084 1428 2787 
Q 1159 2491 1159 1978 
L 1159 0 
L 581 0 
L 581 3500 
L 1159 3500 
L 1159 2956 
Q 1366 3272 1645 3428 
Q 1925 3584 2291 3584 
Q 2894 3584 3203 3211 
Q 3513 2838 3513 2113 
z
" transform="scale(0.015625)"/>
      <path id="DejaVuSans-61" d="M 2194 1759 
Q 1497 1759 1228 1600 
Q 959 1441 959 1056 
Q 959 750 1161 570 
Q 1363 391 1709 391 
Q 2188 391 2477 730 
Q 2766 1069 2766 1631 
L 2766 1759 
L 2194 1759 
z
M 3341 1997 
L 3341 0 
L 2766 0 
L 2766 531 
Q 2569 213 2275 61 
Q 1981 -91 1556 -91 
Q 1019 -91 701 211 
Q 384 513 384 1019 
Q 384 1609 779 1909 
Q 1175 2209 1959 2209 
L 2766 2209 
L 2766 2266 
Q 2766 2663 2505 2880 
Q 2244 3097 1772 3097 
Q 1472 3097 1187 3025 
Q 903 2953 641 2809 
L 641 3341 
Q 956 3463 1253 3523 
Q 1550 3584 1831 3584 
Q 2591 3584 2966 3190 
Q 3341 2797 3341 1997 
z
" transform="scale(0.015625)"/>
      <path id="DejaVuSans-6c" d="M 603 4863 
L 1178 4863 
L 1178 0 
L 603 0 
L 603 4863 
z
" transform="scale(0.015625)"/>
      <path id="DejaVuSans-20" transform="scale(0.015625)"/>
      <path id="DejaVuSans-44" d="M 1259 4147 
L 1259 519 
L 2022 519 
Q 2988 519 3436 956 
Q 3884 1394 3884 2338 
Q 3884 3275 3436 3711 
Q 2988 4147 2022 4147 
L 1259 4147 
z
M 628 4666 
L 1925 4666 
Q 3281 4666 3915 4102 
Q 4550 3538 4550 2338 
Q 4550 1131 3912 565 
Q 3275 0 1925 0 
L 628 0 
L 628 4666 
z
" transform="scale(0.015625)"/>
      <path id="DejaVuSans-74" d="M 1172 4494 
L 1172 3500 
L 2356 3500 
L 2356 3053 
L 1172 3053 
L 1172 1153 
Q 1172 725 1289 603 
Q 1406 481 1766 481 
L 2356 481 
L 2356 0 
L 1766 0 
Q 1100 0 847 248 
Q 594 497 594 1153 
L 594 3053 
L 172 3053 
L 172 3500 
L 594 3500 
L 594 4494 
L 1172 4494 
z
" transform="scale(0.015625)"/>
      <path id="DejaVuSans-73" d="M 2834 3397 
L 2834 2853 
Q 2591 2978 2328 3040 
Q 2066 3103 1784 3103 
Q 1356 3103 1142 2972 
Q 928 2841 928 2578 
Q 928 2378 1081 2264 
Q 1234 2150 1697 2047 
L 1894 2003 
Q 2506 1872 2764 1633 
Q 3022 1394 3022 966 
Q 3022 478 2636 193 
Q 2250 -91 1575 -91 
Q 1294 -91 989 -36 
Q 684 19 347 128 
L 347 722 
Q 666 556 975 473 
Q 1284 391 1588 391 
Q 1994 391 2212 530 
Q 2431 669 2431 922 
Q 2431 1156 2273 1281 
Q 2116 1406 1581 1522 
L 1381 1569 
Q 847 1681 609 1914 
Q 372 2147 372 2553 
Q 372 3047 722 3315 
Q 1072 3584 1716 3584 
Q 2034 3584 2315 3537 
Q 2597 3491 2834 3397 
z
" transform="scale(0.015625)"/>
      <path id="DejaVuSans-46" d="M 628 4666 
L 3309 4666 
L 3309 4134 
L 1259 4134 
L 1259 2759 
L 3109 2759 
L 3109 2228 
L 1259 2228 
L 1259 0 
L 628 0 
L 628 4666 
z
" transform="scale(0.015625)"/>
      <path id="DejaVuSans-75" d="M 544 1381 
L 544 3500 
L 1119 3500 
L 1119 1403 
Q 1119 906 1312 657 
Q 1506 409 1894 409 
Q 2359 409 2629 706 
Q 2900 1003 2900 1516 
L 2900 3500 
L 3475 3500 
L 3475 0 
L 2900 0 
L 2900 538 
Q 2691 219 2414 64 
Q 2138 -91 1772 -91 
Q 1169 -91 856 284 
Q 544 659 544 1381 
z
M 1991 3584 
L 1991 3584 
z
" transform="scale(0.015625)"/>
     </defs>
     <use xlink:href="#DejaVuSans-4f"/>
     <use xlink:href="#DejaVuSans-72" x="78.710938"/>
     <use xlink:href="#DejaVuSans-69" x="119.824219"/>
     <use xlink:href="#DejaVuSans-67" x="147.607422"/>
     <use xlink:href="#DejaVuSans-69" x="211.083984"/>
     <use xlink:href="#DejaVuSans-6e" x="238.867188"/>
     <use xlink:href="#DejaVuSans-61" x="302.246094"/>
     <use xlink:href="#DejaVuSans-6c" x="363.525391"/>
     <use xlink:href="#DejaVuSans-20" x="391.308594"/>
     <use xlink:href="#DejaVuSans-44" x="423.095703"/>
     <use xlink:href="#DejaVuSans-61" x="500.097656"/>
     <use xlink:href="#DejaVuSans-74" x="561.376953"/>
     <use xlink:href="#DejaVuSans-61" x="600.585938"/>
     <use xlink:href="#DejaVuSans-73" x="661.865234"/>
     <use xlink:href="#DejaVuSans-65" x="713.964844"/>
     <use xlink:href="#DejaVuSans-74" x="775.488281"/>
     <use xlink:href="#DejaVuSans-20" x="814.697266"/>
     <use xlink:href="#DejaVuSans-46" x="846.484375"/>
     <use xlink:href="#DejaVuSans-69" x="896.753906"/>
     <use xlink:href="#DejaVuSans-67" x="924.537109"/>
     <use xlink:href="#DejaVuSans-75" x="988.013672"/>
     <use xlink:href="#DejaVuSans-72" x="1051.392578"/>
     <use xlink:href="#DejaVuSans-65" x="1090.255859"/>
    </g>
   </g>
   <g id="legend_1">
    <g id="patch_7">
     <path d="M 481.090625 44.99625 
L 577.925 44.99625 
Q 579.925 44.99625 579.925 42.99625 
L 579.925 29.318125 
Q 579.925 27.318125 577.925 27.318125 
L 481.090625 27.318125 
Q 479.090625 27.318125 479.090625 29.318125 
L 479.090625 42.99625 
Q 479.090625 44.99625 481.090625 44.99625 
z
" style="fill: #ffffff; opacity: 0.8; stroke: #cccccc; stroke-linejoin: miter"/>
    </g>
    <g id="line2d_15">
     <path d="M 483.090625 35.416562 
L 493.090625 35.416562 
L 503.090625 35.416562 
" style="fill: none; stroke: #0c0c0c; stroke-width: 1.5; stroke-linecap: square"/>
    </g>
    <g id="text_16">
     <!-- Original data -->
     <g transform="translate(511.090625 38.916562) scale(0.1 -0.1)">
      <defs>
       <path id="DejaVuSans-64" d="M 2906 2969 
L 2906 4863 
L 3481 4863 
L 3481 0 
L 2906 0 
L 2906 525 
Q 2725 213 2448 61 
Q 2172 -91 1784 -91 
Q 1150 -91 751 415 
Q 353 922 353 1747 
Q 353 2572 751 3078 
Q 1150 3584 1784 3584 
Q 2172 3584 2448 3432 
Q 2725 3281 2906 2969 
z
M 947 1747 
Q 947 1113 1208 752 
Q 1469 391 1925 391 
Q 2381 391 2643 752 
Q 2906 1113 2906 1747 
Q 2906 2381 2643 2742 
Q 2381 3103 1925 3103 
Q 1469 3103 1208 2742 
Q 947 2381 947 1747 
z
" transform="scale(0.015625)"/>
      </defs>
      <use xlink:href="#DejaVuSans-4f"/>
      <use xlink:href="#DejaVuSans-72" x="78.710938"/>
      <use xlink:href="#DejaVuSans-69" x="119.824219"/>
      <use xlink:href="#DejaVuSans-67" x="147.607422"/>
      <use xlink:href="#DejaVuSans-69" x="211.083984"/>
      <use xlink:href="#DejaVuSans-6e" x="238.867188"/>
      <use xlink:href="#DejaVuSans-61" x="302.246094"/>
      <use xlink:href="#DejaVuSans-6c" x="363.525391"/>
      <use xlink:href="#DejaVuSans-20" x="391.308594"/>
      <use xlink:href="#DejaVuSans-64" x="423.095703"/>
      <use xlink:href="#DejaVuSans-61" x="486.572266"/>
      <use xlink:href="#DejaVuSans-74" x="547.851562"/>
      <use xlink:href="#DejaVuSans-61" x="587.060547"/>
     </g>
    </g>
   </g>
  </g>
 </g>
 <defs>
  <clipPath id="pee62a125de">
   <rect x="26.925" y="22.318125" width="558" height="195.84"/>
  </clipPath>
 </defs>
</svg>
