<?xml version="1.0" encoding="utf-8" standalone="no"?>
<!DOCTYPE svg PUBLIC "-//W3C//DTD SVG 1.1//EN"
  "http://www.w3.org/Graphics/SVG/1.1/DTD/svg11.dtd">
<svg xmlns:xlink="http://www.w3.org/1999/xlink" width="592.125pt" height="267.142752pt" viewBox="0 0 592.125 267.142752" xmlns="http://www.w3.org/2000/svg" version="1.1">
 <metadata>
  <rdf:RDF xmlns:dc="http://purl.org/dc/elements/1.1/" xmlns:cc="http://creativecommons.org/ns#" xmlns:rdf="http://www.w3.org/1999/02/22-rdf-syntax-ns#">
   <cc:Work>
    <dc:type rdf:resource="http://purl.org/dc/dcmitype/StillImage"/>
    <dc:date>2026-04-26T22:21:15.895641</dc:date>
    <dc:format>image/svg+xml</dc:format>
    <dc:creator>
     <cc:Agent>
      <dc:title>Matplotlib v3.7.5, https://matplotlib.org/</dc:title>
     </cc:Agent>
    </dc:creator>
   </cc:Work>
  </rdf:RDF>
 </metadata>
 <defs>
  <style type="text/css">*{stroke-linejoin: round; stroke-linecap: butt}</style>
 </defs>
 <g id="figure_1">
  <g id="patch_1">
   <path d="M 0 267.142752 
L 592.125 267.142752 
L 592.125 0 
L 0 0 
z
" style="fill: #ffffff"/>
  </g>
  <g id="axes_1">
   <g id="patch_2">
    <path d="M 26.925 218.158125 
L 584.925 218.158125 
L 584.925 22.318125 
L 26.925 22.318125 
z
" style="fill: #ffffff"/>
   </g>
   <g id="matplotlib.axis_1">
    <g id="xtick_1">
     <g id="line2d_1">
      <defs>
       <path id="m6560d310b0" d="M 0 0 
L 0 3.5 
" style="stroke: #000000; stroke-width: 0.8"/>
      </defs>
      <g>
       <use xlink:href="#m6560d310b0" x="53.758337" y="218.158125" style="stroke: #000000; stroke-width: 0.8"/>
      </g>
     </g>
     <g id="text_1">
      <!-- 2014 -->
      <g transform="translate(30.678146 244.463565) rotate(-30) scale(0.1 -0.1)">
       <defs>
        <path id="DejaVuSans-32" d="M 1228 531 
L 3431 531 
L 3431 0 
L 469 0 
L 469 531 
Q 828 903 1448 1529 
Q 2069 2156 2228 2338 
Q 2531 2678 2651 2914 
Q 2772 3150 2772 3378 
Q 2772 3750 2511 3984 
Q 2250 4219 1831 4219 
Q 1534 4219 1204 4116 
Q 875 4013 500 3803 
L 500 4441 
Q 881 4594 1212 4672 
Q 1544 4750 1819 4750 
Q 2544 4750 2975 4387 
Q 3406 4025 3406 3419 
Q 3406 3131 3298 2873 
Q 3191 2616 2906 2266 
Q 2828 2175 2409 1742 
Q 1991 1309 1228 531 
z
" transform="scale(0.015625)"/>
        <path id="DejaVuSans-30" d="M 2034 4250 
Q 1547 4250 1301 3770 
Q 1056 3291 1056 2328 
Q 1056 1369 1301 889 
Q 1547 409 2034 409 
Q 2525 409 2770 889 
Q 3016 1369 3016 2328 
Q 3016 3291 2770 3770 
Q 2525 4250 2034 4250 
z
M 2034 4750 
Q 2819 4750 3233 4129 
Q 3647 3509 3647 2328 
Q 3647 1150 3233 529 
Q 2819 -91 2034 -91 
Q 1250 -91 836 529 
Q 422 1150 422 2328 
Q 422 3509 836 4129 
Q 1250 4750 2034 4750 
z
" transform="scale(0.015625)"/>
        <path id="DejaVuSans-31" d="M 794 531 
L 1825 531 
L 1825 4091 
L 703 3866 
L 703 4441 
L 1819 4666 
L 2450 4666 
L 2450 531 
L 3481 531 
L 3481 0 
L 794 0 
L 794 531 
z
" transform="scale(0.015625)"/>
        <path id="DejaVuSans-34" d="M 2419 4116 
L 825 1625 
L 2419 1625 
L 2419 4116 
z
M 2253 4666 
L 3047 4666 
L 3047 1625 
L 3713 1625 
L 3713 1100 
L 3047 1100 
L 3047 0 
L 2419 0 
L 2419 1100 
L 313 1100 
L 313 1709 
L 2253 4666 
z
" transform="scale(0.015625)"/>
       </defs>
       <use xlink:href="#DejaVuSans-32"/>
       <use xlink:href="#DejaVuSans-30" x="63.623047"/>
       <use xlink:href="#DejaVuSans-31" x="127.246094"/>
       <use xlink:href="#DejaVuSans-34" x="190.869141"/>
      </g>
     </g>
    </g>
    <g id="xtick_2">
     <g id="line2d_2">
      <g>
       <use xlink:href="#m6560d310b0" x="136.287664" y="218.158125" style="stroke: #000000; stroke-width: 0.8"/>
      </g>
     </g>
     <g id="text_2">
      <!-- 2016 -->
      <g transform="translate(113.207474 244.463565) rotate(-30) scale(0.1 -0.1)">
       <defs>
        <path id="DejaVuSans-36" d="M 2113 2584 
Q 1688 2584 1439 2293 
Q 1191 2003 1191 1497 
Q 1191 994 1439 701 
Q 1688 409 2113 409 
Q 2538 409 2786 701 
Q 3034 994 3034 1497 
Q 3034 2003 2786 2293 
Q 2538 2584 2113 2584 
z
M 3366 4563 
L 3366 3988 
Q 3128 4100 2886 4159 
Q 2644 4219 2406 4219 
Q 1781 4219 1451 3797 
Q 1122 3375 1075 2522 
Q 1259 2794 1537 2939 
Q 1816 3084 2150 3084 
Q 2853 3084 3261 2657 
Q 3669 2231 3669 1497 
Q 3669 778 3244 343 
Q 2819 -91 2113 -91 
Q 1303 -91 875 529 
Q 447 1150 447 2328 
Q 447 3434 972 4092 
Q 1497 4750 2381 4750 
Q 2619 4750 2861 4703 
Q 3103 4656 3366 4563 
z
" transform="scale(0.015625)"/>
       </defs>
       <use xlink:href="#DejaVuSans-32"/>
       <use xlink:href="#DejaVuSans-30" x="63.623047"/>
       <use xlink:href="#DejaVuSans-31" x="127.246094"/>
       <use xlink:href="#DejaVuSans-36" x="190.869141"/>
      </g>
     </g>
    </g>
    <g id="xtick_3">
     <g id="line2d_3">
      <g>
       <use xlink:href="#m6560d310b0" x="218.930045" y="218.158125" style="stroke: #000000; stroke-width: 0.8"/>
      </g>
     </g>
     <g id="text_3">
      <!-- 2018 -->
      <g transform="translate(195.849855 244.463565) rotate(-30) scale(0.1 -0.1)">
       <defs>
        <path id="DejaVuSans-38" d="M 2034 2216 
Q 1584 2216 1326 1975 
Q 1069 1734 1069 1313 
Q 1069 891 1326 650 
Q 1584 409 2034 409 
Q 2484 409 2743 651 
Q 3003 894 3003 1313 
Q 3003 1734 2745 1975 
Q 2488 2216 2034 2216 
z
M 1403 2484 
Q 997 2584 770 2862 
Q 544 3141 544 3541 
Q 544 4100 942 4425 
Q 1341 4750 2034 4750 
Q 2731 4750 3128 4425 
Q 3525 4100 3525 3541 
Q 3525 3141 3298 2862 
Q 3072 2584 2669 2484 
Q 3125 2378 3379 2068 
Q 3634 1759 3634 1313 
Q 3634 634 3220 271 
Q 2806 -91 2034 -91 
Q 1263 -91 848 271 
Q 434 634 434 1313 
Q 434 1759 690 2068 
Q 947 2378 1403 2484 
z
M 1172 3481 
Q 1172 3119 1398 2916 
Q 1625 2713 2034 2713 
Q 2441 2713 2670 2916 
Q 2900 3119 2900 3481 
Q 2900 3844 2670 4047 
Q 2441 4250 2034 4250 
Q 1625 4250 1398 4047 
Q 1172 3844 1172 3481 
z
" transform="scale(0.015625)"/>
       </defs>
       <use xlink:href="#DejaVuSans-32"/>
       <use xlink:href="#DejaVuSans-30" x="63.623047"/>
       <use xlink:href="#DejaVuSans-31" x="127.246094"/>
       <use xlink:href="#DejaVuSans-38" x="190.869141"/>
      </g>
     </g>
    </g>
    <g id="xtick_4">
     <g id="line2d_4">
      <g>
       <use xlink:href="#m6560d310b0" x="301.459372" y="218.158125" style="stroke: #000000; stroke-width: 0.8"/>
      </g>
     </g>
     <g id="text_4">
      <!-- 2020 -->
      <g transform="translate(278.379182 244.463565) rotate(-30) scale(0.1 -0.1)">
       <use xlink:href="#DejaVuSans-32"/>
       <use xlink:href="#DejaVuSans-30" x="63.623047"/>
       <use xlink:href="#DejaVuSans-32" x="127.246094"/>
       <use xlink:href="#DejaVuSans-30" x="190.869141"/>
      </g>
     </g>
    </g>
    <g id="xtick_5">
     <g id="line2d_5">
      <g>
       <use xlink:href="#m6560d310b0" x="384.101753" y="218.158125" style="stroke: #000000; stroke-width: 0.8"/>
      </g>
     </g>
     <g id="text_5">
      <!-- 2022 -->
      <g transform="translate(361.021563 244.463565) rotate(-30) scale(0.1 -0.1)">
       <use xlink:href="#DejaVuSans-32"/>
       <use xlink:href="#DejaVuSans-30" x="63.623047"/>
       <use xlink:href="#DejaVuSans-32" x="127.246094"/>
       <use xlink:href="#DejaVuSans-32" x="190.869141"/>
      </g>
     </g>
    </g>
    <g id="xtick_6">
     <g id="line2d_6">
      <g>
       <use xlink:href="#m6560d310b0" x="466.63108" y="218.158125" style="stroke: #000000; stroke-width: 0.8"/>
      </g>
     </g>
     <g id="text_6">
      <!-- 2024 -->
      <g transform="translate(443.55089 244.463565) rotate(-30) scale(0.1 -0.1)">
       <use xlink:href="#DejaVuSans-32"/>
       <use xlink:href="#DejaVuSans-30" x="63.623047"/>
       <use xlink:href="#DejaVuSans-32" x="127.246094"/>
       <use xlink:href="#DejaVuSans-34" x="190.869141"/>
      </g>
     </g>
    </g>
    <g id="xtick_7">
     <g id="line2d_7">
      <g>
       <use xlink:href="#m6560d310b0" x="549.273461" y="218.158125" style="stroke: #000000; stroke-width: 0.8"/>
      </g>
     </g>
     <g id="text_7">
      <!-- 2026 -->
      <g transform="translate(526.193271 244.463565) rotate(-30) scale(0.1 -0.1)">
       <use xlink:href="#DejaVuSans-32"/>
       <use xlink:href="#DejaVuSans-30" x="63.623047"/>
       <use xlink:href="#DejaVuSans-32" x="127.246094"/>
       <use xlink:href="#DejaVuSans-36" x="190.869141"/>
      </g>
     </g>
    </g>
    <g id="text_8">
     <!-- Time -->
     <g transform="translate(293.691406 257.863065) scale(0.1 -0.1)">
      <defs>
       <path id="DejaVuSans-54" d="M -19 4666 
L 3928 4666 
L 3928 4134 
L 2272 4134 
L 2272 0 
L 1638 0 
L 1638 4134 
L -19 4134 
L -19 4666 
z
" transform="scale(0.015625)"/>
       <path id="DejaVuSans-69" d="M 603 3500 
L 1178 3500 
L 1178 0 
L 603 0 
L 603 3500 
z
M 603 4863 
L 1178 4863 
L 1178 4134 
L 603 4134 
L 603 4863 
z
" transform="scale(0.015625)"/>
       <path id="DejaVuSans-6d" d="M 3328 2828 
Q 3544 3216 3844 3400 
Q 4144 3584 4550 3584 
Q 5097 3584 5394 3201 
Q 5691 2819 5691 2113 
L 5691 0 
L 5113 0 
L 5113 2094 
Q 5113 2597 4934 2840 
Q 4756 3084 4391 3084 
Q 3944 3084 3684 2787 
Q 3425 2491 3425 1978 
L 3425 0 
L 2847 0 
L 2847 2094 
Q 2847 2600 2669 2842 
Q 2491 3084 2119 3084 
Q 1678 3084 1418 2786 
Q 1159 2488 1159 1978 
L 1159 0 
L 581 0 
L 581 3500 
L 1159 3500 
L 1159 2956 
Q 1356 3278 1631 3431 
Q 1906 3584 2284 3584 
Q 2666 3584 2933 3390 
Q 3200 3197 3328 2828 
z
" transform="scale(0.015625)"/>
       <path id="DejaVuSans-65" d="M 3597 1894 
L 3597 1613 
L 953 1613 
Q 991 1019 1311 708 
Q 1631 397 2203 397 
Q 2534 397 2845 478 
Q 3156 559 3463 722 
L 3463 178 
Q 3153 47 2828 -22 
Q 2503 -91 2169 -91 
Q 1331 -91 842 396 
Q 353 884 353 1716 
Q 353 2575 817 3079 
Q 1281 3584 2069 3584 
Q 2775 3584 3186 3129 
Q 3597 2675 3597 1894 
z
M 3022 2063 
Q 3016 2534 2758 2815 
Q 2500 3097 2075 3097 
Q 1594 3097 1305 2825 
Q 1016 2553 972 2059 
L 3022 2063 
z
" transform="scale(0.015625)"/>
      </defs>
      <use xlink:href="#DejaVuSans-54"/>
      <use xlink:href="#DejaVuSans-69" x="57.958984"/>
      <use xlink:href="#DejaVuSans-6d" x="85.742188"/>
      <use xlink:href="#DejaVuSans-65" x="183.154297"/>
     </g>
    </g>
   </g>
   <g id="matplotlib.axis_2">
    <g id="ytick_1">
     <g id="line2d_8">
      <defs>
       <path id="maa640368b5" d="M 0 0 
L -3.5 0 
" style="stroke: #000000; stroke-width: 0.8"/>
      </defs>
      <g>
       <use xlink:href="#maa640368b5" x="26.925" y="184.94891" style="stroke: #000000; stroke-width: 0.8"/>
      </g>
     </g>
     <g id="text_9">
      <!-- 20 -->
      <g transform="translate(7.2 188.748129) scale(0.1 -0.1)">
       <use xlink:href="#DejaVuSans-32"/>
       <use xlink:href="#DejaVuSans-30" x="63.623047"/>
      </g>
     </g>
    </g>
    <g id="ytick_2">
     <g id="line2d_9">
      <g>
       <use xlink:href="#maa640368b5" x="26.925" y="144.096142" style="stroke: #000000; stroke-width: 0.8"/>
      </g>
     </g>
     <g id="text_10">
      <!-- 40 -->
      <g transform="translate(7.2 147.89536) scale(0.1 -0.1)">
       <use xlink:href="#DejaVuSans-34"/>
       <use xlink:href="#DejaVuSans-30" x="63.623047"/>
      </g>
     </g>
    </g>
    <g id="ytick_3">
     <g id="line2d_10">
      <g>
       <use xlink:href="#maa640368b5" x="26.925" y="103.243373" style="stroke: #000000; stroke-width: 0.8"/>
      </g>
     </g>
     <g id="text_11">
      <!-- 60 -->
      <g transform="translate(7.2 107.042592) scale(0.1 -0.1)">
       <use xlink:href="#DejaVuSans-36"/>
       <use xlink:href="#DejaVuSans-30" x="63.623047"/>
      </g>
     </g>
    </g>
    <g id="ytick_4">
     <g id="line2d_11">
      <g>
       <use xlink:href="#maa640368b5" x="26.925" y="62.390605" style="stroke: #000000; stroke-width: 0.8"/>
      </g>
     </g>
     <g id="text_12">
      <!-- 80 -->
      <g transform="translate(7.2 66.189824) scale(0.1 -0.1)">
       <use xlink:href="#DejaVuSans-38"/>
       <use xlink:href="#DejaVuSans-30" x="63.623047"/>
      </g>
     </g>
    </g>
   </g>
   <g id="line2d_12">
    <path d="M 52.288636 102.896125 
L 52.40169 103.243373 
L 61.559054 103.243373 
L 61.898216 97.115458 
L 62.237377 93.030181 
L 62.350431 93.030181 
L 62.463485 90.987543 
L 62.576539 93.030181 
L 62.689593 97.115458 
L 63.028754 93.030181 
L 63.141808 103.243373 
L 63.254862 93.030181 
L 63.367916 103.243373 
L 63.48097 100.179416 
L 63.820131 103.243373 
L 63.933185 99.158097 
L 64.724562 101.609263 
L 65.063724 103.243373 
L 65.402886 99.566624 
L 65.515939 96.502667 
L 65.628993 103.243373 
L 65.855101 95.481347 
L 66.194263 99.158097 
L 66.307317 91.396071 
L 66.42037 101.200735 
L 66.646478 79.548768 
L 67.211748 81.019468 
L 67.663963 86.493739 
L 68.116179 98.953833 
L 68.229232 92.785065 
L 68.794502 87.310794 
L 69.02061 80.365823 
L 69.359771 73.420853 
L 69.472825 68.518521 
L 69.811987 82.776137 
L 70.377256 97.074605 
L 70.49031 92.662506 
L 70.603364 100.83306 
L 71.055579 96.094139 
L 71.281687 90.313472 
L 71.394741 103.243373 
L 71.846956 96.094139 
L 71.96001 92.703359 
L 72.186118 89.31258 
L 72.52528 96.461814 
L 72.751387 102.793993 
L 72.977495 96.073713 
L 73.316657 92.315258 
L 73.655818 80.774351 
L 73.768872 86.902266 
L 74.108034 98.320615 
L 74.221088 107.32865 
L 74.447195 100.016005 
L 74.560249 87.55591 
L 75.125519 113.456565 
L 75.46468 131.799458 
L 75.577734 122.648438 
L 75.803842 133.903376 
L 75.916896 135.210665 
L 76.143004 135.639619 
L 76.708273 126.631583 
L 76.934381 105.796671 
L 77.273542 93.785958 
L 77.386596 106.981402 
L 77.725758 95.093246 
L 78.064919 107.655472 
L 78.177973 103.243373 
L 78.404081 125.732822 
L 78.517135 119.339364 
L 78.856296 121.933515 
L 78.96935 121.708825 
L 79.082404 120.299404 
L 79.195458 122.056073 
L 79.308512 119.441496 
L 79.647674 119.564054 
L 80.099889 136.640511 
L 81.343482 137.968226 
L 82.360967 146.751572 
L 85.413421 154.656582 
L 85.526475 161.764964 
L 85.97869 167.545631 
L 86.091744 171.67176 
L 86.204798 171.365364 
L 86.317852 174.32719 
L 86.430906 170.854705 
L 86.883121 172.488815 
L 87.109229 177.186884 
L 87.561445 172.693079 
L 89.483361 172.693079 
L 89.935576 177.595411 
L 90.04863 176.451534 
L 90.274738 176.98262 
L 90.726953 179.63805 
L 90.840007 179.229522 
L 91.179169 182.906271 
L 91.51833 181.78282 
L 91.631384 183.825459 
L 91.970546 172.652227 
L 92.422761 169.01633 
L 92.648869 161.254304 
L 93.214138 168.199275 
L 93.440246 159.211666 
L 94.344677 165.829814 
L 94.683839 160.008295 
L 95.701324 159.272945 
L 95.927431 171.794318 
L 96.266593 177.186884 
L 96.379647 181.966658 
L 96.718808 183.723327 
L 97.284078 183.600768 
L 98.640724 183.539489 
L 98.866832 183.314799 
L 101.354017 183.314799 
L 101.467071 183.151388 
L 101.919287 183.151388 
L 102.258448 182.947124 
L 102.59761 182.906271 
L 102.710664 183.130962 
L 103.049825 182.947124 
L 103.502041 183.7029 
L 103.615095 184.540382 
L 104.519526 165.380434 
L 104.632579 159.334224 
L 105.084795 168.28098 
L 105.197849 162.52074 
L 105.310903 168.219701 
L 105.423957 162.459461 
L 105.876172 156.127282 
L 106.215334 175.001261 
L 106.554495 180.08743 
L 106.780603 186.86899 
L 106.893657 182.967551 
L 107.345872 188.646085 
L 107.798088 177.146031 
L 108.13725 177.49328 
L 108.250303 172.652227 
L 108.363357 177.881381 
L 108.476411 173.081181 
L 108.928627 167.811174 
L 109.154734 158.435463 
L 109.720004 165.17617 
L 109.833058 171.058969 
L 110.172219 176.369828 
L 110.624435 179.63805 
L 110.737489 177.758823 
L 110.963596 186.86899 
L 111.302758 182.967551 
L 111.64192 191.076825 
L 111.754973 191.975586 
L 112.094135 188.584806 
L 112.207189 192.098144 
L 112.433297 189.034187 
L 112.885512 185.357437 
L 113.11162 189.626552 
L 113.224674 191.097251 
L 113.337728 189.29973 
L 113.676889 190.627445 
L 113.789943 189.606125 
L 113.902997 190.116785 
L 114.016051 188.686938 
L 114.129105 192.40454 
L 114.58132 195.734041 
L 114.694374 195.345939 
L 114.807428 194.161209 
L 114.920482 197.20474 
L 115.372697 193.119463 
L 115.598805 194.263341 
L 115.711859 194.140783 
L 116.051021 194.671869 
L 116.164074 193.119463 
L 116.277128 195.162102 
L 116.390182 193.13989 
L 116.503236 194.774001 
L 116.842398 194.09993 
L 116.955452 193.099037 
L 117.068505 193.099037 
L 117.746829 194.079503 
L 117.859883 193.446286 
L 117.972936 194.018224 
L 118.08599 192.261555 
L 118.538206 192.200276 
L 118.65126 195.550203 
L 119.216529 192.506672 
L 119.442637 192.098144 
L 119.555691 192.138997 
L 120.234014 192.751788 
L 120.347068 192.098144 
L 120.799283 192.098144 
L 121.025391 194.120356 
L 121.251499 190.096359 
L 121.59066 188.482674 
L 121.816768 192.956052 
L 122.382038 186.174493 
L 122.608145 192.710936 
L 123.173415 194.079503 
L 123.399522 191.199383 
L 123.512576 191.21981 
L 123.62563 187.951588 
L 123.964792 188.503101 
L 124.077846 185.704686 
L 124.417007 192.710936 
L 124.756169 194.140783 
L 124.982277 192.098144 
L 127.243354 193.160316 
L 127.582516 194.610589 
L 127.921677 195.162102 
L 128.373893 195.162102 
L 128.713054 194.140783 
L 128.939162 195.182528 
L 129.504431 195.202955 
L 129.617485 193.630123 
L 129.730539 195.243807 
L 129.843593 192.17985 
L 129.956647 194.263341 
L 130.408862 195.162102 
L 130.521916 194.569737 
L 130.63497 195.345939 
L 131.539401 195.79532 
L 131.991617 195.182528 
L 132.104671 194.54931 
L 132.217724 195.162102 
L 132.66994 195.162102 
L 132.782994 194.54931 
L 132.896048 195.162102 
L 133.913533 194.753574 
L 134.591856 197.20474 
L 134.70491 194.957838 
L 135.044071 194.957838 
L 135.383233 193.609697 
L 135.496287 192.710936 
L 135.835448 191.281089 
L 135.948502 190.25977 
L 136.061556 187.297944 
L 136.17461 188.768644 
L 136.965987 188.114999 
L 138.661795 191.485353 
L 139.000957 191.485353 
L 139.453172 195.141675 
L 141.375088 192.098144 
L 142.392573 192.343261 
L 142.505627 195.672761 
L 142.618681 195.672761 
L 142.957842 193.201169 
L 143.18395 196.46939 
L 143.975327 198.634587 
L 144.201435 196.326406 
L 144.540597 194.753574 
L 144.65365 194.998691 
L 144.766704 193.160316 
L 145.445028 193.099037 
L 145.671135 192.710936 
L 146.236405 192.302408 
L 146.349459 193.507565 
L 146.462512 196.734933 
L 146.575566 196.571522 
L 147.140836 199.267805 
L 147.366943 196.734933 
L 147.706105 198.266912 
L 147.819159 200.758931 
L 148.158321 192.710936 
L 148.72359 199.043115 
L 148.949698 202.168352 
L 149.288859 200.718078 
L 149.401913 201.10618 
L 149.628021 203.332655 
L 149.741075 201.514707 
L 150.19329 199.329084 
L 150.419398 194.140783 
L 150.984667 192.710936 
L 151.210775 196.551096 
L 151.323829 193.936519 
L 151.662991 193.099037 
L 151.889098 195.162102 
L 152.002152 193.834387 
L 152.454368 193.834387 
L 152.567422 196.183421 
L 152.680475 194.140783 
L 152.906583 192.710936 
L 153.245745 192.710936 
L 153.358799 196.02001 
L 153.471853 196.02001 
L 153.69796 195.856599 
L 154.037122 198.859277 
L 154.26323 203.863741 
L 154.715445 202.229631 
L 155.054607 199.247379 
L 155.280714 199.86017 
L 155.393768 200.534241 
L 155.506822 199.901023 
L 155.73293 202.372615 
L 155.959038 204.639944 
L 156.072092 206.764288 
L 156.411253 206.539598 
L 156.524307 208.234988 
L 156.637361 207.213668 
L 156.863469 209.256307 
L 157.20263 208.868206 
L 157.428738 208.868206 
L 157.654846 205.804248 
L 157.994007 203.802462 
L 158.107061 205.17103 
L 158.220115 204.353975 
L 158.333169 205.375294 
L 158.785385 204.353975 
L 159.011492 202.311336 
L 159.124546 202.311336 
L 159.689816 205.497852 
L 159.915923 209.072469 
L 160.368139 207.82646 
L 160.594247 206.028938 
L 160.7073 204.047579 
L 160.820354 204.047579 
L 161.159516 202.5156 
L 161.385624 202.5156 
L 161.498677 203.741183 
L 161.611731 202.638158 
L 161.950893 201.535134 
L 162.290055 203.47564 
L 162.403108 201.514707 
L 162.855324 199.043115 
L 162.968378 196.591949 
L 163.194486 194.753574 
L 163.646701 197.102608 
L 163.872809 194.140783 
L 163.985863 193.977372 
L 164.325024 196.122142 
L 164.438078 194.161209 
L 164.664186 194.161209 
L 165.229455 197.327299 
L 165.342509 196.75536 
L 165.907779 195.080396 
L 166.359994 202.679011 
L 166.699156 201.208311 
L 166.81221 202.474747 
L 166.925263 202.413468 
L 167.151371 204.742076 
L 168.28191 205.783822 
L 168.394964 203.9863 
L 168.508018 204.742076 
L 168.621071 202.719864 
L 168.734125 205.028045 
L 169.186341 202.719864 
L 169.299395 200.942768 
L 169.412449 201.902809 
L 169.525502 204.292695 
L 169.864664 204.43568 
L 170.090772 203.618625 
L 170.203826 203.945447 
L 170.31688 201.902809 
L 170.769095 205.783822 
L 171.108257 201.167459 
L 171.447418 198.838851 
L 171.78658 202.924128 
L 171.899634 202.658585 
L 172.238795 203.557346 
L 172.351849 201.494281 
L 172.577957 204.374401 
L 172.691011 204.149711 
L 173.030173 205.109751 
L 173.143226 204.844208 
L 173.482388 202.903701 
L 173.82155 202.658585 
L 174.273765 195.162102 
L 174.612927 197.20474 
L 174.725981 200.064434 
L 174.839034 200.08486 
L 175.065142 202.821996 
L 175.404304 200.677226 
L 175.630412 203.577772 
L 175.856519 201.657692 
L 176.308735 201.167459 
L 176.421789 200.391256 
L 176.534843 200.656799 
L 176.647896 200.289124 
L 176.987058 197.735826 
L 177.100112 195.958731 
L 177.213166 198.552882 
L 177.439274 196.653228 
L 177.891489 194.610589 
L 178.230651 190.913414 
L 178.79592 188.503101 
L 178.908974 189.74911 
L 179.022028 188.441821 
L 179.361189 188.829923 
L 179.474243 192.057291 
L 179.587297 188.870776 
L 179.700351 189.422288 
L 179.813405 188.298837 
L 180.26562 189.769536 
L 180.491728 189.503993 
L 181.396159 189.034187 
L 181.848375 194.54931 
L 182.074482 199.512922 
L 182.187536 198.552882 
L 182.526698 197.94009 
L 182.639752 197.163887 
L 182.752806 194.651442 
L 182.865859 194.753574 
L 182.978913 195.243807 
L 183.431129 195.448071 
L 183.544183 196.653228 
L 183.657237 195.550203 
L 183.77029 195.774893 
L 184.109452 195.774893 
L 184.222506 195.917878 
L 184.448614 194.54931 
L 184.561668 195.019117 
L 184.900829 195.121249 
L 185.013883 194.978264 
L 185.126937 195.182528 
L 185.239991 195.019117 
L 185.353045 195.877025 
L 185.80526 195.50935 
L 185.918314 197.980943 
L 186.144422 194.120356 
L 186.483583 194.631016 
L 186.596637 194.059077 
L 186.709691 194.528884 
L 186.822745 193.752681 
L 186.935799 194.038651 
L 187.27496 193.87524 
L 187.388014 193.691402 
L 187.501068 194.059077 
L 187.614122 193.773108 
L 187.727176 194.406326 
L 188.405499 194.508458 
L 188.518553 194.202062 
L 188.857715 194.447178 
L 189.083822 195.141675 
L 189.196876 194.059077 
L 189.30993 194.794427 
L 189.649092 195.162102 
L 189.762146 193.201169 
L 189.988253 196.326406 
L 190.101307 196.959624 
L 190.440469 195.325513 
L 190.666577 197.225167 
L 190.779631 197.184314 
L 190.892684 196.060863 
L 191.3449 195.631909 
L 191.457954 194.426752 
L 191.684062 197.000476 
L 192.023223 196.571522 
L 192.249331 195.774893 
L 192.362385 195.611482 
L 192.475439 196.346832 
L 192.8146 194.202062 
L 192.927654 196.673654 
L 193.040708 196.408111 
L 193.266816 192.649657 
L 193.605977 190.280196 
L 193.719031 187.195812 
L 194.058193 196.142568 
L 194.623462 197.245593 
L 194.736516 197.899237 
L 194.84957 197.327299 
L 195.188732 197.061756 
L 195.414839 198.226059 
L 195.527893 196.653228 
L 195.640947 198.45075 
L 195.980109 198.226059 
L 196.093163 197.878811 
L 196.31927 198.287339 
L 196.545378 201.657692 
L 196.771486 200.003155 
L 196.88454 199.063541 
L 197.110647 199.737612 
L 197.223701 197.20474 
L 197.675917 195.407218 
L 197.788971 193.752681 
L 198.015078 199.553774 
L 198.35424 199.267805 
L 198.580348 203.107965 
L 198.693402 200.840637 
L 198.806456 201.290017 
L 199.145617 200.513814 
L 199.371725 201.208311 
L 199.484779 201.984514 
L 199.936994 201.208311 
L 200.163102 200.08486 
L 200.276156 201.024474 
L 200.38921 203.169244 
L 200.728371 203.210097 
L 200.954479 199.819317 
L 201.067533 200.248271 
L 201.180587 202.025367 
L 201.519748 201.473854 
L 201.632802 199.288231 
L 201.85891 203.230524 
L 201.971964 200.963195 
L 202.311126 200.248271 
L 202.424179 201.310443 
L 202.537233 201.10618 
L 202.650287 200.064434 
L 202.763341 201.0449 
L 203.102503 200.840637 
L 203.215557 200.554667 
L 203.32861 200.718078 
L 203.89388 200.718078 
L 204.006934 200.268698 
L 204.233041 199.247379 
L 204.346095 199.247379 
L 204.685257 198.879704 
L 205.137472 199.655906 
L 205.476634 199.86017 
L 205.589688 199.247379 
L 205.702742 199.472069 
L 205.815796 198.226059 
L 205.92885 199.533348 
L 206.381065 198.226059 
L 206.494119 198.246486 
L 206.720227 197.919664 
L 207.172442 197.817532 
L 207.285496 199.022688 
L 207.511604 194.202062 
L 207.963819 197.511136 
L 208.076873 197.654121 
L 208.189927 198.491602 
L 208.302981 198.226059 
L 209.43352 198.226059 
L 209.659627 197.409004 
L 209.885735 197.000476 
L 210.224897 197.20474 
L 210.451004 195.080396 
L 210.564058 195.325513 
L 210.677112 197.817532 
L 211.016274 198.226059 
L 211.129328 196.591949 
L 211.242382 199.043115 
L 211.355435 196.387685 
L 211.468489 198.266912 
L 211.807651 198.573308 
L 211.920705 198.348618 
L 212.033759 198.430323 
L 212.146813 198.021796 
L 212.93819 198.246486 
L 213.051243 198.369044 
L 213.390405 198.328191 
L 213.616513 197.143461 
L 213.842621 198.226059 
L 214.40789 198.736719 
L 214.520944 198.021796 
L 214.633998 196.203847 
L 214.973159 198.593734 
L 215.086213 196.734933 
L 215.764536 198.226059 
L 215.87759 196.796213 
L 215.990644 199.043115 
L 216.103698 198.940983 
L 216.216752 197.756253 
L 216.555914 198.532455 
L 216.668967 195.79532 
L 216.782021 198.573308 
L 216.895075 197.286446 
L 217.008129 197.817532 
L 217.686452 199.206526 
L 217.799506 198.838851 
L 218.251722 196.857492 
L 218.364776 199.655906 
L 218.590883 199.431216 
L 219.156153 199.390363 
L 219.834476 197.20474 
L 219.94753 200.023581 
L 220.060584 199.267805 
L 220.173637 197.409004 
L 220.738907 199.655906 
L 221.643338 199.86017 
L 221.756392 199.451642 
L 222.095553 199.247379 
L 222.208607 199.86017 
L 222.434715 199.86017 
L 222.88693 197.878811 
L 222.999984 196.612375 
L 223.113038 199.512922 
L 223.226092 198.838851 
L 223.339146 199.63548 
L 223.678308 199.63548 
L 225.261062 199.247379 
L 225.374116 199.553774 
L 225.487169 198.45075 
L 225.600223 200.227845 
L 225.713277 199.186099 
L 226.052439 199.002262 
L 226.165493 199.186099 
L 226.504654 199.043115 
L 226.843816 196.367258 
L 226.95687 199.022688 
L 227.069924 198.348618 
L 227.182978 198.430323 
L 227.296031 197.225167 
L 227.974355 198.818425 
L 228.087409 199.533348 
L 228.42657 198.67544 
L 228.765732 192.9152 
L 228.878786 196.203847 
L 229.217947 198.838851 
L 229.331001 198.16478 
L 230.009324 196.571522 
L 230.122378 198.838851 
L 230.348486 197.613268 
L 230.46154 197.000476 
L 230.913755 197.7154 
L 231.026809 195.141675 
L 231.139863 198.062648 
L 231.252917 197.20474 
L 231.93124 198.287339 
L 232.044294 197.449857 
L 232.609563 196.98005 
L 232.722617 196.224274 
L 232.835671 194.09993 
L 233.174833 196.510243 
L 233.287887 196.183421 
L 233.400941 196.510243 
L 233.627048 195.468498 
L 233.96621 195.979157 
L 234.079264 195.652335 
L 234.305372 193.630123 
L 234.418425 195.734041 
L 234.870641 195.223381 
L 234.983695 195.223381 
L 235.096749 194.774001 
L 235.209803 195.345939 
L 235.548964 195.162102 
L 235.775072 194.651442 
L 235.888126 194.712721 
L 236.00118 194.283767 
L 236.340341 194.120356 
L 236.453395 194.774001 
L 236.566449 194.508458 
L 236.679503 192.40454 
L 236.792557 194.120356 
L 237.131718 195.202955 
L 237.244772 194.896559 
L 237.357826 195.631909 
L 237.47088 195.121249 
L 237.810042 195.917878 
L 237.923096 195.407218 
L 238.149203 196.265127 
L 238.262257 195.958731 
L 238.714473 196.489817 
L 238.827526 196.448964 
L 239.053634 197.20474 
L 239.50585 196.183421 
L 239.618904 196.959624 
L 239.845011 196.305979 
L 239.958065 199.247379 
L 240.410281 201.10618 
L 240.523335 198.634587 
L 240.749442 196.796213 
L 241.088604 195.305086 
L 241.314712 197.470283 
L 241.427766 197.613268 
L 241.540819 198.716293 
L 241.879981 197.797105 
L 242.106089 199.247379 
L 242.332197 199.247379 
L 242.671358 197.858385 
L 243.01052 198.205633 
L 243.123574 199.206526 
L 243.462735 198.45075 
L 243.575789 196.203847 
L 243.801897 197.756253 
L 243.914951 195.305086 
L 244.254112 195.979157 
L 244.367166 197.449857 
L 244.48022 196.918771 
L 244.593274 197.184314 
L 244.706328 195.529777 
L 245.045489 197.449857 
L 245.271597 197.449857 
L 245.384651 195.570629 
L 245.497705 195.570629 
L 245.836867 195.693188 
L 245.94992 197.613268 
L 246.176028 196.408111 
L 246.289082 199.247379 
L 246.628244 201.290017 
L 246.854351 198.838851 
L 246.967405 196.224274 
L 247.080459 198.328191 
L 247.419621 195.79532 
L 247.532675 193.119463 
L 247.871836 193.732255 
L 248.210998 195.366366 
L 248.324052 197.061756 
L 248.437106 197.061756 
L 248.55016 195.979157 
L 249.115429 197.20474 
L 249.228483 196.448964 
L 249.341537 197.449857 
L 249.454591 195.999584 
L 250.585129 197.286446 
L 250.811237 194.467605 
L 250.924291 194.018224 
L 251.037345 194.876132 
L 251.376506 194.876132 
L 251.48956 196.162995 
L 251.715668 192.956052 
L 251.828722 194.651442 
L 252.393991 190.70915 
L 252.507045 190.668297 
L 252.620099 188.441821 
L 252.959261 188.850349 
L 253.185368 190.750003 
L 253.298422 191.689617 
L 253.411476 191.097251 
L 253.863692 191.076825 
L 253.976745 191.342368 
L 254.089799 194.671869 
L 254.202853 191.567058 
L 254.655069 193.160316 
L 254.881176 192.649657 
L 254.99423 190.627445 
L 255.672554 189.401861 
L 255.785607 190.607018 
L 256.124769 190.811282 
L 256.237823 191.66919 
L 256.350877 190.055506 
L 256.463931 190.402754 
L 256.576985 191.526205 
L 256.916146 191.628337 
L 257.0292 189.381435 
L 257.368362 190.668297 
L 257.707523 190.954267 
L 257.933631 190.055506 
L 258.159739 190.19849 
L 258.611954 189.258877 
L 258.838062 189.156745 
L 258.951116 190.014653 
L 259.290277 188.952481 
L 259.403331 187.890309 
L 259.516385 189.74911 
L 259.629439 189.728684 
L 259.742493 187.257091 
L 260.420816 192.057291 
L 260.53387 195.427645 
L 260.873032 192.384114 
L 261.099139 187.31837 
L 261.212193 187.297944 
L 261.325247 186.399183 
L 261.777463 187.195812 
L 261.890517 187.011975 
L 262.00357 187.073254 
L 262.116624 186.991548 
L 262.455786 186.991548 
L 262.56884 187.931162 
L 262.908001 187.931162 
L 263.247163 187.951588 
L 263.360217 188.237558 
L 263.473271 187.808604 
L 263.586325 187.890309 
L 263.699379 186.664726 
L 264.942971 189.23845 
L 265.056025 189.23845 
L 265.282133 186.113214 
L 265.621294 186.113214 
L 265.847402 184.969336 
L 265.960456 185.970229 
L 266.07351 183.02883 
L 266.412671 183.907164 
L 266.638779 185.643407 
L 266.751833 185.847671 
L 266.864887 184.43825 
L 267.204049 187.073254 
L 267.54321 186.337904 
L 267.656264 186.194919 
L 267.995426 184.72422 
L 268.10848 181.517277 
L 268.221533 181.987084 
L 268.334587 181.844099 
L 268.447641 182.29348 
L 268.786803 182.763287 
L 269.012911 182.170922 
L 269.125964 182.579449 
L 269.239018 182.00751 
L 269.804288 182.211774 
L 269.917342 181.987084 
L 270.030395 181.455998 
L 270.369557 181.394719 
L 270.482611 181.537704 
L 270.595665 180.986191 
L 270.708719 181.210881 
L 271.160934 181.598983 
L 271.273988 181.905379 
L 271.387042 181.313013 
L 271.500096 182.027937 
L 271.61315 181.170029 
L 271.952311 181.476424 
L 272.404527 180.026151 
L 272.743688 179.842314 
L 272.856742 179.924019 
L 273.08285 179.903593 
L 273.195904 179.883167 
L 273.648119 181.10875 
L 274.326443 184.458677 
L 274.439496 183.539489 
L 274.665604 181.313013 
L 274.778658 181.006618 
L 275.11782 180.781927 
L 275.343927 180.128283 
L 275.456981 180.005725 
L 275.570035 179.515492 
L 275.909197 178.575878 
L 276.022251 179.372507 
L 276.361412 178.657583 
L 276.700574 178.351188 
L 276.813628 179.842314 
L 276.926682 179.515492 
L 277.152789 178.555452 
L 277.491951 178.412467 
L 277.605005 179.209096 
L 277.831113 179.025258 
L 278.283328 178.759715 
L 278.396382 179.12739 
L 278.509436 178.698436 
L 278.62249 179.004832 
L 278.735544 178.943553 
L 278.848597 178.351188 
L 278.961651 178.67801 
L 279.300813 177.860954 
L 279.413867 178.269482 
L 279.526921 179.678903 
L 279.866082 180.843207 
L 279.979136 179.209096 
L 280.205244 179.883167 
L 280.318298 177.513706 
L 280.657459 178.432893 
L 280.770513 178.412467 
L 280.883567 179.41336 
L 280.996621 177.94266 
L 281.109675 177.94266 
L 281.448837 177.49328 
L 281.674944 180.08743 
L 281.787998 179.168243 
L 281.901052 179.41336 
L 282.353268 179.41336 
L 282.692429 177.677117 
L 283.144645 178.882274 
L 283.257699 178.820995 
L 283.483806 178.616731 
L 283.822968 178.861847 
L 283.936022 178.616731 
L 284.162129 178.800568 
L 284.275183 178.718863 
L 284.727399 178.698436 
L 284.840453 178.800568 
L 284.953507 178.637157 
L 285.06656 178.718863 
L 285.518776 178.575878 
L 285.63183 178.146924 
L 285.744884 177.268589 
L 285.857938 178.535025 
L 286.197099 178.698436 
L 286.423207 176.328976 
L 286.536261 178.616731 
L 286.649315 177.350295 
L 286.988476 178.759715 
L 287.10153 175.614052 
L 287.214584 176.328976 
L 287.440692 174.082073 
L 287.779853 172.509242 
L 288.005961 173.469282 
L 288.232069 172.774785 
L 288.571231 174.511027 
L 288.684284 172.6318 
L 288.910392 172.713506 
L 289.362608 173.918662 
L 289.475662 176.267697 
L 289.588715 174.204632 
L 289.701769 174.511027 
L 289.814823 175.471068 
L 290.153985 173.755251 
L 290.267039 174.225058 
L 290.380092 172.795211 
L 290.493146 172.85649 
L 290.6062 172.713506 
L 290.945362 175.757037 
L 291.849793 172.550095 
L 291.962847 171.508349 
L 292.075901 174.735718 
L 292.188954 173.469282 
L 292.528116 173.285444 
L 292.754224 173.857383 
L 292.980332 172.223272 
L 293.319493 172.223272 
L 293.432547 172.386684 
L 293.545601 171.733039 
L 293.658655 172.304978 
L 293.771709 171.753466 
L 294.11087 171.242806 
L 294.336978 172.652227 
L 294.450032 172.468389 
L 294.563086 172.672653 
L 295.015301 171.508349 
L 295.128355 172.447963 
L 295.354463 170.915984 
L 295.806678 171.344938 
L 295.919732 170.854705 
L 296.032786 172.141567 
L 296.14584 170.609588 
L 296.485002 170.344045 
L 296.598055 169.772106 
L 296.711109 169.833386 
L 296.937217 169.690401 
L 297.276379 170.323619 
L 297.389433 170.834278 
L 297.502486 170.344045 
L 297.728594 170.752573 
L 298.18081 170.875131 
L 298.293864 171.140674 
L 298.406917 170.26234 
L 298.519971 170.915984 
L 298.859133 171.079395 
L 298.972187 170.344045 
L 299.198295 173.550987 
L 299.311348 171.814745 
L 299.65051 172.427536 
L 299.876618 171.855598 
L 299.989672 171.978156 
L 300.441887 170.507456 
L 300.554941 170.26234 
L 300.667995 169.588269 
L 300.781049 170.119355 
L 300.894103 169.955944 
L 301.233264 168.587376 
L 301.346318 168.852919 
L 301.572426 168.546523 
L 301.68548 167.790747 
L 302.024641 167.729468 
L 302.137695 166.095357 
L 302.363803 166.708149 
L 302.816018 166.340474 
L 302.929072 164.195704 
L 303.042126 167.872453 
L 303.268234 167.075824 
L 303.607396 166.912413 
L 303.833503 171.324512 
L 303.946557 170.344045 
L 305.981527 167.116676 
L 306.094581 168.260554 
L 306.207635 167.545631 
L 306.320689 167.566057 
L 306.433742 166.095357 
L 306.885958 167.8316 
L 306.999012 170.180634 
L 307.22512 167.116676 
L 307.677335 167.239235 
L 307.790389 166.58559 
L 308.016497 164.073145 
L 308.355658 164.481673 
L 308.468712 164.318262 
L 308.581766 162.806709 
L 308.69482 164.399967 
L 308.807874 163.0314 
L 309.486197 164.66551 
L 309.599251 164.563378 
L 309.938412 164.685937 
L 310.051466 164.849348 
L 310.16452 164.154851 
L 310.390628 164.113998 
L 310.72979 164.44082 
L 310.842843 164.931053 
L 310.955897 164.808495 
L 311.068951 165.564271 
L 311.182005 165.155744 
L 311.521167 165.502992 
L 311.634221 165.380434 
L 311.747274 165.850241 
L 311.860328 165.727682 
L 311.973382 165.891093 
L 312.425598 165.788961 
L 312.538652 165.645977 
L 312.764759 166.544738 
L 313.103921 166.851133 
L 313.216975 167.8316 
L 313.443083 167.259661 
L 313.556136 168.117569 
L 313.895298 169.404431 
L 314.121406 167.8316 
L 314.23446 168.546523 
L 314.347514 168.158422 
L 314.686675 167.872453 
L 314.799729 168.628229 
L 314.912783 168.321833 
L 315.025837 168.812066 
L 315.70416 167.954158 
L 315.930268 168.423965 
L 316.269429 168.423965 
L 316.382483 168.955051 
L 316.608591 168.260554 
L 316.721645 167.709042 
L 317.060806 168.035864 
L 317.17386 167.60691 
L 317.286914 169.118462 
L 317.399968 168.28098 
L 317.513022 169.118462 
L 317.852184 167.239235 
L 317.965237 168.628229 
L 318.078291 167.8316 
L 318.191345 168.914198 
L 318.304399 167.259661 
L 318.643561 168.240128 
L 318.756615 170.20106 
L 318.869668 167.627336 
L 318.982722 168.403539 
L 319.095776 167.709042 
L 319.434938 169.261447 
L 319.547992 169.077609 
L 319.661046 169.118462 
L 319.774099 169.384005 
L 319.887153 169.118462 
L 320.226315 169.179741 
L 320.452423 169.853812 
L 320.67853 169.690401 
L 321.017692 169.649548 
L 321.2438 169.97637 
L 321.809069 169.996797 
L 322.035177 169.424858 
L 322.148231 169.935517 
L 322.261285 169.649548 
L 322.7135 170.466603 
L 322.826554 170.568735 
L 323.052662 169.547416 
L 323.391823 170.241913 
L 323.504877 169.690401 
L 323.617931 170.548309 
L 324.1832 167.627336 
L 324.296254 168.648655 
L 324.409308 167.055397 
L 324.635416 168.137996 
L 324.974578 168.995904 
L 325.087631 167.749894 
L 325.200685 167.872453 
L 325.313739 168.56695 
L 325.426793 167.892879 
L 325.765955 168.362686 
L 325.879009 168.812066 
L 326.21817 168.199275 
L 326.557332 168.321833 
L 326.78344 168.607803 
L 326.896493 168.015437 
L 327.009547 168.56695 
L 327.348709 167.995011 
L 327.461763 168.526097 
L 327.574817 168.076717 
L 327.687871 168.403539 
L 327.800924 168.362686 
L 328.140086 168.076717 
L 328.366194 168.709934 
L 328.479248 168.771214 
L 328.592301 169.24102 
L 328.931463 169.629122 
L 329.044517 168.423965 
L 329.157571 169.01633 
L 329.270625 168.995904 
L 329.383679 169.220594 
L 329.72284 168.995904 
L 329.835894 169.547416 
L 330.062002 168.873345 
L 330.175056 168.505671 
L 330.514217 169.935517 
L 330.627271 168.587376 
L 330.740325 169.281873 
L 330.853379 168.607803 
L 330.966433 169.486137 
L 331.305594 168.832493 
L 331.418648 170.017223 
L 331.531702 168.628229 
L 331.644756 169.812959 
L 331.75781 168.669082 
L 332.096972 169.629122 
L 332.210025 168.934625 
L 332.323079 169.567843 
L 333.340564 170.160208 
L 333.679726 168.934625 
L 333.79278 167.749894 
L 334.018887 170.425751 
L 334.131941 169.057183 
L 334.471103 170.20106 
L 334.584157 168.832493 
L 334.697211 169.669974 
L 334.810265 168.852919 
L 334.923318 169.629122 
L 335.26248 169.629122 
L 335.375534 170.221487 
L 335.714695 169.690401 
L 336.166911 168.832493 
L 336.279965 170.221487 
L 336.393019 169.261447 
L 336.506073 169.833386 
L 336.845234 169.649548 
L 336.958288 169.853812 
L 337.071342 168.955051 
L 337.29745 169.036757 
L 337.410504 169.01633 
L 337.523557 168.485244 
L 337.636611 168.771214 
L 337.862719 168.219701 
L 337.975773 168.832493 
L 338.201881 168.669082 
L 338.314935 168.628229 
L 338.541042 168.158422 
L 338.76715 168.383112 
L 338.880204 168.260554 
L 338.993258 168.444391 
L 339.219366 169.690401 
L 339.445473 168.607803 
L 339.558527 168.914198 
L 339.671581 168.219701 
L 340.010743 168.423965 
L 340.123797 168.260554 
L 340.349904 167.8316 
L 340.462958 167.709042 
L 340.80212 167.8316 
L 340.915174 168.015437 
L 341.141281 167.688615 
L 341.254335 167.872453 
L 341.593497 168.076717 
L 341.706551 167.913305 
L 341.819605 168.28098 
L 342.045712 166.87156 
L 342.384874 166.810281 
L 342.497928 168.117569 
L 342.724036 167.770321 
L 343.176251 168.730361 
L 343.289305 167.770321 
L 343.402359 165.155744 
L 343.515413 166.483459 
L 343.967628 163.521633 
L 344.080682 166.749002 
L 344.30679 163.582912 
L 344.419844 163.685044 
L 344.759005 163.542059 
L 344.985113 161.152172 
L 345.098167 161.33601 
L 345.211221 160.804924 
L 345.550382 160.641513 
L 345.77649 162.439035 
L 345.889544 161.764964 
L 346.002598 161.764964 
L 346.34176 162.377755 
L 346.454813 162.153065 
L 346.567867 162.459461 
L 346.680921 163.215237 
L 346.793975 162.786283 
L 347.133137 162.622872 
L 347.359244 159.86531 
L 348.263675 160.457675 
L 348.376729 159.885736 
L 348.828945 160.253411 
L 348.941999 160.804924 
L 349.055052 160.069574 
L 349.168106 160.457675 
L 349.507268 160.192132 
L 349.620322 161.254304 
L 349.959483 156.556236 
L 350.411699 153.288014 
L 350.637807 153.471852 
L 350.750861 153.8191 
L 351.090022 154.186775 
L 351.203076 153.737395 
L 351.429184 154.288907 
L 351.542238 153.226735 
L 352.333615 150.530453 
L 352.672776 150.775569 
L 352.78583 151.715183 
L 352.898884 151.694756 
L 353.011938 149.080179 
L 353.124992 149.182311 
L 353.690261 150.755143 
L 353.803315 150.040219 
L 353.916369 150.93898 
L 354.255531 150.857275 
L 354.481638 150.244483 
L 354.594692 150.224057 
L 354.707746 149.856382 
L 355.046908 149.835956 
L 355.159962 149.958514 
L 355.273015 149.815529 
L 355.386069 149.059753 
L 355.499123 146.751572 
L 355.838285 146.58816 
L 355.951339 146.240912 
L 356.2905 147.650332 
L 357.081877 145.791531 
L 357.647147 144.770212 
L 357.873255 143.748893 
L 358.212416 143.789746 
L 358.32547 143.197381 
L 358.551578 144.504669 
L 358.664632 144.790639 
L 359.003793 143.565056 
L 359.116847 144.075715 
L 359.342955 145.240019 
L 359.456009 141.890092 
L 359.79517 145.240019 
L 359.908224 145.17874 
L 360.021278 144.913197 
L 360.134332 143.953157 
L 360.247386 145.056182 
L 360.699601 145.015329 
L 360.925709 143.217807 
L 361.038763 144.136994 
L 361.604032 143.912304 
L 361.717086 140.889199 
L 361.83014 144.014436 
L 362.169302 142.788853 
L 362.282356 143.851025 
L 362.395409 140.848347 
L 362.508463 141.604123 
L 362.621517 140.337687 
L 362.960679 139.479779 
L 363.073733 138.315475 
L 363.186787 141.399859 
L 363.29984 137.518846 
L 363.412894 138.499312 
L 363.752056 137.702683 
L 363.978164 135.312796 
L 364.091218 136.681364 
L 364.204271 136.313689 
L 364.317325 136.517953 
L 364.430379 135.169812 
L 364.656487 137.375861 
L 364.769541 136.98776 
L 364.995649 135.80303 
L 365.108702 136.885628 
L 365.221756 135.210665 
L 365.33481 135.414928 
L 365.560918 132.841204 
L 365.787026 136.98776 
L 366.126187 139.602337 
L 366.239241 143.851025 
L 366.465349 143.25866 
L 366.578403 143.728467 
L 366.917564 143.585482 
L 367.143672 143.912304 
L 367.256726 142.97269 
L 367.36978 143.238233 
L 367.708941 142.931838 
L 367.821995 145.6894 
L 367.935049 143.99401 
L 368.048103 144.872344 
L 368.161157 147.200952 
L 368.500319 147.119246 
L 368.726426 149.24359 
L 368.83948 146.669866 
L 368.952534 147.60948 
L 369.291696 147.691185 
L 369.40475 147.956728 
L 369.517803 145.566841 
L 369.630857 148.079287 
L 369.743911 144.708933 
L 370.083073 146.669866 
L 370.196127 144.320832 
L 370.309181 147.732038 
L 370.535288 147.180526 
L 370.87445 146.13878 
L 370.987504 146.731145 
L 371.100558 143.25866 
L 371.326665 146.812851 
L 371.665827 146.057074 
L 371.891935 142.155635 
L 372.004989 141.501991 
L 372.118043 141.542844 
L 372.796366 140.255981 
L 372.90942 141.256874 
L 373.474689 136.640511 
L 373.587743 136.538379 
L 374.492174 136.068573 
L 374.831335 134.148493 
L 375.283551 138.478886 
L 375.622713 138.152064 
L 375.84882 136.701791 
L 375.961874 136.599659 
L 376.074928 136.803922 
L 376.41409 137.171597 
L 376.527144 137.72311 
L 376.640197 137.682257 
L 376.753251 138.764855 
L 376.866305 137.232877 
L 377.205467 136.926481 
L 377.318521 137.702683 
L 377.431575 137.232877 
L 377.657682 138.948693 
L 378.222952 136.25241 
L 378.336006 136.946907 
L 378.449059 135.905162 
L 378.901275 136.906054 
L 379.014329 134.924695 
L 379.127383 136.211557 
L 379.240437 135.06768 
L 379.805706 133.413143 
L 379.91876 133.556127 
L 380.031814 132.984189 
L 380.370975 133.719538 
L 380.484029 133.065894 
L 380.597083 133.311011 
L 380.823191 129.818099 
L 381.275406 128.735501 
L 381.38846 129.184881 
L 381.501514 128.163562 
L 381.614568 125.69197 
L 381.953729 123.465494 
L 382.292891 107.941442 
L 382.745107 108.472528 
L 382.85816 110.024933 
L 382.971214 117.133315 
L 383.197322 109.555126 
L 383.536484 109.432568 
L 383.649538 114.232768 
L 383.762591 109.146598 
L 383.988699 117.092462 
L 384.440915 114.396179 
L 384.553969 111.577338 
L 384.667022 111.802028 
L 384.780076 110.27005 
L 385.119238 108.349969 
L 385.4584 102.262907 
L 385.571453 103.325079 
L 385.910615 98.116351 
L 386.023669 101.997364 
L 386.362831 88.883625 
L 386.815046 84.553232 
L 386.9281 84.982186 
L 387.154208 67.088674 
L 388.284746 52.585941 
L 388.510854 31.219943 
L 388.736962 67.803597 
L 389.076123 74.952831 
L 389.302231 68.212125 
L 389.415285 69.682824 
L 389.528339 69.356002 
L 389.980554 67.476775 
L 390.319716 78.241479 
L 390.658878 79.998148 
L 390.771932 83.960867 
L 390.884985 83.695324 
L 391.111093 89.353432 
L 391.450255 89.864092 
L 391.563309 89.353432 
L 391.789416 83.225517 
L 392.241632 70.704144 
L 392.46774 67.231658 
L 392.580794 68.150846 
L 392.693847 66.761851 
L 393.259117 71.255656 
L 393.372171 70.540733 
L 393.485224 66.741425 
L 393.93744 59.939439 
L 394.050494 60.082424 
L 394.276602 63.350645 
L 394.841871 62.98297 
L 394.954925 63.187234 
L 395.067979 62.635722 
L 395.40714 56.385248 
L 395.633248 61.144596 
L 395.746302 61.941225 
L 395.859356 60.8382 
L 396.198517 60.245835 
L 396.311571 61.34886 
L 396.424625 63.616188 
L 396.537679 63.595762 
L 396.650733 60.347967 
L 396.989895 63.003397 
L 397.216002 62.737854 
L 397.329056 61.777814 
L 397.44211 62.329326 
L 398.120433 62.697001 
L 398.233487 63.187234 
L 398.685703 63.330219 
L 398.798757 60.695215 
L 399.024864 62.98297 
L 399.364026 64.269833 
L 399.47708 66.210339 
L 399.816241 61.900372 
L 400.155403 62.002504 
L 400.381511 63.289366 
L 400.494565 63.514056 
L 400.607618 66.169486 
L 400.94678 67.599333 
L 401.172888 65.270725 
L 401.285942 67.354217 
L 401.738157 67.068247 
L 401.851211 65.965223 
L 401.964265 66.046928 
L 402.077319 61.532697 
L 402.190373 62.451884 
L 402.529534 63.473204 
L 402.642588 64.167701 
L 402.755642 63.330219 
L 402.868696 64.208553 
L 402.98175 64.045142 
L 403.433965 65.92437 
L 403.547019 65.250299 
L 403.660073 65.944796 
L 403.773127 68.028287 
L 404.112289 64.00429 
L 404.225342 68.007861 
L 404.45145 64.392391 
L 404.564504 65.92437 
L 404.903666 62.370179 
L 405.01672 63.391498 
L 405.129773 65.842664 
L 405.242827 64.310685 
L 405.355881 64.45367 
L 405.695043 63.861305 
L 405.808097 64.045142 
L 406.147258 63.636615 
L 406.48642 63.452777 
L 406.599474 63.697894 
L 406.825581 66.251192 
L 406.938635 64.780492 
L 407.503905 67.252085 
L 407.616959 66.88441 
L 407.730012 63.309793 
L 407.843066 66.414603 
L 407.95612 63.779599 
L 408.069174 65.046035 
L 408.182228 64.984756 
L 408.408336 64.065569 
L 408.52139 64.719213 
L 408.747497 62.75828 
L 408.860551 63.983863 
L 408.973605 63.71832 
L 409.086659 73.196162 
L 409.199713 65.250299 
L 409.312767 67.803597 
L 409.878036 64.45367 
L 409.99109 68.334683 
L 410.104144 65.903943 
L 410.443305 66.455456 
L 410.669413 63.289366 
L 410.895521 63.779599 
L 411.234683 65.168594 
L 411.46079 63.800026 
L 411.686898 66.37375 
L 412.02606 71.112671 
L 412.252167 66.251192 
L 412.365221 66.639293 
L 412.478275 63.963437 
L 412.930491 66.14906 
L 413.043544 65.903943 
L 413.156598 66.271618 
L 413.269652 73.522985 
L 413.608814 73.298294 
L 413.721868 73.400426 
L 413.834922 72.41996 
L 413.947975 68.29383 
L 414.061029 68.29383 
L 414.400191 66.720999 
L 414.739353 70.316042 
L 414.852406 65.883517 
L 415.982945 69.703251 
L 416.209053 68.498094 
L 416.435161 70.49988 
L 416.774322 67.660612 
L 416.887376 68.273404 
L 417.00043 67.803597 
L 417.226538 69.723677 
L 417.565699 70.070926 
L 417.678753 70.459027 
L 417.791807 71.357788 
L 417.904861 70.765423 
L 418.017915 68.845343 
L 418.357077 68.702358 
L 418.47013 66.210339 
L 418.583184 68.355109 
L 418.809292 66.720999 
L 419.261507 70.132205 
L 419.374561 69.53984 
L 419.487615 68.028287 
L 419.600669 69.866662 
L 419.939831 69.98922 
L 420.165938 70.438601 
L 420.278992 67.885303 
L 420.392046 74.074497 
L 420.844262 68.232551 
L 420.957316 74.299187 
L 421.070369 74.299187 
L 421.183423 72.991899 
L 421.522585 74.258334 
L 421.635639 65.617974 
L 421.748693 66.414603 
L 421.9748 69.049606 
L 422.313962 69.784956 
L 422.427016 67.538054 
L 422.653124 70.132205 
L 422.766178 68.865769 
L 423.105339 68.641079 
L 423.331447 69.948367 
L 423.444501 69.049606 
L 423.557555 72.174843 
L 424.00977 68.007861 
L 424.122824 69.601119 
L 424.235878 66.618867 
L 424.348932 66.618867 
L 424.688093 67.190806 
L 424.801147 72.317828 
L 424.914201 69.866662 
L 425.140309 71.296509 
L 425.47947 64.637508 
L 425.705578 72.031859 
L 425.818632 71.541625 
L 426.270848 74.217482 
L 426.383901 73.768101 
L 426.610009 74.483025 
L 426.723063 71.357788 
L 427.175279 74.319614 
L 427.288332 73.870233 
L 427.401386 74.217482 
L 427.51444 73.461705 
L 428.644979 74.074497 
L 428.758033 74.278761 
L 428.984141 74.013218 
L 429.097194 74.360466 
L 429.54941 73.012325 
L 429.662464 68.784064 
L 429.888572 70.356895 
L 430.227733 70.111778 
L 430.340787 68.824916 
L 430.453841 69.110886 
L 430.679949 68.048714 
L 431.01911 67.987435 
L 431.132164 67.578907 
L 431.245218 67.701465 
L 431.358272 66.863983 
L 431.471326 64.719213 
L 431.810487 63.71832 
L 431.923541 62.145489 
L 432.036595 62.370179 
L 432.149649 60.797347 
L 432.601864 61.165022 
L 432.714918 61.001611 
L 432.827972 62.145489 
L 433.05408 60.899479 
L 433.393242 60.879053 
L 433.845457 59.633043 
L 434.184619 59.592191 
L 434.410726 58.815988 
L 434.52378 55.772457 
L 434.636834 56.221837 
L 434.975996 51.768886 
L 435.202104 54.11792 
L 435.428211 52.64722 
L 435.880427 56.589512 
L 436.106535 55.07796 
L 436.219588 55.323076 
L 436.55875 54.79199 
L 436.671804 54.383463 
L 436.784858 54.506021 
L 436.897912 54.424315 
L 437.010966 55.098386 
L 437.350127 54.934975 
L 437.463181 56.26269 
L 437.689289 55.016681 
L 437.802343 55.609046 
L 438.141504 54.710285 
L 438.254558 55.568193 
L 438.480666 54.465168 
L 438.59372 54.158773 
L 439.272043 54.097493 
L 439.385097 53.423423 
L 439.724258 53.872803 
L 439.837312 49.685394 
L 439.950366 52.912763 
L 440.06342 52.361251 
L 440.176474 56.77335 
L 440.515636 50.890551 
L 440.628689 51.544195 
L 440.854797 49.644542 
L 440.967851 49.930511 
L 441.307013 49.133882 
L 441.420067 50.461597 
L 441.646174 48.173842 
L 442.09839 55.547767 
L 442.324498 53.15788 
L 442.437551 53.321291 
L 442.550605 53.239585 
L 443.002821 53.586834 
L 443.115875 52.769778 
L 443.228929 53.402996 
L 443.341982 52.892337 
L 443.455036 46.069924 
L 443.794198 54.301757 
L 443.907252 55.466061 
L 444.020306 54.771564 
L 444.13336 56.038 
L 444.246413 47.070817 
L 444.472521 56.691644 
L 444.585575 56.671218 
L 444.698629 59.347074 
L 445.263898 56.119705 
L 445.376952 59.612617 
L 445.490006 59.408353 
L 445.716114 52.279545 
L 446.168329 61.777814 
L 446.281383 61.512271 
L 446.507491 63.759173 
L 446.846652 65.6384 
L 446.959706 64.147274 
L 447.07276 64.167701 
L 447.185814 65.760959 
L 447.298868 65.597548 
L 447.411922 55.670325 
L 447.524976 55.670325 
L 447.751083 67.538054 
L 447.864137 64.984756 
L 448.090245 67.456349 
L 448.429407 66.761851 
L 448.542461 65.842664 
L 448.768568 68.007861 
L 448.881622 68.477668 
L 449.220784 63.636615 
L 449.446892 71.848021 
L 450.012161 69.560266 
L 450.238269 71.950153 
L 450.351323 72.41996 
L 450.464376 68.967901 
L 450.803538 68.967901 
L 451.029646 73.073604 
L 451.1427 70.050499 
L 451.255753 72.399533 
L 451.594915 71.827595 
L 451.707969 74.605583 
L 451.821023 71.807168 
L 451.934077 75.974151 
L 452.047131 69.172165 
L 452.6124 75.953724 
L 452.725454 74.401319 
L 452.838508 77.792099 
L 453.177669 72.624224 
L 453.403777 77.036323 
L 453.516831 77.036323 
L 453.629885 84.818775 
L 453.969046 83.654471 
L 454.0821 85.513272 
L 454.308208 77.077175 
L 454.421262 83.000827 
L 454.760424 82.878269 
L 454.986531 85.247729 
L 455.099585 83.409355 
L 455.212639 83.981293 
L 455.551801 86.636723 
L 455.664855 86.187343 
L 455.777908 84.553232 
L 455.890962 86.759281 
L 457.134555 81.530127 
L 457.473716 86.452886 
L 457.58677 83.899588 
L 458.038986 89.864092 
L 458.15204 92.029289 
L 458.265094 91.518629 
L 458.378147 92.601227 
L 458.717309 81.938655 
L 458.943417 93.009755 
L 459.169525 92.1927 
L 459.508686 93.82681 
L 459.62174 87.086104 
L 459.847848 92.968902 
L 459.960902 93.663399 
L 460.300063 90.905837 
L 460.413117 93.009755 
L 460.526171 92.968902 
L 460.639225 94.582587 
L 460.752279 94.010648 
L 461.09144 93.540841 
L 461.204494 93.683826 
L 461.317548 94.092353 
L 461.543656 93.724678 
L 461.882818 94.051501 
L 462.108925 95.011541 
L 462.221979 89.802813 
L 462.335033 95.052393 
L 462.787249 94.807277 
L 462.900302 91.661614 
L 463.013356 92.41739 
L 463.12641 94.766424 
L 463.465572 94.725571 
L 463.578626 94.480455 
L 463.691679 86.738855 
L 463.917787 93.091461 
L 464.256949 92.86677 
L 464.370003 102.07907 
L 464.483057 94.214912 
L 464.59611 94.521307 
L 464.709164 93.990221 
L 465.048326 89.76196 
L 465.16138 94.623439 
L 465.387488 93.418283 
L 465.500541 95.093246 
L 465.839703 94.78685 
L 465.952757 96.237124 
L 466.065811 94.766424 
L 466.291919 89.475991 
L 466.744134 93.418283 
L 466.857188 92.785065 
L 467.083296 93.663399 
L 467.422457 93.030181 
L 467.648565 92.008862 
L 467.761619 93.990221 
L 467.874673 92.396963 
L 468.326888 90.660721 
L 468.439942 89.169595 
L 468.552996 89.169595 
L 469.005212 94.317044 
L 469.118265 90.517736 
L 469.231319 90.864985 
L 469.457427 88.29126 
L 469.796589 92.008862 
L 469.909643 88.618082 
L 470.022696 91.845451 
L 470.13575 91.886304 
L 470.248804 91.68204 
L 470.70102 92.764638 
L 470.814073 92.335684 
L 470.927127 88.475098 
L 472.17072 93.724678 
L 472.283774 90.94669 
L 472.396828 93.622547 
L 472.509882 93.622547 
L 472.622935 90.21134 
L 473.075151 92.723786 
L 473.188205 92.601227 
L 473.414313 89.394285 
L 473.753474 93.214019 
L 473.866528 92.989329 
L 473.979582 93.275298 
L 474.092636 87.576337 
L 474.20569 93.316151 
L 474.544851 93.254872 
L 474.657905 94.970688 
L 474.770959 93.622547 
L 474.884013 95.665185 
L 474.997067 92.580801 
L 475.449282 96.339256 
L 475.562336 96.318829 
L 475.67539 96.359682 
L 475.788444 94.950262 
L 476.127606 95.992007 
L 476.353713 94.684719 
L 476.466767 87.84188 
L 476.918983 93.683826 
L 477.032036 93.969795 
L 477.14509 96.76821 
L 477.71036 97.564839 
L 477.936467 97.340148 
L 478.049521 93.867663 
L 478.162575 96.849915 
L 478.727845 97.95294 
L 478.840898 97.769103 
L 478.953952 99.382787 
L 479.293114 100.567517 
L 479.406168 97.789529 
L 479.519222 97.789529 
L 479.632276 98.831274 
L 479.745329 97.544412 
L 480.197545 100.812634 
L 480.875868 100.465385 
L 481.101976 105.061322 
L 481.21503 104.44853 
L 481.328084 111.740749 
L 481.667245 116.316259 
L 481.780299 112.905053 
L 482.006407 117.664401 
L 482.119461 115.785173 
L 482.458622 119.298511 
L 482.68473 125.385574 
L 482.797784 125.63069 
L 482.910838 127.244375 
L 483.363053 126.733715 
L 483.476107 118.992116 
L 483.589161 122.668865 
L 483.702215 120.891769 
L 484.041377 119.727465 
L 484.15443 120.340257 
L 484.267484 126.202629 
L 484.380538 124.241696 
L 484.493592 125.385574 
L 484.945808 126.100497 
L 485.058861 125.91666 
L 485.284969 123.526773 
L 485.624131 123.547199 
L 485.737185 123.955727 
L 485.850239 124.977046 
L 486.076346 125.079178 
L 486.415508 125.91666 
L 486.528562 125.875807 
L 486.75467 123.526773 
L 487.546047 129.389145 
L 487.659101 125.160884 
L 487.998262 126.488599 
L 488.111316 124.834061 
L 488.22437 126.059644 
L 488.337424 121.11646 
L 488.450478 125.732822 
L 488.789639 125.998365 
L 488.902693 127.550771 
L 489.015747 126.284335 
L 489.241855 128.510811 
L 489.354909 128.245268 
L 489.467962 119.625333 
L 489.69407 130.2062 
L 490.033232 133.964655 
L 490.146286 134.924695 
L 490.25934 134.924695 
L 490.372393 137.192024 
L 490.711555 148.651225 
L 490.824609 148.487814 
L 491.163771 150.305762 
L 491.615986 126.447746 
L 492.068202 139.050825 
L 492.181255 135.149385 
L 492.294309 136.844775 
L 492.407363 130.185774 
L 492.746525 126.284335 
L 492.859579 136.068573 
L 493.085686 125.017899 
L 493.19874 135.06768 
L 493.877064 135.108533 
L 493.990117 126.815421 
L 494.442333 137.151171 
L 494.555387 137.151171 
L 494.668441 143.953157 
L 494.781495 135.762177 
L 495.23371 135.762177 
L 495.346764 131.90159 
L 495.459818 131.90159 
L 495.572872 125.855381 
L 496.138141 135.537487 
L 496.251195 143.136102 
L 496.364249 135.966441 
L 496.70341 127.877593 
L 496.929518 142.666295 
L 497.155626 129.552556 
L 497.494787 137.927374 
L 498.512272 130.063216 
L 499.077542 147.83417 
L 499.190596 147.384789 
L 499.303649 145.811958 
L 499.529757 135.619192 
L 499.868919 139.786175 
L 499.981973 146.792424 
L 500.095027 139.479779 
L 500.20808 139.479779 
L 500.321134 132.167133 
L 500.660296 138.295049 
L 500.886404 138.295049 
L 500.999458 145.668973 
L 501.112511 144.831491 
L 501.451673 144.851918 
L 501.564727 147.200952 
L 501.903889 142.727574 
L 502.582212 142.727574 
L 502.695266 141.032184 
L 503.147481 147.895449 
L 503.260535 147.997581 
L 503.373589 144.096142 
L 503.486643 136.150278 
L 503.825804 144.116568 
L 503.938858 136.048146 
L 504.164966 145.097034 
L 504.27802 137.9478 
L 504.730235 147.854596 
L 504.843289 141.930945 
L 505.069397 147.466495 
L 505.408559 148.160992 
L 505.521612 147.466495 
L 505.634666 147.732038 
L 505.74772 146.996688 
L 505.860774 139.4185 
L 506.199936 134.84299 
L 506.31299 134.84299 
L 506.539097 147.650332 
L 506.652151 150.224057 
L 507.217421 146.914983 
L 507.443528 141.583696 
L 507.78269 140.358113 
L 507.895744 147.997581 
L 508.121852 146.955835 
L 508.234905 142.686721 
L 508.574067 142.686721 
L 508.800175 148.160992 
L 509.026282 147.997581 
L 509.478498 148.978047 
L 509.704606 148.978047 
L 509.81766 150.060646 
L 510.156821 148.855489 
L 510.269875 145.17874 
L 510.948198 145.17874 
L 511.965683 147.486921 
L 512.078737 148.140566 
L 512.191791 148.140566 
L 512.530953 148.549093 
L 512.644006 143.626335 
L 512.75706 144.300405 
L 512.870114 139.112104 
L 513.32233 139.112104 
L 513.548437 148.56952 
L 513.661491 149.161885 
L 513.774545 146.526881 
L 514.339815 148.875915 
L 514.452868 142.666295 
L 514.565922 145.607694 
L 515.357299 145.607694 
L 515.696461 149.30487 
L 515.809515 148.426535 
L 515.922569 148.916768 
L 516.035623 148.528667 
L 516.148676 142.870559 
L 516.487838 147.241805 
L 516.713946 146.13878 
L 516.827 146.996688 
L 516.940054 145.158314 
L 517.392269 140.82792 
L 517.505323 143.953157 
L 517.618377 143.932731 
L 517.731431 144.075715 
L 518.070592 140.439819 
L 518.183646 145.525988 
L 518.2967 143.99401 
L 518.409754 136.170705 
L 518.861969 143.442497 
L 519.088077 142.237341 
L 519.201131 143.912304 
L 519.314185 140.480672 
L 519.653347 140.480672 
L 519.879454 144.422964 
L 519.992508 144.422964 
L 520.105562 143.462924 
L 520.557778 144.790639 
L 520.896939 147.772891 
L 521.236101 148.099713 
L 521.462209 148.038434 
L 522.479693 148.181418 
L 522.931909 147.732038 
L 523.723286 147.732038 
L 523.83634 150.162778 
L 523.949394 150.142351 
L 524.062448 149.652118 
L 524.401609 151.960299 
L 524.514663 150.081072 
L 524.740771 150.224057 
L 524.853825 146.200059 
L 525.419094 150.20363 
L 526.436579 150.20363 
L 526.775741 150.081072 
L 527.001848 151.000259 
L 527.114902 150.162778 
L 527.227956 150.244483 
L 527.567118 152.144137 
L 527.680172 150.734716 
L 527.793225 151.613051 
L 527.906279 151.592625 
L 528.019333 149.774676 
L 528.358495 148.263124 
L 528.584602 151.67433 
L 528.697656 151.490493 
L 529.149872 147.83417 
L 529.262926 151.020686 
L 529.37598 151.020686 
L 529.489033 149.590839 
L 529.828195 152.287122 
L 529.941249 152.246269 
L 530.054303 152.389254 
L 530.280411 157.618408 
L 530.393464 158.108641 
L 530.506518 157.49585 
L 530.619572 157.557129 
L 530.84568 158.39461 
L 530.958734 158.476316 
L 531.071788 158.292479 
L 531.524003 159.150387 
L 531.637057 158.45589 
L 531.750111 156.821779 
L 531.976219 158.68058 
L 532.31538 160.335117 
L 532.428434 159.824457 
L 532.541488 160.335117 
L 532.654542 159.681473 
L 532.767596 153.328867 
L 533.106757 159.885736 
L 533.219811 166.463032 
L 533.445919 158.946123 
L 533.558973 155.923018 
L 533.898135 162.234771 
L 534.124242 154.738288 
L 534.689512 154.738288 
L 534.802565 160.661939 
L 535.028673 151.16367 
L 535.141727 158.598874 
L 535.480889 160.682365 
L 535.706996 153.410573 
L 535.82005 155.330653 
L 535.933104 154.32976 
L 536.272266 154.32976 
L 536.38532 160.518954 
L 536.611427 151.102391 
L 537.063643 151.102391 
L 537.176697 150.693864 
L 537.402805 164.256983 
L 537.515858 158.129067 
L 537.85502 158.129067 
L 538.194182 155.432785 
L 538.307236 153.288014 
L 538.646397 154.983404 
L 538.759451 151.858168 
L 539.776936 151.858168 
L 539.88999 158.578448 
L 540.229151 154.125496 
L 540.342205 159.334224 
L 540.568313 152.348401 
L 540.681367 152.164563 
L 541.020528 155.51449 
L 541.133582 159.068681 
L 541.35969 153.328867 
L 541.472744 153.328867 
L 541.811906 157.679687 
L 541.924959 151.960299 
L 542.038013 151.960299 
L 542.151067 159.334224 
L 542.264121 155.637049 
L 542.603283 160.253411 
L 542.716337 160.212559 
L 542.942444 154.513597 
L 543.39466 154.513597 
L 543.507714 161.540274 
L 543.733821 154.922125 
L 543.846875 156.556236 
L 544.186037 156.086429 
L 544.412145 159.252519 
L 544.525199 153.308441 
L 544.638252 155.044683 
L 545.090468 155.044683 
L 545.203522 151.796888 
L 545.316576 151.796888 
L 545.42963 144.422964 
L 545.881845 143.156528 
L 545.994899 143.156528 
L 546.107953 150.550879 
L 546.221007 144.708933 
L 546.560168 147.507348 
L 546.673222 147.507348 
L 546.786276 149.631692 
L 547.012384 142.359899 
L 547.351545 145.832384 
L 547.577653 145.832384 
L 547.690707 149.774676 
L 547.803761 145.117461 
L 548.142922 146.465602 
L 548.255976 145.771105 
L 548.36903 142.441604 
L 548.482084 142.441604 
L 548.595138 141.297727 
L 548.9343 146.036648 
L 549.047353 149.672544 
L 549.160407 144.300405 
L 549.838731 143.176954 
L 549.951784 144.586375 
L 550.517054 144.586375 
L 550.630108 150.857275 
L 550.856215 145.137887 
L 551.308431 145.137887 
L 551.421485 147.466495 
L 551.534539 147.160099 
L 551.760646 142.748 
L 552.099808 148.303977 
L 552.212862 148.181418 
L 552.552024 145.91409 
L 552.891185 147.446069 
L 553.117293 141.481564 
L 553.343401 133.413143 
L 553.682562 137.763963 
L 554.134778 146.057074 
L 555.37837 146.077501 
L 555.604478 147.466495 
L 555.717532 147.037541 
L 556.056694 145.199166 
L 556.169747 147.057967 
L 556.282801 146.118354 
L 556.395855 146.13878 
L 556.508909 145.607694 
L 556.848071 146.13878 
L 556.961125 145.158314 
L 557.074178 146.465602 
L 557.300286 145.117461 
L 557.639448 145.117461 
L 557.865556 146.159206 
L 557.978609 145.17874 
L 558.091663 147.139673 
L 558.769987 147.180526 
L 558.88304 144.851918 
L 559.335256 145.260445 
L 559.561364 145.260445 
L 559.561364 145.260445 
" clip-path="url(#p395f9e3de3)" style="fill: none; stroke: #0c0c0c; stroke-width: 1.5; stroke-linecap: square"/>
   </g>
   <g id="patch_3">
    <path d="M 26.925 218.158125 
L 26.925 22.318125 
" style="fill: none; stroke: #000000; stroke-width: 0.8; stroke-linejoin: miter; stroke-linecap: square"/>
   </g>
   <g id="patch_4">
    <path d="M 584.925 218.158125 
L 584.925 22.318125 
" style="fill: none; stroke: #000000; stroke-width: 0.8; stroke-linejoin: miter; stroke-linecap: square"/>
   </g>
   <g id="patch_5">
    <path d="M 26.925 218.158125 
L 584.925 218.158125 
" style="fill: none; stroke: #000000; stroke-width: 0.8; stroke-linejoin: miter; stroke-linecap: square"/>
   </g>
   <g id="patch_6">
    <path d="M 26.925 22.318125 
L 584.925 22.318125 
" style="fill: none; stroke: #000000; stroke-width: 0.8; stroke-linejoin: miter; stroke-linecap: square"/>
   </g>
   <g id="text_13">
    <!-- Original Dataset Figure -->
    <g transform="translate(236.819063 16.318125) scale(0.12 -0.12)">
     <defs>
      <path id="DejaVuSans-4f" d="M 2522 4238 
Q 1834 4238 1429 3725 
Q 1025 3213 1025 2328 
Q 1025 1447 1429 934 
Q 1834 422 2522 422 
Q 3209 422 3611 934 
Q 4013 1447 4013 2328 
Q 4013 3213 3611 3725 
Q 3209 4238 2522 4238 
z
M 2522 4750 
Q 3503 4750 4090 4092 
Q 4678 3434 4678 2328 
Q 4678 1225 4090 567 
Q 3503 -91 2522 -91 
Q 1538 -91 948 565 
Q 359 1222 359 2328 
Q 359 3434 948 4092 
Q 1538 4750 2522 4750 
z
" transform="scale(0.015625)"/>
      <path id="DejaVuSans-72" d="M 2631 2963 
Q 2534 3019 2420 3045 
Q 2306 3072 2169 3072 
Q 1681 3072 1420 2755 
Q 1159 2438 1159 1844 
L 1159 0 
L 581 0 
L 581 3500 
L 1159 3500 
L 1159 2956 
Q 1341 3275 1631 3429 
Q 1922 3584 2338 3584 
Q 2397 3584 2469 3576 
Q 2541 3569 2628 3553 
L 2631 2963 
z
" transform="scale(0.015625)"/>
      <path id="DejaVuSans-67" d="M 2906 1791 
Q 2906 2416 2648 2759 
Q 2391 3103 1925 3103 
Q 1463 3103 1205 2759 
Q 947 2416 947 1791 
Q 947 1169 1205 825 
Q 1463 481 1925 481 
Q 2391 481 2648 825 
Q 2906 1169 2906 1791 
z
M 3481 434 
Q 3481 -459 3084 -895 
Q 2688 -1331 1869 -1331 
Q 1566 -1331 1297 -1286 
Q 1028 -1241 775 -1147 
L 775 -588 
Q 1028 -725 1275 -790 
Q 1522 -856 1778 -856 
Q 2344 -856 2625 -561 
Q 2906 -266 2906 331 
L 2906 616 
Q 2728 306 2450 153 
Q 2172 0 1784 0 
Q 1141 0 747 490 
Q 353 981 353 1791 
Q 353 2603 747 3093 
Q 1141 3584 1784 3584 
Q 2172 3584 2450 3431 
Q 2728 3278 2906 2969 
L 2906 3500 
L 3481 3500 
L 3481 434 
z
" transform="scale(0.015625)"/>
      <path id="DejaVuSans-6e" d="M 3513 2113 
L 3513 0 
L 2938 0 
L 2938 2094 
Q 2938 2591 2744 2837 
Q 2550 3084 2163 3084 
Q 1697 3084 1428 2787 
Q 1159 2491 1159 1978 
L 1159 0 
L 581 0 
L 581 3500 
L 1159 3500 
L 1159 2956 
Q 1366 3272 1645 3428 
Q 1925 3584 2291 3584 
Q 2894 3584 3203 3211 
Q 3513 2838 3513 2113 
z
" transform="scale(0.015625)"/>
      <path id="DejaVuSans-61" d="M 2194 1759 
Q 1497 1759 1228 1600 
Q 959 1441 959 1056 
Q 959 750 1161 570 
Q 1363 391 1709 391 
Q 2188 391 2477 730 
Q 2766 1069 2766 1631 
L 2766 1759 
L 2194 1759 
z
M 3341 1997 
L 3341 0 
L 2766 0 
L 2766 531 
Q 2569 213 2275 61 
Q 1981 -91 1556 -91 
Q 1019 -91 701 211 
Q 384 513 384 1019 
Q 384 1609 779 1909 
Q 1175 2209 1959 2209 
L 2766 2209 
L 2766 2266 
Q 2766 2663 2505 2880 
Q 2244 3097 1772 3097 
Q 1472 3097 1187 3025 
Q 903 2953 641 2809 
L 641 3341 
Q 956 3463 1253 3523 
Q 1550 3584 1831 3584 
Q 2591 3584 2966 3190 
Q 3341 2797 3341 1997 
z
" transform="scale(0.015625)"/>
      <path id="DejaVuSans-6c" d="M 603 4863 
L 1178 4863 
L 1178 0 
L 603 0 
L 603 4863 
z
" transform="scale(0.015625)"/>
      <path id="DejaVuSans-20" transform="scale(0.015625)"/>
      <path id="DejaVuSans-44" d="M 1259 4147 
L 1259 519 
L 2022 519 
Q 2988 519 3436 956 
Q 3884 1394 3884 2338 
Q 3884 3275 3436 3711 
Q 2988 4147 2022 4147 
L 1259 4147 
z
M 628 4666 
L 1925 4666 
Q 3281 4666 3915 4102 
Q 4550 3538 4550 2338 
Q 4550 1131 3912 565 
Q 3275 0 1925 0 
L 628 0 
L 628 4666 
z
" transform="scale(0.015625)"/>
      <path id="DejaVuSans-74" d="M 1172 4494 
L 1172 3500 
L 2356 3500 
L 2356 3053 
L 1172 3053 
L 1172 1153 
Q 1172 725 1289 603 
Q 1406 481 1766 481 
L 2356 481 
L 2356 0 
L 1766 0 
Q 1100 0 847 248 
Q 594 497 594 1153 
L 594 3053 
L 172 3053 
L 172 3500 
L 594 3500 
L 594 4494 
L 1172 4494 
z
" transform="scale(0.015625)"/>
      <path id="DejaVuSans-73" d="M 2834 3397 
L 2834 2853 
Q 2591 2978 2328 3040 
Q 2066 3103 1784 3103 
Q 1356 3103 1142 2972 
Q 928 2841 928 2578 
Q 928 2378 1081 2264 
Q 1234 2150 1697 2047 
L 1894 2003 
Q 2506 1872 2764 1633 
Q 3022 1394 3022 966 
Q 3022 478 2636 193 
Q 2250 -91 1575 -91 
Q 1294 -91 989 -36 
Q 684 19 347 128 
L 347 722 
Q 666 556 975 473 
Q 1284 391 1588 391 
Q 1994 391 2212 530 
Q 2431 669 2431 922 
Q 2431 1156 2273 1281 
Q 2116 1406 1581 1522 
L 1381 1569 
Q 847 1681 609 1914 
Q 372 2147 372 2553 
Q 372 3047 722 3315 
Q 1072 3584 1716 3584 
Q 2034 3584 2315 3537 
Q 2597 3491 2834 3397 
z
" transform="scale(0.015625)"/>
      <path id="DejaVuSans-46" d="M 628 4666 
L 3309 4666 
L 3309 4134 
L 1259 4134 
L 1259 2759 
L 3109 2759 
L 3109 2228 
L 1259 2228 
L 1259 0 
L 628 0 
L 628 4666 
z
" transform="scale(0.015625)"/>
      <path id="DejaVuSans-75" d="M 544 1381 
L 544 3500 
L 1119 3500 
L 1119 1403 
Q 1119 906 1312 657 
Q 1506 409 1894 409 
Q 2359 409 2629 706 
Q 2900 1003 2900 1516 
L 2900 3500 
L 3475 3500 
L 3475 0 
L 2900 0 
L 2900 538 
Q 2691 219 2414 64 
Q 2138 -91 1772 -91 
Q 1169 -91 856 284 
Q 544 659 544 1381 
z
M 1991 3584 
L 1991 3584 
z
" transform="scale(0.015625)"/>
     </defs>
     <use xlink:href="#DejaVuSans-4f"/>
     <use xlink:href="#DejaVuSans-72" x="78.710938"/>
     <use xlink:href="#DejaVuSans-69" x="119.824219"/>
     <use xlink:href="#DejaVuSans-67" x="147.607422"/>
     <use xlink:href="#DejaVuSans-69" x="211.083984"/>
     <use xlink:href="#DejaVuSans-6e" x="238.867188"/>
     <use xlink:href="#DejaVuSans-61" x="302.246094"/>
     <use xlink:href="#DejaVuSans-6c" x="363.525391"/>
     <use xlink:href="#DejaVuSans-20" x="391.308594"/>
     <use xlink:href="#DejaVuSans-44" x="423.095703"/>
     <use xlink:href="#DejaVuSans-61" x="500.097656"/>
     <use xlink:href="#DejaVuSans-74" x="561.376953"/>
     <use xlink:href="#DejaVuSans-61" x="600.585938"/>
     <use xlink:href="#DejaVuSans-73" x="661.865234"/>
     <use xlink:href="#DejaVuSans-65" x="713.964844"/>
     <use xlink:href="#DejaVuSans-74" x="775.488281"/>
     <use xlink:href="#DejaVuSans-20" x="814.697266"/>
     <use xlink:href="#DejaVuSans-46" x="846.484375"/>
     <use xlink:href="#DejaVuSans-69" x="896.753906"/>
     <use xlink:href="#DejaVuSans-67" x="924.537109"/>
     <use xlink:href="#DejaVuSans-75" x="988.013672"/>
     <use xlink:href="#DejaVuSans-72" x="1051.392578"/>
     <use xlink:href="#DejaVuSans-65" x="1090.255859"/>
    </g>
   </g>
   <g id="legend_1">
    <g id="patch_7">
     <path d="M 481.090625 44.99625 
L 577.925 44.99625 
Q 579.925 44.99625 579.925 42.99625 
L 579.925 29.318125 
Q 579.925 27.318125 577.925 27.318125 
L 481.090625 27.318125 
Q 479.090625 27.318125 479.090625 29.318125 
L 479.090625 42.99625 
Q 479.090625 44.99625 481.090625 44.99625 
z
" style="fill: #ffffff; opacity: 0.8; stroke: #cccccc; stroke-linejoin: miter"/>
    </g>
    <g id="line2d_13">
     <path d="M 483.090625 35.416562 
L 493.090625 35.416562 
L 503.090625 35.416562 
" style="fill: none; stroke: #0c0c0c; stroke-width: 1.5; stroke-linecap: square"/>
    </g>
    <g id="text_14">
     <!-- Original data -->
     <g transform="translate(511.090625 38.916562) scale(0.1 -0.1)">
      <defs>
       <path id="DejaVuSans-64" d="M 2906 2969 
L 2906 4863 
L 3481 4863 
L 3481 0 
L 2906 0 
L 2906 525 
Q 2725 213 2448 61 
Q 2172 -91 1784 -91 
Q 1150 -91 751 415 
Q 353 922 353 1747 
Q 353 2572 751 3078 
Q 1150 3584 1784 3584 
Q 2172 3584 2448 3432 
Q 2725 3281 2906 2969 
z
M 947 1747 
Q 947 1113 1208 752 
Q 1469 391 1925 391 
Q 2381 391 2643 752 
Q 2906 1113 2906 1747 
Q 2906 2381 2643 2742 
Q 2381 3103 1925 3103 
Q 1469 3103 1208 2742 
Q 947 2381 947 1747 
z
" transform="scale(0.015625)"/>
      </defs>
      <use xlink:href="#DejaVuSans-4f"/>
      <use xlink:href="#DejaVuSans-72" x="78.710938"/>
      <use xlink:href="#DejaVuSans-69" x="119.824219"/>
      <use xlink:href="#DejaVuSans-67" x="147.607422"/>
      <use xlink:href="#DejaVuSans-69" x="211.083984"/>
      <use xlink:href="#DejaVuSans-6e" x="238.867188"/>
      <use xlink:href="#DejaVuSans-61" x="302.246094"/>
      <use xlink:href="#DejaVuSans-6c" x="363.525391"/>
      <use xlink:href="#DejaVuSans-20" x="391.308594"/>
      <use xlink:href="#DejaVuSans-64" x="423.095703"/>
      <use xlink:href="#DejaVuSans-61" x="486.572266"/>
      <use xlink:href="#DejaVuSans-74" x="547.851562"/>
      <use xlink:href="#DejaVuSans-61" x="587.060547"/>
     </g>
    </g>
   </g>
  </g>
 </g>
 <defs>
  <clipPath id="p395f9e3de3">
   <rect x="26.925" y="22.318125" width="558" height="195.84"/>
  </clipPath>
 </defs>
</svg>
