<?xml version="1.0" encoding="utf-8" standalone="no"?>
<!DOCTYPE svg PUBLIC "-//W3C//DTD SVG 1.1//EN"
  "http://www.w3.org/Graphics/SVG/1.1/DTD/svg11.dtd">
<svg xmlns:xlink="http://www.w3.org/1999/xlink" width="611.472991pt" height="261.631033pt" viewBox="0 0 611.472991 261.631033" xmlns="http://www.w3.org/2000/svg" version="1.1">
 <metadata>
  <rdf:RDF xmlns:dc="http://purl.org/dc/elements/1.1/" xmlns:cc="http://creativecommons.org/ns#" xmlns:rdf="http://www.w3.org/1999/02/22-rdf-syntax-ns#">
   <cc:Work>
    <dc:type rdf:resource="http://purl.org/dc/dcmitype/StillImage"/>
    <dc:date>2026-04-23T00:28:35.450391</dc:date>
    <dc:format>image/svg+xml</dc:format>
    <dc:creator>
     <cc:Agent>
      <dc:title>Matplotlib v3.7.5, https://matplotlib.org/</dc:title>
     </cc:Agent>
    </dc:creator>
   </cc:Work>
  </rdf:RDF>
 </metadata>
 <defs>
  <style type="text/css">*{stroke-linejoin: round; stroke-linecap: butt}</style>
 </defs>
 <g id="figure_1">
  <g id="patch_1">
   <path d="M 0 261.631033 
L 611.472991 261.631033 
L 611.472991 0 
L 0 0 
z
" style="fill: #ffffff"/>
  </g>
  <g id="axes_1">
   <g id="patch_2">
    <path d="M 46.272991 218.158125 
L 604.272991 218.158125 
L 604.272991 22.318125 
L 46.272991 22.318125 
z
" style="fill: #ffffff"/>
   </g>
   <g id="matplotlib.axis_1">
    <g id="xtick_1">
     <g id="line2d_1">
      <defs>
       <path id="m1b8f35247a" d="M 0 0 
L 0 3.5 
" style="stroke: #000000; stroke-width: 0.8"/>
      </defs>
      <g>
       <use xlink:href="#m1b8f35247a" x="48.22404" y="218.158125" style="stroke: #000000; stroke-width: 0.8"/>
      </g>
     </g>
     <g id="text_1">
      <!-- 2025-01 -->
      <g transform="translate(10.999219 252.629971) rotate(-30) scale(0.1 -0.1)">
       <defs>
        <path id="DejaVuSans-32" d="M 1228 531 
L 3431 531 
L 3431 0 
L 469 0 
L 469 531 
Q 828 903 1448 1529 
Q 2069 2156 2228 2338 
Q 2531 2678 2651 2914 
Q 2772 3150 2772 3378 
Q 2772 3750 2511 3984 
Q 2250 4219 1831 4219 
Q 1534 4219 1204 4116 
Q 875 4013 500 3803 
L 500 4441 
Q 881 4594 1212 4672 
Q 1544 4750 1819 4750 
Q 2544 4750 2975 4387 
Q 3406 4025 3406 3419 
Q 3406 3131 3298 2873 
Q 3191 2616 2906 2266 
Q 2828 2175 2409 1742 
Q 1991 1309 1228 531 
z
" transform="scale(0.015625)"/>
        <path id="DejaVuSans-30" d="M 2034 4250 
Q 1547 4250 1301 3770 
Q 1056 3291 1056 2328 
Q 1056 1369 1301 889 
Q 1547 409 2034 409 
Q 2525 409 2770 889 
Q 3016 1369 3016 2328 
Q 3016 3291 2770 3770 
Q 2525 4250 2034 4250 
z
M 2034 4750 
Q 2819 4750 3233 4129 
Q 3647 3509 3647 2328 
Q 3647 1150 3233 529 
Q 2819 -91 2034 -91 
Q 1250 -91 836 529 
Q 422 1150 422 2328 
Q 422 3509 836 4129 
Q 1250 4750 2034 4750 
z
" transform="scale(0.015625)"/>
        <path id="DejaVuSans-35" d="M 691 4666 
L 3169 4666 
L 3169 4134 
L 1269 4134 
L 1269 2991 
Q 1406 3038 1543 3061 
Q 1681 3084 1819 3084 
Q 2600 3084 3056 2656 
Q 3513 2228 3513 1497 
Q 3513 744 3044 326 
Q 2575 -91 1722 -91 
Q 1428 -91 1123 -41 
Q 819 9 494 109 
L 494 744 
Q 775 591 1075 516 
Q 1375 441 1709 441 
Q 2250 441 2565 725 
Q 2881 1009 2881 1497 
Q 2881 1984 2565 2268 
Q 2250 2553 1709 2553 
Q 1456 2553 1204 2497 
Q 953 2441 691 2322 
L 691 4666 
z
" transform="scale(0.015625)"/>
        <path id="DejaVuSans-2d" d="M 313 2009 
L 1997 2009 
L 1997 1497 
L 313 1497 
L 313 2009 
z
" transform="scale(0.015625)"/>
        <path id="DejaVuSans-31" d="M 794 531 
L 1825 531 
L 1825 4091 
L 703 3866 
L 703 4441 
L 1819 4666 
L 2450 4666 
L 2450 531 
L 3481 531 
L 3481 0 
L 794 0 
L 794 531 
z
" transform="scale(0.015625)"/>
       </defs>
       <use xlink:href="#DejaVuSans-32"/>
       <use xlink:href="#DejaVuSans-30" x="63.623047"/>
       <use xlink:href="#DejaVuSans-32" x="127.246094"/>
       <use xlink:href="#DejaVuSans-35" x="190.869141"/>
       <use xlink:href="#DejaVuSans-2d" x="254.492188"/>
       <use xlink:href="#DejaVuSans-30" x="290.576172"/>
       <use xlink:href="#DejaVuSans-31" x="354.199219"/>
      </g>
     </g>
    </g>
    <g id="xtick_2">
     <g id="line2d_2">
      <g>
       <use xlink:href="#m1b8f35247a" x="114.002261" y="218.158125" style="stroke: #000000; stroke-width: 0.8"/>
      </g>
     </g>
     <g id="text_2">
      <!-- 2025-03 -->
      <g transform="translate(76.777441 252.629971) rotate(-30) scale(0.1 -0.1)">
       <defs>
        <path id="DejaVuSans-33" d="M 2597 2516 
Q 3050 2419 3304 2112 
Q 3559 1806 3559 1356 
Q 3559 666 3084 287 
Q 2609 -91 1734 -91 
Q 1441 -91 1130 -33 
Q 819 25 488 141 
L 488 750 
Q 750 597 1062 519 
Q 1375 441 1716 441 
Q 2309 441 2620 675 
Q 2931 909 2931 1356 
Q 2931 1769 2642 2001 
Q 2353 2234 1838 2234 
L 1294 2234 
L 1294 2753 
L 1863 2753 
Q 2328 2753 2575 2939 
Q 2822 3125 2822 3475 
Q 2822 3834 2567 4026 
Q 2313 4219 1838 4219 
Q 1578 4219 1281 4162 
Q 984 4106 628 3988 
L 628 4550 
Q 988 4650 1302 4700 
Q 1616 4750 1894 4750 
Q 2613 4750 3031 4423 
Q 3450 4097 3450 3541 
Q 3450 3153 3228 2886 
Q 3006 2619 2597 2516 
z
" transform="scale(0.015625)"/>
       </defs>
       <use xlink:href="#DejaVuSans-32"/>
       <use xlink:href="#DejaVuSans-30" x="63.623047"/>
       <use xlink:href="#DejaVuSans-32" x="127.246094"/>
       <use xlink:href="#DejaVuSans-35" x="190.869141"/>
       <use xlink:href="#DejaVuSans-2d" x="254.492188"/>
       <use xlink:href="#DejaVuSans-30" x="290.576172"/>
       <use xlink:href="#DejaVuSans-33" x="354.199219"/>
      </g>
     </g>
    </g>
    <g id="xtick_3">
     <g id="line2d_3">
      <g>
       <use xlink:href="#m1b8f35247a" x="182.010253" y="218.158125" style="stroke: #000000; stroke-width: 0.8"/>
      </g>
     </g>
     <g id="text_3">
      <!-- 2025-05 -->
      <g transform="translate(144.785433 252.629971) rotate(-30) scale(0.1 -0.1)">
       <use xlink:href="#DejaVuSans-32"/>
       <use xlink:href="#DejaVuSans-30" x="63.623047"/>
       <use xlink:href="#DejaVuSans-32" x="127.246094"/>
       <use xlink:href="#DejaVuSans-35" x="190.869141"/>
       <use xlink:href="#DejaVuSans-2d" x="254.492188"/>
       <use xlink:href="#DejaVuSans-30" x="290.576172"/>
       <use xlink:href="#DejaVuSans-35" x="354.199219"/>
      </g>
     </g>
    </g>
    <g id="xtick_4">
     <g id="line2d_4">
      <g>
       <use xlink:href="#m1b8f35247a" x="250.018245" y="218.158125" style="stroke: #000000; stroke-width: 0.8"/>
      </g>
     </g>
     <g id="text_4">
      <!-- 2025-07 -->
      <g transform="translate(212.793425 252.629971) rotate(-30) scale(0.1 -0.1)">
       <defs>
        <path id="DejaVuSans-37" d="M 525 4666 
L 3525 4666 
L 3525 4397 
L 1831 0 
L 1172 0 
L 2766 4134 
L 525 4134 
L 525 4666 
z
" transform="scale(0.015625)"/>
       </defs>
       <use xlink:href="#DejaVuSans-32"/>
       <use xlink:href="#DejaVuSans-30" x="63.623047"/>
       <use xlink:href="#DejaVuSans-32" x="127.246094"/>
       <use xlink:href="#DejaVuSans-35" x="190.869141"/>
       <use xlink:href="#DejaVuSans-2d" x="254.492188"/>
       <use xlink:href="#DejaVuSans-30" x="290.576172"/>
       <use xlink:href="#DejaVuSans-37" x="354.199219"/>
      </g>
     </g>
    </g>
    <g id="xtick_5">
     <g id="line2d_5">
      <g>
       <use xlink:href="#m1b8f35247a" x="319.141122" y="218.158125" style="stroke: #000000; stroke-width: 0.8"/>
      </g>
     </g>
     <g id="text_5">
      <!-- 2025-09 -->
      <g transform="translate(281.916302 252.629971) rotate(-30) scale(0.1 -0.1)">
       <defs>
        <path id="DejaVuSans-39" d="M 703 97 
L 703 672 
Q 941 559 1184 500 
Q 1428 441 1663 441 
Q 2288 441 2617 861 
Q 2947 1281 2994 2138 
Q 2813 1869 2534 1725 
Q 2256 1581 1919 1581 
Q 1219 1581 811 2004 
Q 403 2428 403 3163 
Q 403 3881 828 4315 
Q 1253 4750 1959 4750 
Q 2769 4750 3195 4129 
Q 3622 3509 3622 2328 
Q 3622 1225 3098 567 
Q 2575 -91 1691 -91 
Q 1453 -91 1209 -44 
Q 966 3 703 97 
z
M 1959 2075 
Q 2384 2075 2632 2365 
Q 2881 2656 2881 3163 
Q 2881 3666 2632 3958 
Q 2384 4250 1959 4250 
Q 1534 4250 1286 3958 
Q 1038 3666 1038 3163 
Q 1038 2656 1286 2365 
Q 1534 2075 1959 2075 
z
" transform="scale(0.015625)"/>
       </defs>
       <use xlink:href="#DejaVuSans-32"/>
       <use xlink:href="#DejaVuSans-30" x="63.623047"/>
       <use xlink:href="#DejaVuSans-32" x="127.246094"/>
       <use xlink:href="#DejaVuSans-35" x="190.869141"/>
       <use xlink:href="#DejaVuSans-2d" x="254.492188"/>
       <use xlink:href="#DejaVuSans-30" x="290.576172"/>
       <use xlink:href="#DejaVuSans-39" x="354.199219"/>
      </g>
     </g>
    </g>
    <g id="xtick_6">
     <g id="line2d_6">
      <g>
       <use xlink:href="#m1b8f35247a" x="387.149114" y="218.158125" style="stroke: #000000; stroke-width: 0.8"/>
      </g>
     </g>
     <g id="text_6">
      <!-- 2025-11 -->
      <g transform="translate(349.924294 252.629971) rotate(-30) scale(0.1 -0.1)">
       <use xlink:href="#DejaVuSans-32"/>
       <use xlink:href="#DejaVuSans-30" x="63.623047"/>
       <use xlink:href="#DejaVuSans-32" x="127.246094"/>
       <use xlink:href="#DejaVuSans-35" x="190.869141"/>
       <use xlink:href="#DejaVuSans-2d" x="254.492188"/>
       <use xlink:href="#DejaVuSans-31" x="290.576172"/>
       <use xlink:href="#DejaVuSans-31" x="354.199219"/>
      </g>
     </g>
    </g>
    <g id="xtick_7">
     <g id="line2d_7">
      <g>
       <use xlink:href="#m1b8f35247a" x="455.157106" y="218.158125" style="stroke: #000000; stroke-width: 0.8"/>
      </g>
     </g>
     <g id="text_7">
      <!-- 2026-01 -->
      <g transform="translate(417.932286 252.629971) rotate(-30) scale(0.1 -0.1)">
       <defs>
        <path id="DejaVuSans-36" d="M 2113 2584 
Q 1688 2584 1439 2293 
Q 1191 2003 1191 1497 
Q 1191 994 1439 701 
Q 1688 409 2113 409 
Q 2538 409 2786 701 
Q 3034 994 3034 1497 
Q 3034 2003 2786 2293 
Q 2538 2584 2113 2584 
z
M 3366 4563 
L 3366 3988 
Q 3128 4100 2886 4159 
Q 2644 4219 2406 4219 
Q 1781 4219 1451 3797 
Q 1122 3375 1075 2522 
Q 1259 2794 1537 2939 
Q 1816 3084 2150 3084 
Q 2853 3084 3261 2657 
Q 3669 2231 3669 1497 
Q 3669 778 3244 343 
Q 2819 -91 2113 -91 
Q 1303 -91 875 529 
Q 447 1150 447 2328 
Q 447 3434 972 4092 
Q 1497 4750 2381 4750 
Q 2619 4750 2861 4703 
Q 3103 4656 3366 4563 
z
" transform="scale(0.015625)"/>
       </defs>
       <use xlink:href="#DejaVuSans-32"/>
       <use xlink:href="#DejaVuSans-30" x="63.623047"/>
       <use xlink:href="#DejaVuSans-32" x="127.246094"/>
       <use xlink:href="#DejaVuSans-36" x="190.869141"/>
       <use xlink:href="#DejaVuSans-2d" x="254.492188"/>
       <use xlink:href="#DejaVuSans-30" x="290.576172"/>
       <use xlink:href="#DejaVuSans-31" x="354.199219"/>
      </g>
     </g>
    </g>
    <g id="xtick_8">
     <g id="line2d_8">
      <g>
       <use xlink:href="#m1b8f35247a" x="520.935328" y="218.158125" style="stroke: #000000; stroke-width: 0.8"/>
      </g>
     </g>
     <g id="text_8">
      <!-- 2026-03 -->
      <g transform="translate(483.710507 252.629971) rotate(-30) scale(0.1 -0.1)">
       <use xlink:href="#DejaVuSans-32"/>
       <use xlink:href="#DejaVuSans-30" x="63.623047"/>
       <use xlink:href="#DejaVuSans-32" x="127.246094"/>
       <use xlink:href="#DejaVuSans-36" x="190.869141"/>
       <use xlink:href="#DejaVuSans-2d" x="254.492188"/>
       <use xlink:href="#DejaVuSans-30" x="290.576172"/>
       <use xlink:href="#DejaVuSans-33" x="354.199219"/>
      </g>
     </g>
    </g>
    <g id="xtick_9">
     <g id="line2d_9">
      <g>
       <use xlink:href="#m1b8f35247a" x="588.94332" y="218.158125" style="stroke: #000000; stroke-width: 0.8"/>
      </g>
     </g>
     <g id="text_9">
      <!-- 2026-05 -->
      <g transform="translate(551.718499 252.629971) rotate(-30) scale(0.1 -0.1)">
       <use xlink:href="#DejaVuSans-32"/>
       <use xlink:href="#DejaVuSans-30" x="63.623047"/>
       <use xlink:href="#DejaVuSans-32" x="127.246094"/>
       <use xlink:href="#DejaVuSans-36" x="190.869141"/>
       <use xlink:href="#DejaVuSans-2d" x="254.492188"/>
       <use xlink:href="#DejaVuSans-30" x="290.576172"/>
       <use xlink:href="#DejaVuSans-35" x="354.199219"/>
      </g>
     </g>
    </g>
   </g>
   <g id="matplotlib.axis_2">
    <g id="ytick_1">
     <g id="line2d_10">
      <defs>
       <path id="md29e7affa1" d="M 0 0 
L -3.5 0 
" style="stroke: #000000; stroke-width: 0.8"/>
      </defs>
      <g>
       <use xlink:href="#md29e7affa1" x="46.272991" y="215.122639" style="stroke: #000000; stroke-width: 0.8"/>
      </g>
     </g>
     <g id="text_10">
      <!-- 30 -->
      <g transform="translate(26.547991 218.921858) scale(0.1 -0.1)">
       <use xlink:href="#DejaVuSans-33"/>
       <use xlink:href="#DejaVuSans-30" x="63.623047"/>
      </g>
     </g>
    </g>
    <g id="ytick_2">
     <g id="line2d_11">
      <g>
       <use xlink:href="#md29e7affa1" x="46.272991" y="187.837373" style="stroke: #000000; stroke-width: 0.8"/>
      </g>
     </g>
     <g id="text_11">
      <!-- 32 -->
      <g transform="translate(26.547991 191.636591) scale(0.1 -0.1)">
       <use xlink:href="#DejaVuSans-33"/>
       <use xlink:href="#DejaVuSans-32" x="63.623047"/>
      </g>
     </g>
    </g>
    <g id="ytick_3">
     <g id="line2d_12">
      <g>
       <use xlink:href="#md29e7affa1" x="46.272991" y="160.552106" style="stroke: #000000; stroke-width: 0.8"/>
      </g>
     </g>
     <g id="text_12">
      <!-- 34 -->
      <g transform="translate(26.547991 164.351325) scale(0.1 -0.1)">
       <defs>
        <path id="DejaVuSans-34" d="M 2419 4116 
L 825 1625 
L 2419 1625 
L 2419 4116 
z
M 2253 4666 
L 3047 4666 
L 3047 1625 
L 3713 1625 
L 3713 1100 
L 3047 1100 
L 3047 0 
L 2419 0 
L 2419 1100 
L 313 1100 
L 313 1709 
L 2253 4666 
z
" transform="scale(0.015625)"/>
       </defs>
       <use xlink:href="#DejaVuSans-33"/>
       <use xlink:href="#DejaVuSans-34" x="63.623047"/>
      </g>
     </g>
    </g>
    <g id="ytick_4">
     <g id="line2d_13">
      <g>
       <use xlink:href="#md29e7affa1" x="46.272991" y="133.26684" style="stroke: #000000; stroke-width: 0.8"/>
      </g>
     </g>
     <g id="text_13">
      <!-- 36 -->
      <g transform="translate(26.547991 137.066058) scale(0.1 -0.1)">
       <use xlink:href="#DejaVuSans-33"/>
       <use xlink:href="#DejaVuSans-36" x="63.623047"/>
      </g>
     </g>
    </g>
    <g id="ytick_5">
     <g id="line2d_14">
      <g>
       <use xlink:href="#md29e7affa1" x="46.272991" y="105.981573" style="stroke: #000000; stroke-width: 0.8"/>
      </g>
     </g>
     <g id="text_14">
      <!-- 38 -->
      <g transform="translate(26.547991 109.780792) scale(0.1 -0.1)">
       <defs>
        <path id="DejaVuSans-38" d="M 2034 2216 
Q 1584 2216 1326 1975 
Q 1069 1734 1069 1313 
Q 1069 891 1326 650 
Q 1584 409 2034 409 
Q 2484 409 2743 651 
Q 3003 894 3003 1313 
Q 3003 1734 2745 1975 
Q 2488 2216 2034 2216 
z
M 1403 2484 
Q 997 2584 770 2862 
Q 544 3141 544 3541 
Q 544 4100 942 4425 
Q 1341 4750 2034 4750 
Q 2731 4750 3128 4425 
Q 3525 4100 3525 3541 
Q 3525 3141 3298 2862 
Q 3072 2584 2669 2484 
Q 3125 2378 3379 2068 
Q 3634 1759 3634 1313 
Q 3634 634 3220 271 
Q 2806 -91 2034 -91 
Q 1263 -91 848 271 
Q 434 634 434 1313 
Q 434 1759 690 2068 
Q 947 2378 1403 2484 
z
M 1172 3481 
Q 1172 3119 1398 2916 
Q 1625 2713 2034 2713 
Q 2441 2713 2670 2916 
Q 2900 3119 2900 3481 
Q 2900 3844 2670 4047 
Q 2441 4250 2034 4250 
Q 1625 4250 1398 4047 
Q 1172 3844 1172 3481 
z
" transform="scale(0.015625)"/>
       </defs>
       <use xlink:href="#DejaVuSans-33"/>
       <use xlink:href="#DejaVuSans-38" x="63.623047"/>
      </g>
     </g>
    </g>
    <g id="ytick_6">
     <g id="line2d_15">
      <g>
       <use xlink:href="#md29e7affa1" x="46.272991" y="78.696307" style="stroke: #000000; stroke-width: 0.8"/>
      </g>
     </g>
     <g id="text_15">
      <!-- 40 -->
      <g transform="translate(26.547991 82.495526) scale(0.1 -0.1)">
       <use xlink:href="#DejaVuSans-34"/>
       <use xlink:href="#DejaVuSans-30" x="63.623047"/>
      </g>
     </g>
    </g>
    <g id="ytick_7">
     <g id="line2d_16">
      <g>
       <use xlink:href="#md29e7affa1" x="46.272991" y="51.41104" style="stroke: #000000; stroke-width: 0.8"/>
      </g>
     </g>
     <g id="text_16">
      <!-- 42 -->
      <g transform="translate(26.547991 55.210259) scale(0.1 -0.1)">
       <use xlink:href="#DejaVuSans-34"/>
       <use xlink:href="#DejaVuSans-32" x="63.623047"/>
      </g>
     </g>
    </g>
    <g id="ytick_8">
     <g id="line2d_17">
      <g>
       <use xlink:href="#md29e7affa1" x="46.272991" y="24.125774" style="stroke: #000000; stroke-width: 0.8"/>
      </g>
     </g>
     <g id="text_17">
      <!-- 44 -->
      <g transform="translate(26.547991 27.924993) scale(0.1 -0.1)">
       <use xlink:href="#DejaVuSans-34"/>
       <use xlink:href="#DejaVuSans-34" x="63.623047"/>
      </g>
     </g>
    </g>
   </g>
   <g id="line2d_18">
    <path d="M 71.636627 108.164395 
L 72.751512 109.665084 
L 77.211053 81.970539 
L 87.245019 31.219943 
L 88.359904 89.610413 
L 89.474789 68.191479 
L 92.819444 87.291166 
L 93.934329 75.558501 
L 95.049214 85.517623 
L 96.1641 98.614551 
L 97.278985 83.880507 
L 100.62364 78.969159 
L 101.738525 95.203893 
L 102.85341 88.791855 
L 103.968295 88.791855 
L 105.08318 91.929661 
L 108.427836 96.568156 
L 109.542721 82.516244 
L 110.657606 102.843768 
L 111.772491 94.658188 
L 112.887376 103.935178 
L 116.232032 103.253047 
L 117.346917 103.253047 
L 118.461802 94.794614 
L 119.576687 103.11662 
L 120.691572 102.434489 
L 124.036227 103.253047 
L 125.151112 101.888783 
L 126.265998 103.935178 
L 127.380883 93.021072 
L 128.495768 94.385335 
L 131.840423 94.385335 
L 132.955308 95.340319 
L 134.070193 99.569536 
L 136.299964 91.656808 
L 139.644619 98.205272 
L 140.759504 98.614551 
L 141.874389 101.615931 
L 142.989274 101.206652 
L 144.104159 96.022451 
L 147.448815 97.795993 
L 148.5637 101.615931 
L 149.678585 100.251667 
L 150.79347 91.111103 
L 155.253011 98.614551 
L 156.367896 98.341699 
L 157.482781 101.343078 
L 158.597666 97.795993 
L 159.712551 100.797373 
L 164.172092 105.845147 
L 166.401862 105.572294 
L 167.516747 106.118 
L 170.861402 98.478125 
L 171.976287 111.165774 
L 173.091172 101.888783 
L 174.206058 115.940696 
L 175.320943 114.576432 
L 178.665598 91.111103 
L 179.780483 115.667843 
L 180.895368 65.053674 
L 187.584679 65.599379 
L 188.699564 66.008658 
L 189.814449 102.161636 
L 190.929334 67.7822 
L 194.27399 67.7822 
L 195.388875 105.572294 
L 196.50376 97.93242 
L 197.618645 104.753736 
L 198.73353 66.69079 
L 202.078185 105.299442 
L 203.193071 92.33894 
L 204.307956 92.33894 
L 205.422841 85.381197 
L 206.537726 92.066087 
L 209.882381 91.793235 
L 210.997266 92.33894 
L 212.112151 96.977435 
L 213.227037 72.693548 
L 214.341922 72.693548 
L 218.801462 78.287028 
L 219.916347 99.02383 
L 221.031232 94.385335 
L 222.146117 81.970539 
L 225.490773 103.798752 
L 226.605658 78.014175 
L 227.720543 86.199755 
L 228.835428 92.33894 
L 229.950313 93.021072 
L 233.294969 73.784959 
L 234.409854 90.974677 
L 235.524739 92.33894 
L 236.639624 78.832733 
L 237.754509 87.564018 
L 241.099164 87.564018 
L 242.21405 94.521761 
L 243.328935 105.708721 
L 244.44382 87.836871 
L 245.558705 65.053674 
L 248.90336 65.053674 
L 250.018245 87.836871 
L 251.13313 78.969159 
L 252.248016 87.427592 
L 253.362901 99.433109 
L 256.707556 92.066087 
L 257.822441 98.205272 
L 258.937326 95.203893 
L 260.052211 54.548846 
L 261.167097 54.548846 
L 264.511752 94.385335 
L 265.626637 92.33894 
L 266.741522 97.795993 
L 267.856407 97.795993 
L 268.971292 45.817561 
L 272.315948 45.817561 
L 273.430833 90.565398 
L 274.545718 95.340319 
L 275.660603 91.793235 
L 276.775488 51.547467 
L 280.120143 78.832733 
L 281.235029 91.656808 
L 282.349914 77.741322 
L 283.464799 67.236495 
L 284.579684 59.59662 
L 287.924339 74.057812 
L 289.039224 57.823078 
L 290.154109 66.963642 
L 291.268995 42.406902 
L 295.728535 42.406902 
L 296.84342 83.198376 
L 297.958305 51.956746 
L 299.07319 60.415178 
L 300.188076 98.887404 
L 303.532731 51.547467 
L 304.647616 90.701824 
L 305.762501 92.202514 
L 306.877386 92.066087 
L 307.992271 101.479504 
L 311.336927 99.02383 
L 312.451812 78.969159 
L 313.566697 74.057812 
L 314.681582 45.953987 
L 315.796467 45.953987 
L 319.141122 99.02383 
L 320.256008 99.160257 
L 321.370893 83.471228 
L 322.485778 47.181824 
L 323.600663 102.843768 
L 326.945318 79.378438 
L 328.060203 65.053674 
L 329.175089 52.91173 
L 330.289974 52.91173 
L 331.404859 54.821699 
L 334.749514 54.821699 
L 335.864399 80.606275 
L 336.979284 96.43173 
L 338.094169 94.521761 
L 339.209055 94.521761 
L 342.55371 99.02383 
L 343.668595 101.070225 
L 345.898365 191.930163 
L 347.01325 148.683015 
L 350.357906 117.168533 
L 351.472791 67.918627 
L 361.506757 50.046777 
L 362.621642 92.33894 
L 365.966297 94.794614 
L 367.081182 93.976056 
L 368.196068 79.105586 
L 369.310953 74.603517 
L 370.425838 103.798752 
L 373.770493 72.693548 
L 374.885378 66.281511 
L 376.000263 72.557122 
L 377.115148 76.649912 
L 378.230034 79.242012 
L 381.574689 102.02521 
L 382.689574 53.048156 
L 383.804459 92.475366 
L 384.919344 90.292545 
L 386.034229 84.971918 
L 389.378885 90.701824 
L 390.49377 77.46847 
L 391.608655 75.558501 
L 392.72354 81.151981 
L 393.838425 51.547467 
L 397.183081 76.649912 
L 398.297966 64.780821 
L 400.527736 98.887404 
L 401.642621 96.158877 
L 404.987276 113.757874 
L 406.102161 163.553486 
L 408.331932 75.285649 
L 409.446817 70.920006 
L 412.791472 68.327906 
L 413.906357 90.292545 
L 415.021242 93.83963 
L 416.136127 92.748219 
L 417.251013 96.158877 
L 420.595668 96.43173 
L 421.710553 122.762012 
L 422.825438 120.715617 
L 423.940323 125.217686 
L 425.055208 135.85894 
L 428.399864 150.456558 
L 429.514749 183.062451 
L 430.629634 183.335304 
L 431.744519 150.592984 
L 432.859404 164.781322 
L 436.20406 172.421197 
L 438.43383 202.571417 
L 439.548715 199.024332 
L 440.6636 209.256307 
L 444.008255 196.432232 
L 445.12314 199.706464 
L 446.238026 200.115743 
L 447.352911 200.252169 
L 448.467796 204.617812 
L 451.812451 192.339442 
L 452.927336 176.650413 
L 454.042221 163.689912 
L 459.616647 180.470351 
L 460.731532 178.423956 
L 461.846417 138.041761 
L 462.961302 173.376181 
L 464.076187 153.185084 
L 467.420843 140.633862 
L 468.535728 120.306338 
L 469.650613 133.403266 
L 470.765498 174.194739 
L 471.880383 171.602639 
L 475.225039 173.512608 
L 476.339924 177.741824 
L 477.454809 135.176808 
L 478.569694 173.512608 
L 479.684579 178.287529 
L 483.029234 177.87825 
L 484.144119 171.602639 
L 485.259005 133.403266 
L 486.37389 177.196119 
L 487.488775 145.954489 
L 490.83343 154.140069 
L 491.948315 158.232859 
L 493.0632 156.459316 
L 494.178086 139.95173 
L 495.292971 139.406025 
L 498.637626 124.262702 
L 499.752511 151.411542 
L 500.867396 121.534175 
L 501.982281 96.704583 
L 503.097166 145.54521 
L 515.360903 130.811166 
L 516.475788 119.897059 
L 517.590673 124.808407 
L 518.705558 123.716996 
L 522.050213 124.671981 
L 523.165099 106.936558 
L 524.279984 148.683015 
L 525.394869 171.602639 
L 526.509754 126.718376 
L 529.854409 85.65405 
L 530.969294 85.65405 
L 532.084179 75.96778 
L 533.199065 120.306338 
L 534.31395 92.884645 
L 537.658605 105.163015 
L 538.77349 107.482263 
L 539.888375 107.20941 
L 541.00326 105.572294 
L 542.118145 105.435868 
L 545.462801 110.074363 
L 546.577686 99.160257 
L 547.692571 119.624207 
L 548.807456 89.064708 
L 549.922341 103.525899 
L 553.266997 88.24615 
L 555.496767 88.791855 
L 556.611652 105.981573 
L 557.726537 90.974677 
L 562.186078 118.942075 
L 563.300963 106.254426 
L 564.415848 111.438627 
L 565.530733 113.621448 
L 568.875388 79.378438 
L 569.990273 93.703203 
L 578.909354 93.703203 
L 578.909354 93.703203 
" clip-path="url(#p80d8676ffe)" style="fill: none; stroke: #0070c0; stroke-width: 1.5; stroke-linecap: square"/>
   </g>
   <g id="line2d_19">
    <path d="M 409.446817 72.889299 
L 412.791472 71.113972 
L 413.906357 65.345996 
L 415.021242 79.792791 
L 416.136127 89.382613 
L 417.251013 99.353699 
L 420.595668 107.315475 
L 421.710553 112.116865 
L 422.825438 113.804708 
L 423.940323 126.755176 
L 425.055208 136.824362 
L 428.399864 157.025601 
L 429.514749 172.254646 
L 430.629634 177.061189 
L 431.744519 167.97415 
L 432.859404 155.720843 
L 436.20406 170.165139 
L 437.318945 187.504665 
L 438.43383 192.342173 
L 439.548715 199.983758 
L 440.6636 207.125656 
L 444.008255 203.676148 
L 445.12314 195.102716 
L 446.238026 199.11064 
L 447.352911 205.814835 
L 448.467796 203.805057 
L 451.812451 194.47131 
L 452.927336 190.581653 
L 454.042221 183.684536 
L 459.616647 175.217167 
L 460.731532 167.238529 
L 461.846417 161.755902 
L 462.961302 154.367634 
L 464.076187 165.284488 
L 467.420843 141.152842 
L 468.535728 135.681196 
L 469.650613 138.029979 
L 470.765498 157.998224 
L 471.880383 180.939033 
L 475.225039 197.786705 
L 476.339924 174.481962 
L 477.454809 153.284577 
L 478.569694 149.847481 
L 479.684579 177.803211 
L 483.029234 186.30368 
L 484.144119 161.867325 
L 485.259005 149.600331 
L 486.37389 157.922034 
L 487.488775 169.649502 
L 490.83343 156.71803 
L 491.948315 157.500645 
L 493.0632 150.410425 
L 494.178086 148.654406 
L 495.292971 144.001545 
L 498.637626 117.157287 
L 499.752511 146.479602 
L 500.867396 135.125642 
L 501.982281 108.649325 
L 503.097166 113.868773 
L 515.360903 136.038416 
L 516.475788 140.314021 
L 517.590673 133.740999 
L 518.705558 110.704692 
L 522.050213 95.236771 
L 523.165099 109.934306 
L 524.279984 131.447746 
L 525.394869 154.060739 
L 526.509754 147.759692 
L 529.854409 105.834137 
L 530.969294 66.5398 
L 532.084179 61.762401 
L 533.199065 108.5213 
L 534.31395 105.582043 
L 537.658605 86.324178 
L 538.77349 94.662794 
L 539.888375 94.794878 
L 541.00326 107.254689 
L 542.118145 109.094548 
L 545.462801 100.396943 
L 546.577686 92.340918 
L 547.692571 112.748505 
L 548.807456 103.689985 
L 549.922341 80.347147 
L 553.266997 96.813451 
L 554.381882 88.684098 
L 555.496767 89.108401 
L 556.611652 99.344487 
L 557.726537 92.050312 
L 562.186078 101.453094 
L 563.300963 115.590859 
L 564.415848 113.912957 
L 565.530733 108.318282 
L 568.875388 93.578801 
L 569.990273 79.708586 
L 571.105158 86.664901 
L 572.220044 91.173084 
L 573.334929 96.051549 
L 576.679584 98.467415 
L 577.794469 98.107176 
L 578.909354 95.631202 
" clip-path="url(#p80d8676ffe)" style="fill: none; stroke: #f27f19; stroke-width: 1.5; stroke-linecap: square"/>
   </g>
   <g id="patch_3">
    <path d="M 46.272991 218.158125 
L 46.272991 22.318125 
" style="fill: none; stroke: #000000; stroke-width: 0.8; stroke-linejoin: miter; stroke-linecap: square"/>
   </g>
   <g id="patch_4">
    <path d="M 604.272991 218.158125 
L 604.272991 22.318125 
" style="fill: none; stroke: #000000; stroke-width: 0.8; stroke-linejoin: miter; stroke-linecap: square"/>
   </g>
   <g id="patch_5">
    <path d="M 46.272991 218.158125 
L 604.272991 218.158125 
" style="fill: none; stroke: #000000; stroke-width: 0.8; stroke-linejoin: miter; stroke-linecap: square"/>
   </g>
   <g id="patch_6">
    <path d="M 46.272991 22.318125 
L 604.272991 22.318125 
" style="fill: none; stroke: #000000; stroke-width: 0.8; stroke-linejoin: miter; stroke-linecap: square"/>
   </g>
   <g id="text_18">
    <!-- Respective LSTM forecasting results -->
    <g transform="translate(217.144553 16.318125) scale(0.12 -0.12)">
     <defs>
      <path id="DejaVuSans-52" d="M 2841 2188 
Q 3044 2119 3236 1894 
Q 3428 1669 3622 1275 
L 4263 0 
L 3584 0 
L 2988 1197 
Q 2756 1666 2539 1819 
Q 2322 1972 1947 1972 
L 1259 1972 
L 1259 0 
L 628 0 
L 628 4666 
L 2053 4666 
Q 2853 4666 3247 4331 
Q 3641 3997 3641 3322 
Q 3641 2881 3436 2590 
Q 3231 2300 2841 2188 
z
M 1259 4147 
L 1259 2491 
L 2053 2491 
Q 2509 2491 2742 2702 
Q 2975 2913 2975 3322 
Q 2975 3731 2742 3939 
Q 2509 4147 2053 4147 
L 1259 4147 
z
" transform="scale(0.015625)"/>
      <path id="DejaVuSans-65" d="M 3597 1894 
L 3597 1613 
L 953 1613 
Q 991 1019 1311 708 
Q 1631 397 2203 397 
Q 2534 397 2845 478 
Q 3156 559 3463 722 
L 3463 178 
Q 3153 47 2828 -22 
Q 2503 -91 2169 -91 
Q 1331 -91 842 396 
Q 353 884 353 1716 
Q 353 2575 817 3079 
Q 1281 3584 2069 3584 
Q 2775 3584 3186 3129 
Q 3597 2675 3597 1894 
z
M 3022 2063 
Q 3016 2534 2758 2815 
Q 2500 3097 2075 3097 
Q 1594 3097 1305 2825 
Q 1016 2553 972 2059 
L 3022 2063 
z
" transform="scale(0.015625)"/>
      <path id="DejaVuSans-73" d="M 2834 3397 
L 2834 2853 
Q 2591 2978 2328 3040 
Q 2066 3103 1784 3103 
Q 1356 3103 1142 2972 
Q 928 2841 928 2578 
Q 928 2378 1081 2264 
Q 1234 2150 1697 2047 
L 1894 2003 
Q 2506 1872 2764 1633 
Q 3022 1394 3022 966 
Q 3022 478 2636 193 
Q 2250 -91 1575 -91 
Q 1294 -91 989 -36 
Q 684 19 347 128 
L 347 722 
Q 666 556 975 473 
Q 1284 391 1588 391 
Q 1994 391 2212 530 
Q 2431 669 2431 922 
Q 2431 1156 2273 1281 
Q 2116 1406 1581 1522 
L 1381 1569 
Q 847 1681 609 1914 
Q 372 2147 372 2553 
Q 372 3047 722 3315 
Q 1072 3584 1716 3584 
Q 2034 3584 2315 3537 
Q 2597 3491 2834 3397 
z
" transform="scale(0.015625)"/>
      <path id="DejaVuSans-70" d="M 1159 525 
L 1159 -1331 
L 581 -1331 
L 581 3500 
L 1159 3500 
L 1159 2969 
Q 1341 3281 1617 3432 
Q 1894 3584 2278 3584 
Q 2916 3584 3314 3078 
Q 3713 2572 3713 1747 
Q 3713 922 3314 415 
Q 2916 -91 2278 -91 
Q 1894 -91 1617 61 
Q 1341 213 1159 525 
z
M 3116 1747 
Q 3116 2381 2855 2742 
Q 2594 3103 2138 3103 
Q 1681 3103 1420 2742 
Q 1159 2381 1159 1747 
Q 1159 1113 1420 752 
Q 1681 391 2138 391 
Q 2594 391 2855 752 
Q 3116 1113 3116 1747 
z
" transform="scale(0.015625)"/>
      <path id="DejaVuSans-63" d="M 3122 3366 
L 3122 2828 
Q 2878 2963 2633 3030 
Q 2388 3097 2138 3097 
Q 1578 3097 1268 2742 
Q 959 2388 959 1747 
Q 959 1106 1268 751 
Q 1578 397 2138 397 
Q 2388 397 2633 464 
Q 2878 531 3122 666 
L 3122 134 
Q 2881 22 2623 -34 
Q 2366 -91 2075 -91 
Q 1284 -91 818 406 
Q 353 903 353 1747 
Q 353 2603 823 3093 
Q 1294 3584 2113 3584 
Q 2378 3584 2631 3529 
Q 2884 3475 3122 3366 
z
" transform="scale(0.015625)"/>
      <path id="DejaVuSans-74" d="M 1172 4494 
L 1172 3500 
L 2356 3500 
L 2356 3053 
L 1172 3053 
L 1172 1153 
Q 1172 725 1289 603 
Q 1406 481 1766 481 
L 2356 481 
L 2356 0 
L 1766 0 
Q 1100 0 847 248 
Q 594 497 594 1153 
L 594 3053 
L 172 3053 
L 172 3500 
L 594 3500 
L 594 4494 
L 1172 4494 
z
" transform="scale(0.015625)"/>
      <path id="DejaVuSans-69" d="M 603 3500 
L 1178 3500 
L 1178 0 
L 603 0 
L 603 3500 
z
M 603 4863 
L 1178 4863 
L 1178 4134 
L 603 4134 
L 603 4863 
z
" transform="scale(0.015625)"/>
      <path id="DejaVuSans-76" d="M 191 3500 
L 800 3500 
L 1894 563 
L 2988 3500 
L 3597 3500 
L 2284 0 
L 1503 0 
L 191 3500 
z
" transform="scale(0.015625)"/>
      <path id="DejaVuSans-20" transform="scale(0.015625)"/>
      <path id="DejaVuSans-4c" d="M 628 4666 
L 1259 4666 
L 1259 531 
L 3531 531 
L 3531 0 
L 628 0 
L 628 4666 
z
" transform="scale(0.015625)"/>
      <path id="DejaVuSans-53" d="M 3425 4513 
L 3425 3897 
Q 3066 4069 2747 4153 
Q 2428 4238 2131 4238 
Q 1616 4238 1336 4038 
Q 1056 3838 1056 3469 
Q 1056 3159 1242 3001 
Q 1428 2844 1947 2747 
L 2328 2669 
Q 3034 2534 3370 2195 
Q 3706 1856 3706 1288 
Q 3706 609 3251 259 
Q 2797 -91 1919 -91 
Q 1588 -91 1214 -16 
Q 841 59 441 206 
L 441 856 
Q 825 641 1194 531 
Q 1563 422 1919 422 
Q 2459 422 2753 634 
Q 3047 847 3047 1241 
Q 3047 1584 2836 1778 
Q 2625 1972 2144 2069 
L 1759 2144 
Q 1053 2284 737 2584 
Q 422 2884 422 3419 
Q 422 4038 858 4394 
Q 1294 4750 2059 4750 
Q 2388 4750 2728 4690 
Q 3069 4631 3425 4513 
z
" transform="scale(0.015625)"/>
      <path id="DejaVuSans-54" d="M -19 4666 
L 3928 4666 
L 3928 4134 
L 2272 4134 
L 2272 0 
L 1638 0 
L 1638 4134 
L -19 4134 
L -19 4666 
z
" transform="scale(0.015625)"/>
      <path id="DejaVuSans-4d" d="M 628 4666 
L 1569 4666 
L 2759 1491 
L 3956 4666 
L 4897 4666 
L 4897 0 
L 4281 0 
L 4281 4097 
L 3078 897 
L 2444 897 
L 1241 4097 
L 1241 0 
L 628 0 
L 628 4666 
z
" transform="scale(0.015625)"/>
      <path id="DejaVuSans-66" d="M 2375 4863 
L 2375 4384 
L 1825 4384 
Q 1516 4384 1395 4259 
Q 1275 4134 1275 3809 
L 1275 3500 
L 2222 3500 
L 2222 3053 
L 1275 3053 
L 1275 0 
L 697 0 
L 697 3053 
L 147 3053 
L 147 3500 
L 697 3500 
L 697 3744 
Q 697 4328 969 4595 
Q 1241 4863 1831 4863 
L 2375 4863 
z
" transform="scale(0.015625)"/>
      <path id="DejaVuSans-6f" d="M 1959 3097 
Q 1497 3097 1228 2736 
Q 959 2375 959 1747 
Q 959 1119 1226 758 
Q 1494 397 1959 397 
Q 2419 397 2687 759 
Q 2956 1122 2956 1747 
Q 2956 2369 2687 2733 
Q 2419 3097 1959 3097 
z
M 1959 3584 
Q 2709 3584 3137 3096 
Q 3566 2609 3566 1747 
Q 3566 888 3137 398 
Q 2709 -91 1959 -91 
Q 1206 -91 779 398 
Q 353 888 353 1747 
Q 353 2609 779 3096 
Q 1206 3584 1959 3584 
z
" transform="scale(0.015625)"/>
      <path id="DejaVuSans-72" d="M 2631 2963 
Q 2534 3019 2420 3045 
Q 2306 3072 2169 3072 
Q 1681 3072 1420 2755 
Q 1159 2438 1159 1844 
L 1159 0 
L 581 0 
L 581 3500 
L 1159 3500 
L 1159 2956 
Q 1341 3275 1631 3429 
Q 1922 3584 2338 3584 
Q 2397 3584 2469 3576 
Q 2541 3569 2628 3553 
L 2631 2963 
z
" transform="scale(0.015625)"/>
      <path id="DejaVuSans-61" d="M 2194 1759 
Q 1497 1759 1228 1600 
Q 959 1441 959 1056 
Q 959 750 1161 570 
Q 1363 391 1709 391 
Q 2188 391 2477 730 
Q 2766 1069 2766 1631 
L 2766 1759 
L 2194 1759 
z
M 3341 1997 
L 3341 0 
L 2766 0 
L 2766 531 
Q 2569 213 2275 61 
Q 1981 -91 1556 -91 
Q 1019 -91 701 211 
Q 384 513 384 1019 
Q 384 1609 779 1909 
Q 1175 2209 1959 2209 
L 2766 2209 
L 2766 2266 
Q 2766 2663 2505 2880 
Q 2244 3097 1772 3097 
Q 1472 3097 1187 3025 
Q 903 2953 641 2809 
L 641 3341 
Q 956 3463 1253 3523 
Q 1550 3584 1831 3584 
Q 2591 3584 2966 3190 
Q 3341 2797 3341 1997 
z
" transform="scale(0.015625)"/>
      <path id="DejaVuSans-6e" d="M 3513 2113 
L 3513 0 
L 2938 0 
L 2938 2094 
Q 2938 2591 2744 2837 
Q 2550 3084 2163 3084 
Q 1697 3084 1428 2787 
Q 1159 2491 1159 1978 
L 1159 0 
L 581 0 
L 581 3500 
L 1159 3500 
L 1159 2956 
Q 1366 3272 1645 3428 
Q 1925 3584 2291 3584 
Q 2894 3584 3203 3211 
Q 3513 2838 3513 2113 
z
" transform="scale(0.015625)"/>
      <path id="DejaVuSans-67" d="M 2906 1791 
Q 2906 2416 2648 2759 
Q 2391 3103 1925 3103 
Q 1463 3103 1205 2759 
Q 947 2416 947 1791 
Q 947 1169 1205 825 
Q 1463 481 1925 481 
Q 2391 481 2648 825 
Q 2906 1169 2906 1791 
z
M 3481 434 
Q 3481 -459 3084 -895 
Q 2688 -1331 1869 -1331 
Q 1566 -1331 1297 -1286 
Q 1028 -1241 775 -1147 
L 775 -588 
Q 1028 -725 1275 -790 
Q 1522 -856 1778 -856 
Q 2344 -856 2625 -561 
Q 2906 -266 2906 331 
L 2906 616 
Q 2728 306 2450 153 
Q 2172 0 1784 0 
Q 1141 0 747 490 
Q 353 981 353 1791 
Q 353 2603 747 3093 
Q 1141 3584 1784 3584 
Q 2172 3584 2450 3431 
Q 2728 3278 2906 2969 
L 2906 3500 
L 3481 3500 
L 3481 434 
z
" transform="scale(0.015625)"/>
      <path id="DejaVuSans-75" d="M 544 1381 
L 544 3500 
L 1119 3500 
L 1119 1403 
Q 1119 906 1312 657 
Q 1506 409 1894 409 
Q 2359 409 2629 706 
Q 2900 1003 2900 1516 
L 2900 3500 
L 3475 3500 
L 3475 0 
L 2900 0 
L 2900 538 
Q 2691 219 2414 64 
Q 2138 -91 1772 -91 
Q 1169 -91 856 284 
Q 544 659 544 1381 
z
M 1991 3584 
L 1991 3584 
z
" transform="scale(0.015625)"/>
      <path id="DejaVuSans-6c" d="M 603 4863 
L 1178 4863 
L 1178 0 
L 603 0 
L 603 4863 
z
" transform="scale(0.015625)"/>
     </defs>
     <use xlink:href="#DejaVuSans-52"/>
     <use xlink:href="#DejaVuSans-65" x="64.982422"/>
     <use xlink:href="#DejaVuSans-73" x="126.505859"/>
     <use xlink:href="#DejaVuSans-70" x="178.605469"/>
     <use xlink:href="#DejaVuSans-65" x="242.082031"/>
     <use xlink:href="#DejaVuSans-63" x="303.605469"/>
     <use xlink:href="#DejaVuSans-74" x="358.585938"/>
     <use xlink:href="#DejaVuSans-69" x="397.794922"/>
     <use xlink:href="#DejaVuSans-76" x="425.578125"/>
     <use xlink:href="#DejaVuSans-65" x="484.757812"/>
     <use xlink:href="#DejaVuSans-20" x="546.28125"/>
     <use xlink:href="#DejaVuSans-4c" x="578.068359"/>
     <use xlink:href="#DejaVuSans-53" x="633.78125"/>
     <use xlink:href="#DejaVuSans-54" x="697.257812"/>
     <use xlink:href="#DejaVuSans-4d" x="758.341797"/>
     <use xlink:href="#DejaVuSans-20" x="844.621094"/>
     <use xlink:href="#DejaVuSans-66" x="876.408203"/>
     <use xlink:href="#DejaVuSans-6f" x="911.613281"/>
     <use xlink:href="#DejaVuSans-72" x="972.794922"/>
     <use xlink:href="#DejaVuSans-65" x="1011.658203"/>
     <use xlink:href="#DejaVuSans-63" x="1073.181641"/>
     <use xlink:href="#DejaVuSans-61" x="1128.162109"/>
     <use xlink:href="#DejaVuSans-73" x="1189.441406"/>
     <use xlink:href="#DejaVuSans-74" x="1241.541016"/>
     <use xlink:href="#DejaVuSans-69" x="1280.75"/>
     <use xlink:href="#DejaVuSans-6e" x="1308.533203"/>
     <use xlink:href="#DejaVuSans-67" x="1371.912109"/>
     <use xlink:href="#DejaVuSans-20" x="1435.388672"/>
     <use xlink:href="#DejaVuSans-72" x="1467.175781"/>
     <use xlink:href="#DejaVuSans-65" x="1506.039062"/>
     <use xlink:href="#DejaVuSans-73" x="1567.5625"/>
     <use xlink:href="#DejaVuSans-75" x="1619.662109"/>
     <use xlink:href="#DejaVuSans-6c" x="1683.041016"/>
     <use xlink:href="#DejaVuSans-74" x="1710.824219"/>
     <use xlink:href="#DejaVuSans-73" x="1750.033203"/>
    </g>
   </g>
   <g id="legend_1">
    <g id="patch_7">
     <path d="M 481.802678 59.674375 
L 597.272991 59.674375 
Q 599.272991 59.674375 599.272991 57.674375 
L 599.272991 29.318125 
Q 599.272991 27.318125 597.272991 27.318125 
L 481.802678 27.318125 
Q 479.802678 27.318125 479.802678 29.318125 
L 479.802678 57.674375 
Q 479.802678 59.674375 481.802678 59.674375 
z
" style="fill: #ffffff; opacity: 0.8; stroke: #cccccc; stroke-linejoin: miter"/>
    </g>
    <g id="line2d_20">
     <path d="M 483.802678 35.416562 
L 493.802678 35.416562 
L 503.802678 35.416562 
" style="fill: none; stroke: #0070c0; stroke-width: 1.5; stroke-linecap: square"/>
    </g>
    <g id="text_19">
     <!-- Original data -->
     <g transform="translate(511.802678 38.916562) scale(0.1 -0.1)">
      <defs>
       <path id="DejaVuSans-4f" d="M 2522 4238 
Q 1834 4238 1429 3725 
Q 1025 3213 1025 2328 
Q 1025 1447 1429 934 
Q 1834 422 2522 422 
Q 3209 422 3611 934 
Q 4013 1447 4013 2328 
Q 4013 3213 3611 3725 
Q 3209 4238 2522 4238 
z
M 2522 4750 
Q 3503 4750 4090 4092 
Q 4678 3434 4678 2328 
Q 4678 1225 4090 567 
Q 3503 -91 2522 -91 
Q 1538 -91 948 565 
Q 359 1222 359 2328 
Q 359 3434 948 4092 
Q 1538 4750 2522 4750 
z
" transform="scale(0.015625)"/>
       <path id="DejaVuSans-64" d="M 2906 2969 
L 2906 4863 
L 3481 4863 
L 3481 0 
L 2906 0 
L 2906 525 
Q 2725 213 2448 61 
Q 2172 -91 1784 -91 
Q 1150 -91 751 415 
Q 353 922 353 1747 
Q 353 2572 751 3078 
Q 1150 3584 1784 3584 
Q 2172 3584 2448 3432 
Q 2725 3281 2906 2969 
z
M 947 1747 
Q 947 1113 1208 752 
Q 1469 391 1925 391 
Q 2381 391 2643 752 
Q 2906 1113 2906 1747 
Q 2906 2381 2643 2742 
Q 2381 3103 1925 3103 
Q 1469 3103 1208 2742 
Q 947 2381 947 1747 
z
" transform="scale(0.015625)"/>
      </defs>
      <use xlink:href="#DejaVuSans-4f"/>
      <use xlink:href="#DejaVuSans-72" x="78.710938"/>
      <use xlink:href="#DejaVuSans-69" x="119.824219"/>
      <use xlink:href="#DejaVuSans-67" x="147.607422"/>
      <use xlink:href="#DejaVuSans-69" x="211.083984"/>
      <use xlink:href="#DejaVuSans-6e" x="238.867188"/>
      <use xlink:href="#DejaVuSans-61" x="302.246094"/>
      <use xlink:href="#DejaVuSans-6c" x="363.525391"/>
      <use xlink:href="#DejaVuSans-20" x="391.308594"/>
      <use xlink:href="#DejaVuSans-64" x="423.095703"/>
      <use xlink:href="#DejaVuSans-61" x="486.572266"/>
      <use xlink:href="#DejaVuSans-74" x="547.851562"/>
      <use xlink:href="#DejaVuSans-61" x="587.060547"/>
     </g>
    </g>
    <g id="line2d_21">
     <path d="M 483.802678 50.094687 
L 493.802678 50.094687 
L 503.802678 50.094687 
" style="fill: none; stroke: #f27f19; stroke-width: 1.5; stroke-linecap: square"/>
    </g>
    <g id="text_20">
     <!-- Forecasting data -->
     <g transform="translate(511.802678 53.594687) scale(0.1 -0.1)">
      <defs>
       <path id="DejaVuSans-46" d="M 628 4666 
L 3309 4666 
L 3309 4134 
L 1259 4134 
L 1259 2759 
L 3109 2759 
L 3109 2228 
L 1259 2228 
L 1259 0 
L 628 0 
L 628 4666 
z
" transform="scale(0.015625)"/>
      </defs>
      <use xlink:href="#DejaVuSans-46"/>
      <use xlink:href="#DejaVuSans-6f" x="53.894531"/>
      <use xlink:href="#DejaVuSans-72" x="115.076172"/>
      <use xlink:href="#DejaVuSans-65" x="153.939453"/>
      <use xlink:href="#DejaVuSans-63" x="215.462891"/>
      <use xlink:href="#DejaVuSans-61" x="270.443359"/>
      <use xlink:href="#DejaVuSans-73" x="331.722656"/>
      <use xlink:href="#DejaVuSans-74" x="383.822266"/>
      <use xlink:href="#DejaVuSans-69" x="423.03125"/>
      <use xlink:href="#DejaVuSans-6e" x="450.814453"/>
      <use xlink:href="#DejaVuSans-67" x="514.193359"/>
      <use xlink:href="#DejaVuSans-20" x="577.669922"/>
      <use xlink:href="#DejaVuSans-64" x="609.457031"/>
      <use xlink:href="#DejaVuSans-61" x="672.933594"/>
      <use xlink:href="#DejaVuSans-74" x="734.212891"/>
      <use xlink:href="#DejaVuSans-61" x="773.421875"/>
     </g>
    </g>
   </g>
  </g>
 </g>
 <defs>
  <clipPath id="p80d8676ffe">
   <rect x="46.272991" y="22.318125" width="558" height="195.84"/>
  </clipPath>
 </defs>
</svg>
