<?xml version="1.0" encoding="utf-8" standalone="no"?>
<!DOCTYPE svg PUBLIC "-//W3C//DTD SVG 1.1//EN"
  "http://www.w3.org/Graphics/SVG/1.1/DTD/svg11.dtd">
<svg xmlns:xlink="http://www.w3.org/1999/xlink" width="611.472991pt" height="261.631033pt" viewBox="0 0 611.472991 261.631033" xmlns="http://www.w3.org/2000/svg" version="1.1">
 <metadata>
  <rdf:RDF xmlns:dc="http://purl.org/dc/elements/1.1/" xmlns:cc="http://creativecommons.org/ns#" xmlns:rdf="http://www.w3.org/1999/02/22-rdf-syntax-ns#">
   <cc:Work>
    <dc:type rdf:resource="http://purl.org/dc/dcmitype/StillImage"/>
    <dc:date>2026-04-23T00:12:52.987984</dc:date>
    <dc:format>image/svg+xml</dc:format>
    <dc:creator>
     <cc:Agent>
      <dc:title>Matplotlib v3.7.5, https://matplotlib.org/</dc:title>
     </cc:Agent>
    </dc:creator>
   </cc:Work>
  </rdf:RDF>
 </metadata>
 <defs>
  <style type="text/css">*{stroke-linejoin: round; stroke-linecap: butt}</style>
 </defs>
 <g id="figure_1">
  <g id="patch_1">
   <path d="M 0 261.631033 
L 611.472991 261.631033 
L 611.472991 0 
L 0 0 
z
" style="fill: #ffffff"/>
  </g>
  <g id="axes_1">
   <g id="patch_2">
    <path d="M 46.272991 218.158125 
L 604.272991 218.158125 
L 604.272991 22.318125 
L 46.272991 22.318125 
z
" style="fill: #ffffff"/>
   </g>
   <g id="matplotlib.axis_1">
    <g id="xtick_1">
     <g id="line2d_1">
      <defs>
       <path id="m79180e6bf1" d="M 0 0 
L 0 3.5 
" style="stroke: #000000; stroke-width: 0.8"/>
      </defs>
      <g>
       <use xlink:href="#m79180e6bf1" x="48.22404" y="218.158125" style="stroke: #000000; stroke-width: 0.8"/>
      </g>
     </g>
     <g id="text_1">
      <!-- 2025-01 -->
      <g transform="translate(10.999219 252.629971) rotate(-30) scale(0.1 -0.1)">
       <defs>
        <path id="DejaVuSans-32" d="M 1228 531 
L 3431 531 
L 3431 0 
L 469 0 
L 469 531 
Q 828 903 1448 1529 
Q 2069 2156 2228 2338 
Q 2531 2678 2651 2914 
Q 2772 3150 2772 3378 
Q 2772 3750 2511 3984 
Q 2250 4219 1831 4219 
Q 1534 4219 1204 4116 
Q 875 4013 500 3803 
L 500 4441 
Q 881 4594 1212 4672 
Q 1544 4750 1819 4750 
Q 2544 4750 2975 4387 
Q 3406 4025 3406 3419 
Q 3406 3131 3298 2873 
Q 3191 2616 2906 2266 
Q 2828 2175 2409 1742 
Q 1991 1309 1228 531 
z
" transform="scale(0.015625)"/>
        <path id="DejaVuSans-30" d="M 2034 4250 
Q 1547 4250 1301 3770 
Q 1056 3291 1056 2328 
Q 1056 1369 1301 889 
Q 1547 409 2034 409 
Q 2525 409 2770 889 
Q 3016 1369 3016 2328 
Q 3016 3291 2770 3770 
Q 2525 4250 2034 4250 
z
M 2034 4750 
Q 2819 4750 3233 4129 
Q 3647 3509 3647 2328 
Q 3647 1150 3233 529 
Q 2819 -91 2034 -91 
Q 1250 -91 836 529 
Q 422 1150 422 2328 
Q 422 3509 836 4129 
Q 1250 4750 2034 4750 
z
" transform="scale(0.015625)"/>
        <path id="DejaVuSans-35" d="M 691 4666 
L 3169 4666 
L 3169 4134 
L 1269 4134 
L 1269 2991 
Q 1406 3038 1543 3061 
Q 1681 3084 1819 3084 
Q 2600 3084 3056 2656 
Q 3513 2228 3513 1497 
Q 3513 744 3044 326 
Q 2575 -91 1722 -91 
Q 1428 -91 1123 -41 
Q 819 9 494 109 
L 494 744 
Q 775 591 1075 516 
Q 1375 441 1709 441 
Q 2250 441 2565 725 
Q 2881 1009 2881 1497 
Q 2881 1984 2565 2268 
Q 2250 2553 1709 2553 
Q 1456 2553 1204 2497 
Q 953 2441 691 2322 
L 691 4666 
z
" transform="scale(0.015625)"/>
        <path id="DejaVuSans-2d" d="M 313 2009 
L 1997 2009 
L 1997 1497 
L 313 1497 
L 313 2009 
z
" transform="scale(0.015625)"/>
        <path id="DejaVuSans-31" d="M 794 531 
L 1825 531 
L 1825 4091 
L 703 3866 
L 703 4441 
L 1819 4666 
L 2450 4666 
L 2450 531 
L 3481 531 
L 3481 0 
L 794 0 
L 794 531 
z
" transform="scale(0.015625)"/>
       </defs>
       <use xlink:href="#DejaVuSans-32"/>
       <use xlink:href="#DejaVuSans-30" x="63.623047"/>
       <use xlink:href="#DejaVuSans-32" x="127.246094"/>
       <use xlink:href="#DejaVuSans-35" x="190.869141"/>
       <use xlink:href="#DejaVuSans-2d" x="254.492188"/>
       <use xlink:href="#DejaVuSans-30" x="290.576172"/>
       <use xlink:href="#DejaVuSans-31" x="354.199219"/>
      </g>
     </g>
    </g>
    <g id="xtick_2">
     <g id="line2d_2">
      <g>
       <use xlink:href="#m79180e6bf1" x="114.002261" y="218.158125" style="stroke: #000000; stroke-width: 0.8"/>
      </g>
     </g>
     <g id="text_2">
      <!-- 2025-03 -->
      <g transform="translate(76.777441 252.629971) rotate(-30) scale(0.1 -0.1)">
       <defs>
        <path id="DejaVuSans-33" d="M 2597 2516 
Q 3050 2419 3304 2112 
Q 3559 1806 3559 1356 
Q 3559 666 3084 287 
Q 2609 -91 1734 -91 
Q 1441 -91 1130 -33 
Q 819 25 488 141 
L 488 750 
Q 750 597 1062 519 
Q 1375 441 1716 441 
Q 2309 441 2620 675 
Q 2931 909 2931 1356 
Q 2931 1769 2642 2001 
Q 2353 2234 1838 2234 
L 1294 2234 
L 1294 2753 
L 1863 2753 
Q 2328 2753 2575 2939 
Q 2822 3125 2822 3475 
Q 2822 3834 2567 4026 
Q 2313 4219 1838 4219 
Q 1578 4219 1281 4162 
Q 984 4106 628 3988 
L 628 4550 
Q 988 4650 1302 4700 
Q 1616 4750 1894 4750 
Q 2613 4750 3031 4423 
Q 3450 4097 3450 3541 
Q 3450 3153 3228 2886 
Q 3006 2619 2597 2516 
z
" transform="scale(0.015625)"/>
       </defs>
       <use xlink:href="#DejaVuSans-32"/>
       <use xlink:href="#DejaVuSans-30" x="63.623047"/>
       <use xlink:href="#DejaVuSans-32" x="127.246094"/>
       <use xlink:href="#DejaVuSans-35" x="190.869141"/>
       <use xlink:href="#DejaVuSans-2d" x="254.492188"/>
       <use xlink:href="#DejaVuSans-30" x="290.576172"/>
       <use xlink:href="#DejaVuSans-33" x="354.199219"/>
      </g>
     </g>
    </g>
    <g id="xtick_3">
     <g id="line2d_3">
      <g>
       <use xlink:href="#m79180e6bf1" x="182.010253" y="218.158125" style="stroke: #000000; stroke-width: 0.8"/>
      </g>
     </g>
     <g id="text_3">
      <!-- 2025-05 -->
      <g transform="translate(144.785433 252.629971) rotate(-30) scale(0.1 -0.1)">
       <use xlink:href="#DejaVuSans-32"/>
       <use xlink:href="#DejaVuSans-30" x="63.623047"/>
       <use xlink:href="#DejaVuSans-32" x="127.246094"/>
       <use xlink:href="#DejaVuSans-35" x="190.869141"/>
       <use xlink:href="#DejaVuSans-2d" x="254.492188"/>
       <use xlink:href="#DejaVuSans-30" x="290.576172"/>
       <use xlink:href="#DejaVuSans-35" x="354.199219"/>
      </g>
     </g>
    </g>
    <g id="xtick_4">
     <g id="line2d_4">
      <g>
       <use xlink:href="#m79180e6bf1" x="250.018245" y="218.158125" style="stroke: #000000; stroke-width: 0.8"/>
      </g>
     </g>
     <g id="text_4">
      <!-- 2025-07 -->
      <g transform="translate(212.793425 252.629971) rotate(-30) scale(0.1 -0.1)">
       <defs>
        <path id="DejaVuSans-37" d="M 525 4666 
L 3525 4666 
L 3525 4397 
L 1831 0 
L 1172 0 
L 2766 4134 
L 525 4134 
L 525 4666 
z
" transform="scale(0.015625)"/>
       </defs>
       <use xlink:href="#DejaVuSans-32"/>
       <use xlink:href="#DejaVuSans-30" x="63.623047"/>
       <use xlink:href="#DejaVuSans-32" x="127.246094"/>
       <use xlink:href="#DejaVuSans-35" x="190.869141"/>
       <use xlink:href="#DejaVuSans-2d" x="254.492188"/>
       <use xlink:href="#DejaVuSans-30" x="290.576172"/>
       <use xlink:href="#DejaVuSans-37" x="354.199219"/>
      </g>
     </g>
    </g>
    <g id="xtick_5">
     <g id="line2d_5">
      <g>
       <use xlink:href="#m79180e6bf1" x="319.141122" y="218.158125" style="stroke: #000000; stroke-width: 0.8"/>
      </g>
     </g>
     <g id="text_5">
      <!-- 2025-09 -->
      <g transform="translate(281.916302 252.629971) rotate(-30) scale(0.1 -0.1)">
       <defs>
        <path id="DejaVuSans-39" d="M 703 97 
L 703 672 
Q 941 559 1184 500 
Q 1428 441 1663 441 
Q 2288 441 2617 861 
Q 2947 1281 2994 2138 
Q 2813 1869 2534 1725 
Q 2256 1581 1919 1581 
Q 1219 1581 811 2004 
Q 403 2428 403 3163 
Q 403 3881 828 4315 
Q 1253 4750 1959 4750 
Q 2769 4750 3195 4129 
Q 3622 3509 3622 2328 
Q 3622 1225 3098 567 
Q 2575 -91 1691 -91 
Q 1453 -91 1209 -44 
Q 966 3 703 97 
z
M 1959 2075 
Q 2384 2075 2632 2365 
Q 2881 2656 2881 3163 
Q 2881 3666 2632 3958 
Q 2384 4250 1959 4250 
Q 1534 4250 1286 3958 
Q 1038 3666 1038 3163 
Q 1038 2656 1286 2365 
Q 1534 2075 1959 2075 
z
" transform="scale(0.015625)"/>
       </defs>
       <use xlink:href="#DejaVuSans-32"/>
       <use xlink:href="#DejaVuSans-30" x="63.623047"/>
       <use xlink:href="#DejaVuSans-32" x="127.246094"/>
       <use xlink:href="#DejaVuSans-35" x="190.869141"/>
       <use xlink:href="#DejaVuSans-2d" x="254.492188"/>
       <use xlink:href="#DejaVuSans-30" x="290.576172"/>
       <use xlink:href="#DejaVuSans-39" x="354.199219"/>
      </g>
     </g>
    </g>
    <g id="xtick_6">
     <g id="line2d_6">
      <g>
       <use xlink:href="#m79180e6bf1" x="387.149114" y="218.158125" style="stroke: #000000; stroke-width: 0.8"/>
      </g>
     </g>
     <g id="text_6">
      <!-- 2025-11 -->
      <g transform="translate(349.924294 252.629971) rotate(-30) scale(0.1 -0.1)">
       <use xlink:href="#DejaVuSans-32"/>
       <use xlink:href="#DejaVuSans-30" x="63.623047"/>
       <use xlink:href="#DejaVuSans-32" x="127.246094"/>
       <use xlink:href="#DejaVuSans-35" x="190.869141"/>
       <use xlink:href="#DejaVuSans-2d" x="254.492188"/>
       <use xlink:href="#DejaVuSans-31" x="290.576172"/>
       <use xlink:href="#DejaVuSans-31" x="354.199219"/>
      </g>
     </g>
    </g>
    <g id="xtick_7">
     <g id="line2d_7">
      <g>
       <use xlink:href="#m79180e6bf1" x="455.157106" y="218.158125" style="stroke: #000000; stroke-width: 0.8"/>
      </g>
     </g>
     <g id="text_7">
      <!-- 2026-01 -->
      <g transform="translate(417.932286 252.629971) rotate(-30) scale(0.1 -0.1)">
       <defs>
        <path id="DejaVuSans-36" d="M 2113 2584 
Q 1688 2584 1439 2293 
Q 1191 2003 1191 1497 
Q 1191 994 1439 701 
Q 1688 409 2113 409 
Q 2538 409 2786 701 
Q 3034 994 3034 1497 
Q 3034 2003 2786 2293 
Q 2538 2584 2113 2584 
z
M 3366 4563 
L 3366 3988 
Q 3128 4100 2886 4159 
Q 2644 4219 2406 4219 
Q 1781 4219 1451 3797 
Q 1122 3375 1075 2522 
Q 1259 2794 1537 2939 
Q 1816 3084 2150 3084 
Q 2853 3084 3261 2657 
Q 3669 2231 3669 1497 
Q 3669 778 3244 343 
Q 2819 -91 2113 -91 
Q 1303 -91 875 529 
Q 447 1150 447 2328 
Q 447 3434 972 4092 
Q 1497 4750 2381 4750 
Q 2619 4750 2861 4703 
Q 3103 4656 3366 4563 
z
" transform="scale(0.015625)"/>
       </defs>
       <use xlink:href="#DejaVuSans-32"/>
       <use xlink:href="#DejaVuSans-30" x="63.623047"/>
       <use xlink:href="#DejaVuSans-32" x="127.246094"/>
       <use xlink:href="#DejaVuSans-36" x="190.869141"/>
       <use xlink:href="#DejaVuSans-2d" x="254.492188"/>
       <use xlink:href="#DejaVuSans-30" x="290.576172"/>
       <use xlink:href="#DejaVuSans-31" x="354.199219"/>
      </g>
     </g>
    </g>
    <g id="xtick_8">
     <g id="line2d_8">
      <g>
       <use xlink:href="#m79180e6bf1" x="520.935328" y="218.158125" style="stroke: #000000; stroke-width: 0.8"/>
      </g>
     </g>
     <g id="text_8">
      <!-- 2026-03 -->
      <g transform="translate(483.710507 252.629971) rotate(-30) scale(0.1 -0.1)">
       <use xlink:href="#DejaVuSans-32"/>
       <use xlink:href="#DejaVuSans-30" x="63.623047"/>
       <use xlink:href="#DejaVuSans-32" x="127.246094"/>
       <use xlink:href="#DejaVuSans-36" x="190.869141"/>
       <use xlink:href="#DejaVuSans-2d" x="254.492188"/>
       <use xlink:href="#DejaVuSans-30" x="290.576172"/>
       <use xlink:href="#DejaVuSans-33" x="354.199219"/>
      </g>
     </g>
    </g>
    <g id="xtick_9">
     <g id="line2d_9">
      <g>
       <use xlink:href="#m79180e6bf1" x="588.94332" y="218.158125" style="stroke: #000000; stroke-width: 0.8"/>
      </g>
     </g>
     <g id="text_9">
      <!-- 2026-05 -->
      <g transform="translate(551.718499 252.629971) rotate(-30) scale(0.1 -0.1)">
       <use xlink:href="#DejaVuSans-32"/>
       <use xlink:href="#DejaVuSans-30" x="63.623047"/>
       <use xlink:href="#DejaVuSans-32" x="127.246094"/>
       <use xlink:href="#DejaVuSans-36" x="190.869141"/>
       <use xlink:href="#DejaVuSans-2d" x="254.492188"/>
       <use xlink:href="#DejaVuSans-30" x="290.576172"/>
       <use xlink:href="#DejaVuSans-35" x="354.199219"/>
      </g>
     </g>
    </g>
   </g>
   <g id="matplotlib.axis_2">
    <g id="ytick_1">
     <g id="line2d_10">
      <defs>
       <path id="m08a12f59ba" d="M 0 0 
L -3.5 0 
" style="stroke: #000000; stroke-width: 0.8"/>
      </defs>
      <g>
       <use xlink:href="#m08a12f59ba" x="46.272991" y="210.717982" style="stroke: #000000; stroke-width: 0.8"/>
      </g>
     </g>
     <g id="text_10">
      <!-- 30 -->
      <g transform="translate(26.547991 214.5172) scale(0.1 -0.1)">
       <use xlink:href="#DejaVuSans-33"/>
       <use xlink:href="#DejaVuSans-30" x="63.623047"/>
      </g>
     </g>
    </g>
    <g id="ytick_2">
     <g id="line2d_11">
      <g>
       <use xlink:href="#m08a12f59ba" x="46.272991" y="176.725542" style="stroke: #000000; stroke-width: 0.8"/>
      </g>
     </g>
     <g id="text_11">
      <!-- 40 -->
      <g transform="translate(26.547991 180.524761) scale(0.1 -0.1)">
       <defs>
        <path id="DejaVuSans-34" d="M 2419 4116 
L 825 1625 
L 2419 1625 
L 2419 4116 
z
M 2253 4666 
L 3047 4666 
L 3047 1625 
L 3713 1625 
L 3713 1100 
L 3047 1100 
L 3047 0 
L 2419 0 
L 2419 1100 
L 313 1100 
L 313 1709 
L 2253 4666 
z
" transform="scale(0.015625)"/>
       </defs>
       <use xlink:href="#DejaVuSans-34"/>
       <use xlink:href="#DejaVuSans-30" x="63.623047"/>
      </g>
     </g>
    </g>
    <g id="ytick_3">
     <g id="line2d_12">
      <g>
       <use xlink:href="#m08a12f59ba" x="46.272991" y="142.733102" style="stroke: #000000; stroke-width: 0.8"/>
      </g>
     </g>
     <g id="text_12">
      <!-- 50 -->
      <g transform="translate(26.547991 146.532321) scale(0.1 -0.1)">
       <use xlink:href="#DejaVuSans-35"/>
       <use xlink:href="#DejaVuSans-30" x="63.623047"/>
      </g>
     </g>
    </g>
    <g id="ytick_4">
     <g id="line2d_13">
      <g>
       <use xlink:href="#m08a12f59ba" x="46.272991" y="108.740663" style="stroke: #000000; stroke-width: 0.8"/>
      </g>
     </g>
     <g id="text_13">
      <!-- 60 -->
      <g transform="translate(26.547991 112.539881) scale(0.1 -0.1)">
       <use xlink:href="#DejaVuSans-36"/>
       <use xlink:href="#DejaVuSans-30" x="63.623047"/>
      </g>
     </g>
    </g>
    <g id="ytick_5">
     <g id="line2d_14">
      <g>
       <use xlink:href="#m08a12f59ba" x="46.272991" y="74.748223" style="stroke: #000000; stroke-width: 0.8"/>
      </g>
     </g>
     <g id="text_14">
      <!-- 70 -->
      <g transform="translate(26.547991 78.547442) scale(0.1 -0.1)">
       <use xlink:href="#DejaVuSans-37"/>
       <use xlink:href="#DejaVuSans-30" x="63.623047"/>
      </g>
     </g>
    </g>
    <g id="ytick_6">
     <g id="line2d_15">
      <g>
       <use xlink:href="#m08a12f59ba" x="46.272991" y="40.755783" style="stroke: #000000; stroke-width: 0.8"/>
      </g>
     </g>
     <g id="text_15">
      <!-- 80 -->
      <g transform="translate(26.547991 44.555002) scale(0.1 -0.1)">
       <defs>
        <path id="DejaVuSans-38" d="M 2034 2216 
Q 1584 2216 1326 1975 
Q 1069 1734 1069 1313 
Q 1069 891 1326 650 
Q 1584 409 2034 409 
Q 2484 409 2743 651 
Q 3003 894 3003 1313 
Q 3003 1734 2745 1975 
Q 2488 2216 2034 2216 
z
M 1403 2484 
Q 997 2584 770 2862 
Q 544 3141 544 3541 
Q 544 4100 942 4425 
Q 1341 4750 2034 4750 
Q 2731 4750 3128 4425 
Q 3525 4100 3525 3541 
Q 3525 3141 3298 2862 
Q 3072 2584 2669 2484 
Q 3125 2378 3379 2068 
Q 3634 1759 3634 1313 
Q 3634 634 3220 271 
Q 2806 -91 2034 -91 
Q 1263 -91 848 271 
Q 434 634 434 1313 
Q 434 1759 690 2068 
Q 947 2378 1403 2484 
z
M 1172 3481 
Q 1172 3119 1398 2916 
Q 1625 2713 2034 2713 
Q 2441 2713 2670 2916 
Q 2900 3119 2900 3481 
Q 2900 3844 2670 4047 
Q 2441 4250 2034 4250 
Q 1625 4250 1398 4047 
Q 1172 3844 1172 3481 
z
" transform="scale(0.015625)"/>
       </defs>
       <use xlink:href="#DejaVuSans-38"/>
       <use xlink:href="#DejaVuSans-30" x="63.623047"/>
      </g>
     </g>
    </g>
   </g>
   <g id="line2d_16">
    <path d="M 71.636627 184.067909 
L 72.751512 184.441826 
L 77.211053 177.541361 
L 87.245019 164.896173 
L 88.359904 179.444937 
L 89.474789 174.108124 
L 92.819444 178.867066 
L 93.934329 175.943716 
L 95.049214 178.425164 
L 96.1641 181.688438 
L 97.278985 178.017255 
L 100.62364 176.793527 
L 101.738525 180.838627 
L 102.85341 179.240983 
L 103.968295 179.240983 
L 105.08318 180.022809 
L 108.427836 181.178552 
L 109.542721 177.67733 
L 110.657606 182.742204 
L 111.772491 180.702657 
L 112.887376 183.014143 
L 117.346917 182.844181 
L 118.461802 180.73665 
L 119.576687 182.810189 
L 120.691572 182.640227 
L 124.036227 182.844181 
L 125.151112 182.504257 
L 126.265998 183.014143 
L 127.380883 180.294748 
L 128.495768 180.634673 
L 131.840423 180.634673 
L 132.955308 180.87262 
L 134.070193 181.926385 
L 136.299964 179.954824 
L 139.644619 181.586461 
L 140.759504 181.688438 
L 141.874389 182.436272 
L 142.989274 182.334295 
L 144.104159 181.042582 
L 147.448815 181.484484 
L 148.5637 182.436272 
L 149.678585 182.096347 
L 150.79347 179.818854 
L 155.253011 181.688438 
L 156.367896 181.620453 
L 157.482781 182.368287 
L 158.597666 181.484484 
L 159.712551 182.232317 
L 164.172092 183.490038 
L 166.401862 183.422053 
L 167.516747 183.558022 
L 170.861402 181.654446 
L 171.976287 184.815743 
L 173.091172 182.504257 
L 174.206058 186.005478 
L 175.320943 185.665554 
L 178.665598 179.818854 
L 179.780483 185.937493 
L 180.895368 173.326298 
L 188.699564 173.564245 
L 189.814449 182.572242 
L 190.929334 174.006147 
L 194.27399 174.006147 
L 195.388875 183.422053 
L 196.50376 181.518476 
L 197.618645 183.218098 
L 198.73353 173.734207 
L 202.078185 183.354068 
L 203.193071 180.124786 
L 204.307956 180.124786 
L 205.422841 178.391172 
L 206.537726 180.056801 
L 209.882381 179.988816 
L 210.997266 180.124786 
L 212.112151 181.280529 
L 213.227037 175.229875 
L 214.341922 175.229875 
L 218.801462 176.623565 
L 219.916347 181.790416 
L 221.031232 180.634673 
L 222.146117 177.541361 
L 225.490773 182.980151 
L 226.605658 176.55558 
L 227.720543 178.595126 
L 228.835428 180.124786 
L 229.950313 180.294748 
L 233.294969 175.501814 
L 234.409854 179.784862 
L 235.524739 180.124786 
L 236.639624 176.759534 
L 237.754509 178.935051 
L 241.099164 178.935051 
L 242.21405 180.668665 
L 243.328935 183.456045 
L 244.44382 179.003035 
L 245.558705 173.326298 
L 248.90336 173.326298 
L 250.018245 179.003035 
L 251.13313 176.793527 
L 252.248016 178.901058 
L 253.362901 181.892393 
L 256.707556 180.056801 
L 257.822441 181.586461 
L 258.937326 180.838627 
L 260.052211 170.70888 
L 261.167097 170.70888 
L 264.511752 180.634673 
L 265.626637 180.124786 
L 266.741522 181.484484 
L 267.856407 181.484484 
L 268.971292 168.533364 
L 272.315948 168.533364 
L 273.430833 179.682884 
L 274.545718 180.87262 
L 275.660603 179.988816 
L 276.775488 169.961047 
L 280.120143 176.759534 
L 281.235029 179.954824 
L 282.349914 176.487595 
L 283.464799 173.870177 
L 284.579684 171.9666 
L 287.924339 175.569799 
L 289.039224 171.524699 
L 290.154109 173.802192 
L 291.268995 167.683553 
L 295.728535 167.683553 
L 296.84342 177.847293 
L 297.958305 170.063024 
L 299.07319 172.170555 
L 300.188076 181.756423 
L 303.532731 169.961047 
L 304.647616 179.716877 
L 305.762501 180.090794 
L 306.877386 180.056801 
L 307.992271 182.402279 
L 311.336927 181.790416 
L 312.451812 176.793527 
L 313.566697 175.569799 
L 314.681582 168.567356 
L 315.796467 168.567356 
L 319.141122 181.790416 
L 320.256008 181.824408 
L 321.370893 177.915277 
L 322.485778 168.873288 
L 323.600663 182.742204 
L 326.945318 176.895504 
L 328.060203 173.326298 
L 329.175089 170.300971 
L 330.289974 170.300971 
L 331.404859 170.776865 
L 334.749514 170.776865 
L 335.864399 177.201436 
L 336.979284 181.144559 
L 338.094169 180.668665 
L 339.209055 180.668665 
L 342.55371 181.790416 
L 343.668595 182.300302 
L 345.898365 204.939267 
L 347.01325 194.163664 
L 350.357906 186.31141 
L 351.472791 174.040139 
L 361.506757 169.58713 
L 362.621642 180.124786 
L 365.966297 180.73665 
L 367.081182 180.532695 
L 368.196068 176.827519 
L 369.310953 175.705769 
L 370.425838 182.980151 
L 373.770493 175.229875 
L 374.885378 173.63223 
L 376.000263 175.195882 
L 377.115148 176.215655 
L 378.230034 176.861512 
L 381.574689 182.538249 
L 382.689574 170.334963 
L 383.804459 180.158778 
L 384.919344 179.614899 
L 386.034229 178.289194 
L 389.378885 179.716877 
L 390.49377 176.41961 
L 391.608655 175.943716 
L 392.72354 177.337406 
L 393.838425 169.961047 
L 397.183081 176.215655 
L 398.297966 173.258313 
L 400.527736 181.756423 
L 401.642621 181.076574 
L 404.987276 185.461599 
L 406.102161 197.86884 
L 408.331932 175.875731 
L 409.446817 174.787973 
L 412.791472 174.142117 
L 413.906357 179.614899 
L 415.021242 180.498703 
L 416.136127 180.226763 
L 417.251013 181.076574 
L 420.595668 181.144559 
L 421.710553 187.7051 
L 422.825438 187.195213 
L 423.940323 188.316964 
L 425.055208 190.968374 
L 428.399864 194.605565 
L 429.514749 202.729758 
L 430.629634 202.797743 
L 431.744519 194.639558 
L 432.859404 198.174771 
L 436.20406 200.078348 
L 438.43383 207.590677 
L 439.548715 206.706874 
L 440.6636 209.256307 
L 444.008255 206.061017 
L 445.12314 206.876836 
L 447.352911 207.012806 
L 448.467796 208.100564 
L 451.812451 205.041244 
L 452.927336 201.132114 
L 454.042221 197.902832 
L 459.616647 202.083902 
L 460.731532 201.574015 
L 461.846417 191.512253 
L 462.961302 200.316295 
L 464.076187 195.285414 
L 467.420843 192.15811 
L 468.535728 187.093236 
L 469.650613 190.35651 
L 470.765498 200.52025 
L 471.880383 199.874393 
L 475.225039 200.350288 
L 476.339924 201.404053 
L 477.454809 190.798412 
L 478.569694 200.350288 
L 479.684579 201.540023 
L 483.029234 201.438046 
L 484.144119 199.874393 
L 485.259005 190.35651 
L 486.37389 201.268083 
L 487.488775 193.483815 
L 490.83343 195.523361 
L 491.948315 196.543134 
L 493.0632 196.101233 
L 494.178086 191.988147 
L 495.292971 191.852178 
L 498.637626 188.079017 
L 499.752511 194.843512 
L 500.867396 187.399168 
L 501.982281 181.212544 
L 503.097166 193.381837 
L 515.360903 189.710654 
L 516.475788 186.991259 
L 517.590673 188.214987 
L 518.705558 187.943047 
L 522.050213 188.180994 
L 523.165099 183.761977 
L 524.279984 194.163664 
L 525.394869 199.874393 
L 526.509754 188.690881 
L 529.854409 178.459156 
L 530.969294 178.459156 
L 532.084179 176.045693 
L 533.199065 187.093236 
L 534.31395 180.260756 
L 537.658605 183.320075 
L 538.77349 183.897947 
L 539.888375 183.829962 
L 541.00326 183.422053 
L 542.118145 183.38806 
L 545.462801 184.543803 
L 546.577686 181.824408 
L 547.692571 186.923274 
L 548.807456 179.308967 
L 549.922341 182.912166 
L 553.266997 179.105013 
L 555.496767 179.240983 
L 556.611652 183.52403 
L 557.726537 179.784862 
L 562.186078 186.753312 
L 563.300963 183.592015 
L 564.415848 184.883728 
L 565.530733 185.427607 
L 568.875388 176.895504 
L 569.990273 180.46471 
L 578.909354 180.46471 
L 578.909354 180.46471 
" clip-path="url(#pcb787026a7)" style="fill: none; stroke: #0070c0; stroke-width: 1.5; stroke-linecap: square"/>
   </g>
   <g id="line2d_17">
    <path d="M 409.446817 100.624511 
L 412.791472 101.265176 
L 413.906357 107.987573 
L 415.021242 110.759508 
L 416.136127 113.973336 
L 417.251013 113.447196 
L 420.595668 112.016239 
L 421.710553 113.161389 
L 422.825438 112.177044 
L 423.940323 111.125271 
L 425.055208 111.562845 
L 428.399864 110.397454 
L 429.514749 111.712045 
L 430.629634 113.749926 
L 431.744519 116.242978 
L 432.859404 117.551331 
L 436.20406 116.409968 
L 437.318945 114.679485 
L 438.43383 113.127285 
L 439.548715 110.464831 
L 440.6636 105.783959 
L 444.008255 100.710224 
L 445.12314 94.137 
L 446.238026 83.770929 
L 447.352911 70.858149 
L 448.467796 68.591969 
L 451.812451 69.851203 
L 452.927336 68.284078 
L 454.042221 63.665539 
L 459.616647 61.70489 
L 460.731532 55.103087 
L 461.846417 54.332764 
L 462.961302 51.902732 
L 464.076187 47.191063 
L 467.420843 48.013384 
L 468.535728 50.652705 
L 469.650613 55.964334 
L 470.765498 60.104129 
L 471.880383 41.221431 
L 475.225039 31.292222 
L 476.339924 59.303515 
L 477.454809 56.621766 
L 478.569694 43.07046 
L 479.684579 35.923054 
L 483.029234 37.321269 
L 484.144119 39.509854 
L 485.259005 44.801929 
L 486.37389 45.390116 
L 487.488775 43.726776 
L 490.83343 39.05515 
L 491.948315 36.301485 
L 493.0632 39.354119 
L 494.178086 45.702467 
L 495.292971 51.256841 
L 498.637626 46.691571 
L 499.752511 39.769558 
L 500.867396 41.098218 
L 501.982281 42.36671 
L 503.097166 43.501356 
L 515.360903 40.324394 
L 516.475788 39.153933 
L 517.590673 39.507545 
L 518.705558 38.240635 
L 522.050213 38.469478 
L 523.165099 36.464896 
L 524.279984 35.951737 
L 525.394869 34.487467 
L 526.509754 33.280102 
L 529.854409 32.195639 
L 530.969294 36.782953 
L 532.084179 38.210603 
L 533.199065 38.188533 
L 534.31395 31.219943 
L 537.658605 32.140788 
L 538.77349 33.163009 
L 539.888375 32.996538 
L 541.00326 37.259079 
L 542.118145 37.845346 
L 545.462801 37.168879 
L 546.577686 37.779733 
L 547.692571 38.323235 
L 548.807456 38.097089 
L 549.922341 40.127735 
L 553.266997 38.956081 
L 554.381882 40.917171 
L 555.496767 40.828684 
L 556.611652 40.119073 
L 557.726537 40.566567 
L 562.186078 39.313454 
L 563.300963 40.410885 
L 564.415848 40.377455 
L 565.530733 41.243164 
L 568.875388 42.208434 
L 569.990273 42.732252 
L 571.105158 43.692673 
L 572.220044 43.64498 
L 573.334929 44.375857 
L 576.679584 45.900112 
L 577.794469 48.31964 
L 578.909354 49.28893 
" clip-path="url(#pcb787026a7)" style="fill: none; stroke: #f27f19; stroke-width: 1.5; stroke-linecap: square"/>
   </g>
   <g id="patch_3">
    <path d="M 46.272991 218.158125 
L 46.272991 22.318125 
" style="fill: none; stroke: #000000; stroke-width: 0.8; stroke-linejoin: miter; stroke-linecap: square"/>
   </g>
   <g id="patch_4">
    <path d="M 604.272991 218.158125 
L 604.272991 22.318125 
" style="fill: none; stroke: #000000; stroke-width: 0.8; stroke-linejoin: miter; stroke-linecap: square"/>
   </g>
   <g id="patch_5">
    <path d="M 46.272991 218.158125 
L 604.272991 218.158125 
" style="fill: none; stroke: #000000; stroke-width: 0.8; stroke-linejoin: miter; stroke-linecap: square"/>
   </g>
   <g id="patch_6">
    <path d="M 46.272991 22.318125 
L 604.272991 22.318125 
" style="fill: none; stroke: #000000; stroke-width: 0.8; stroke-linejoin: miter; stroke-linecap: square"/>
   </g>
   <g id="text_16">
    <!-- Respective LSTM forecasting results -->
    <g transform="translate(217.144553 16.318125) scale(0.12 -0.12)">
     <defs>
      <path id="DejaVuSans-52" d="M 2841 2188 
Q 3044 2119 3236 1894 
Q 3428 1669 3622 1275 
L 4263 0 
L 3584 0 
L 2988 1197 
Q 2756 1666 2539 1819 
Q 2322 1972 1947 1972 
L 1259 1972 
L 1259 0 
L 628 0 
L 628 4666 
L 2053 4666 
Q 2853 4666 3247 4331 
Q 3641 3997 3641 3322 
Q 3641 2881 3436 2590 
Q 3231 2300 2841 2188 
z
M 1259 4147 
L 1259 2491 
L 2053 2491 
Q 2509 2491 2742 2702 
Q 2975 2913 2975 3322 
Q 2975 3731 2742 3939 
Q 2509 4147 2053 4147 
L 1259 4147 
z
" transform="scale(0.015625)"/>
      <path id="DejaVuSans-65" d="M 3597 1894 
L 3597 1613 
L 953 1613 
Q 991 1019 1311 708 
Q 1631 397 2203 397 
Q 2534 397 2845 478 
Q 3156 559 3463 722 
L 3463 178 
Q 3153 47 2828 -22 
Q 2503 -91 2169 -91 
Q 1331 -91 842 396 
Q 353 884 353 1716 
Q 353 2575 817 3079 
Q 1281 3584 2069 3584 
Q 2775 3584 3186 3129 
Q 3597 2675 3597 1894 
z
M 3022 2063 
Q 3016 2534 2758 2815 
Q 2500 3097 2075 3097 
Q 1594 3097 1305 2825 
Q 1016 2553 972 2059 
L 3022 2063 
z
" transform="scale(0.015625)"/>
      <path id="DejaVuSans-73" d="M 2834 3397 
L 2834 2853 
Q 2591 2978 2328 3040 
Q 2066 3103 1784 3103 
Q 1356 3103 1142 2972 
Q 928 2841 928 2578 
Q 928 2378 1081 2264 
Q 1234 2150 1697 2047 
L 1894 2003 
Q 2506 1872 2764 1633 
Q 3022 1394 3022 966 
Q 3022 478 2636 193 
Q 2250 -91 1575 -91 
Q 1294 -91 989 -36 
Q 684 19 347 128 
L 347 722 
Q 666 556 975 473 
Q 1284 391 1588 391 
Q 1994 391 2212 530 
Q 2431 669 2431 922 
Q 2431 1156 2273 1281 
Q 2116 1406 1581 1522 
L 1381 1569 
Q 847 1681 609 1914 
Q 372 2147 372 2553 
Q 372 3047 722 3315 
Q 1072 3584 1716 3584 
Q 2034 3584 2315 3537 
Q 2597 3491 2834 3397 
z
" transform="scale(0.015625)"/>
      <path id="DejaVuSans-70" d="M 1159 525 
L 1159 -1331 
L 581 -1331 
L 581 3500 
L 1159 3500 
L 1159 2969 
Q 1341 3281 1617 3432 
Q 1894 3584 2278 3584 
Q 2916 3584 3314 3078 
Q 3713 2572 3713 1747 
Q 3713 922 3314 415 
Q 2916 -91 2278 -91 
Q 1894 -91 1617 61 
Q 1341 213 1159 525 
z
M 3116 1747 
Q 3116 2381 2855 2742 
Q 2594 3103 2138 3103 
Q 1681 3103 1420 2742 
Q 1159 2381 1159 1747 
Q 1159 1113 1420 752 
Q 1681 391 2138 391 
Q 2594 391 2855 752 
Q 3116 1113 3116 1747 
z
" transform="scale(0.015625)"/>
      <path id="DejaVuSans-63" d="M 3122 3366 
L 3122 2828 
Q 2878 2963 2633 3030 
Q 2388 3097 2138 3097 
Q 1578 3097 1268 2742 
Q 959 2388 959 1747 
Q 959 1106 1268 751 
Q 1578 397 2138 397 
Q 2388 397 2633 464 
Q 2878 531 3122 666 
L 3122 134 
Q 2881 22 2623 -34 
Q 2366 -91 2075 -91 
Q 1284 -91 818 406 
Q 353 903 353 1747 
Q 353 2603 823 3093 
Q 1294 3584 2113 3584 
Q 2378 3584 2631 3529 
Q 2884 3475 3122 3366 
z
" transform="scale(0.015625)"/>
      <path id="DejaVuSans-74" d="M 1172 4494 
L 1172 3500 
L 2356 3500 
L 2356 3053 
L 1172 3053 
L 1172 1153 
Q 1172 725 1289 603 
Q 1406 481 1766 481 
L 2356 481 
L 2356 0 
L 1766 0 
Q 1100 0 847 248 
Q 594 497 594 1153 
L 594 3053 
L 172 3053 
L 172 3500 
L 594 3500 
L 594 4494 
L 1172 4494 
z
" transform="scale(0.015625)"/>
      <path id="DejaVuSans-69" d="M 603 3500 
L 1178 3500 
L 1178 0 
L 603 0 
L 603 3500 
z
M 603 4863 
L 1178 4863 
L 1178 4134 
L 603 4134 
L 603 4863 
z
" transform="scale(0.015625)"/>
      <path id="DejaVuSans-76" d="M 191 3500 
L 800 3500 
L 1894 563 
L 2988 3500 
L 3597 3500 
L 2284 0 
L 1503 0 
L 191 3500 
z
" transform="scale(0.015625)"/>
      <path id="DejaVuSans-20" transform="scale(0.015625)"/>
      <path id="DejaVuSans-4c" d="M 628 4666 
L 1259 4666 
L 1259 531 
L 3531 531 
L 3531 0 
L 628 0 
L 628 4666 
z
" transform="scale(0.015625)"/>
      <path id="DejaVuSans-53" d="M 3425 4513 
L 3425 3897 
Q 3066 4069 2747 4153 
Q 2428 4238 2131 4238 
Q 1616 4238 1336 4038 
Q 1056 3838 1056 3469 
Q 1056 3159 1242 3001 
Q 1428 2844 1947 2747 
L 2328 2669 
Q 3034 2534 3370 2195 
Q 3706 1856 3706 1288 
Q 3706 609 3251 259 
Q 2797 -91 1919 -91 
Q 1588 -91 1214 -16 
Q 841 59 441 206 
L 441 856 
Q 825 641 1194 531 
Q 1563 422 1919 422 
Q 2459 422 2753 634 
Q 3047 847 3047 1241 
Q 3047 1584 2836 1778 
Q 2625 1972 2144 2069 
L 1759 2144 
Q 1053 2284 737 2584 
Q 422 2884 422 3419 
Q 422 4038 858 4394 
Q 1294 4750 2059 4750 
Q 2388 4750 2728 4690 
Q 3069 4631 3425 4513 
z
" transform="scale(0.015625)"/>
      <path id="DejaVuSans-54" d="M -19 4666 
L 3928 4666 
L 3928 4134 
L 2272 4134 
L 2272 0 
L 1638 0 
L 1638 4134 
L -19 4134 
L -19 4666 
z
" transform="scale(0.015625)"/>
      <path id="DejaVuSans-4d" d="M 628 4666 
L 1569 4666 
L 2759 1491 
L 3956 4666 
L 4897 4666 
L 4897 0 
L 4281 0 
L 4281 4097 
L 3078 897 
L 2444 897 
L 1241 4097 
L 1241 0 
L 628 0 
L 628 4666 
z
" transform="scale(0.015625)"/>
      <path id="DejaVuSans-66" d="M 2375 4863 
L 2375 4384 
L 1825 4384 
Q 1516 4384 1395 4259 
Q 1275 4134 1275 3809 
L 1275 3500 
L 2222 3500 
L 2222 3053 
L 1275 3053 
L 1275 0 
L 697 0 
L 697 3053 
L 147 3053 
L 147 3500 
L 697 3500 
L 697 3744 
Q 697 4328 969 4595 
Q 1241 4863 1831 4863 
L 2375 4863 
z
" transform="scale(0.015625)"/>
      <path id="DejaVuSans-6f" d="M 1959 3097 
Q 1497 3097 1228 2736 
Q 959 2375 959 1747 
Q 959 1119 1226 758 
Q 1494 397 1959 397 
Q 2419 397 2687 759 
Q 2956 1122 2956 1747 
Q 2956 2369 2687 2733 
Q 2419 3097 1959 3097 
z
M 1959 3584 
Q 2709 3584 3137 3096 
Q 3566 2609 3566 1747 
Q 3566 888 3137 398 
Q 2709 -91 1959 -91 
Q 1206 -91 779 398 
Q 353 888 353 1747 
Q 353 2609 779 3096 
Q 1206 3584 1959 3584 
z
" transform="scale(0.015625)"/>
      <path id="DejaVuSans-72" d="M 2631 2963 
Q 2534 3019 2420 3045 
Q 2306 3072 2169 3072 
Q 1681 3072 1420 2755 
Q 1159 2438 1159 1844 
L 1159 0 
L 581 0 
L 581 3500 
L 1159 3500 
L 1159 2956 
Q 1341 3275 1631 3429 
Q 1922 3584 2338 3584 
Q 2397 3584 2469 3576 
Q 2541 3569 2628 3553 
L 2631 2963 
z
" transform="scale(0.015625)"/>
      <path id="DejaVuSans-61" d="M 2194 1759 
Q 1497 1759 1228 1600 
Q 959 1441 959 1056 
Q 959 750 1161 570 
Q 1363 391 1709 391 
Q 2188 391 2477 730 
Q 2766 1069 2766 1631 
L 2766 1759 
L 2194 1759 
z
M 3341 1997 
L 3341 0 
L 2766 0 
L 2766 531 
Q 2569 213 2275 61 
Q 1981 -91 1556 -91 
Q 1019 -91 701 211 
Q 384 513 384 1019 
Q 384 1609 779 1909 
Q 1175 2209 1959 2209 
L 2766 2209 
L 2766 2266 
Q 2766 2663 2505 2880 
Q 2244 3097 1772 3097 
Q 1472 3097 1187 3025 
Q 903 2953 641 2809 
L 641 3341 
Q 956 3463 1253 3523 
Q 1550 3584 1831 3584 
Q 2591 3584 2966 3190 
Q 3341 2797 3341 1997 
z
" transform="scale(0.015625)"/>
      <path id="DejaVuSans-6e" d="M 3513 2113 
L 3513 0 
L 2938 0 
L 2938 2094 
Q 2938 2591 2744 2837 
Q 2550 3084 2163 3084 
Q 1697 3084 1428 2787 
Q 1159 2491 1159 1978 
L 1159 0 
L 581 0 
L 581 3500 
L 1159 3500 
L 1159 2956 
Q 1366 3272 1645 3428 
Q 1925 3584 2291 3584 
Q 2894 3584 3203 3211 
Q 3513 2838 3513 2113 
z
" transform="scale(0.015625)"/>
      <path id="DejaVuSans-67" d="M 2906 1791 
Q 2906 2416 2648 2759 
Q 2391 3103 1925 3103 
Q 1463 3103 1205 2759 
Q 947 2416 947 1791 
Q 947 1169 1205 825 
Q 1463 481 1925 481 
Q 2391 481 2648 825 
Q 2906 1169 2906 1791 
z
M 3481 434 
Q 3481 -459 3084 -895 
Q 2688 -1331 1869 -1331 
Q 1566 -1331 1297 -1286 
Q 1028 -1241 775 -1147 
L 775 -588 
Q 1028 -725 1275 -790 
Q 1522 -856 1778 -856 
Q 2344 -856 2625 -561 
Q 2906 -266 2906 331 
L 2906 616 
Q 2728 306 2450 153 
Q 2172 0 1784 0 
Q 1141 0 747 490 
Q 353 981 353 1791 
Q 353 2603 747 3093 
Q 1141 3584 1784 3584 
Q 2172 3584 2450 3431 
Q 2728 3278 2906 2969 
L 2906 3500 
L 3481 3500 
L 3481 434 
z
" transform="scale(0.015625)"/>
      <path id="DejaVuSans-75" d="M 544 1381 
L 544 3500 
L 1119 3500 
L 1119 1403 
Q 1119 906 1312 657 
Q 1506 409 1894 409 
Q 2359 409 2629 706 
Q 2900 1003 2900 1516 
L 2900 3500 
L 3475 3500 
L 3475 0 
L 2900 0 
L 2900 538 
Q 2691 219 2414 64 
Q 2138 -91 1772 -91 
Q 1169 -91 856 284 
Q 544 659 544 1381 
z
M 1991 3584 
L 1991 3584 
z
" transform="scale(0.015625)"/>
      <path id="DejaVuSans-6c" d="M 603 4863 
L 1178 4863 
L 1178 0 
L 603 0 
L 603 4863 
z
" transform="scale(0.015625)"/>
     </defs>
     <use xlink:href="#DejaVuSans-52"/>
     <use xlink:href="#DejaVuSans-65" x="64.982422"/>
     <use xlink:href="#DejaVuSans-73" x="126.505859"/>
     <use xlink:href="#DejaVuSans-70" x="178.605469"/>
     <use xlink:href="#DejaVuSans-65" x="242.082031"/>
     <use xlink:href="#DejaVuSans-63" x="303.605469"/>
     <use xlink:href="#DejaVuSans-74" x="358.585938"/>
     <use xlink:href="#DejaVuSans-69" x="397.794922"/>
     <use xlink:href="#DejaVuSans-76" x="425.578125"/>
     <use xlink:href="#DejaVuSans-65" x="484.757812"/>
     <use xlink:href="#DejaVuSans-20" x="546.28125"/>
     <use xlink:href="#DejaVuSans-4c" x="578.068359"/>
     <use xlink:href="#DejaVuSans-53" x="633.78125"/>
     <use xlink:href="#DejaVuSans-54" x="697.257812"/>
     <use xlink:href="#DejaVuSans-4d" x="758.341797"/>
     <use xlink:href="#DejaVuSans-20" x="844.621094"/>
     <use xlink:href="#DejaVuSans-66" x="876.408203"/>
     <use xlink:href="#DejaVuSans-6f" x="911.613281"/>
     <use xlink:href="#DejaVuSans-72" x="972.794922"/>
     <use xlink:href="#DejaVuSans-65" x="1011.658203"/>
     <use xlink:href="#DejaVuSans-63" x="1073.181641"/>
     <use xlink:href="#DejaVuSans-61" x="1128.162109"/>
     <use xlink:href="#DejaVuSans-73" x="1189.441406"/>
     <use xlink:href="#DejaVuSans-74" x="1241.541016"/>
     <use xlink:href="#DejaVuSans-69" x="1280.75"/>
     <use xlink:href="#DejaVuSans-6e" x="1308.533203"/>
     <use xlink:href="#DejaVuSans-67" x="1371.912109"/>
     <use xlink:href="#DejaVuSans-20" x="1435.388672"/>
     <use xlink:href="#DejaVuSans-72" x="1467.175781"/>
     <use xlink:href="#DejaVuSans-65" x="1506.039062"/>
     <use xlink:href="#DejaVuSans-73" x="1567.5625"/>
     <use xlink:href="#DejaVuSans-75" x="1619.662109"/>
     <use xlink:href="#DejaVuSans-6c" x="1683.041016"/>
     <use xlink:href="#DejaVuSans-74" x="1710.824219"/>
     <use xlink:href="#DejaVuSans-73" x="1750.033203"/>
    </g>
   </g>
   <g id="legend_1">
    <g id="patch_7">
     <path d="M 53.272991 59.674375 
L 168.743303 59.674375 
Q 170.743303 59.674375 170.743303 57.674375 
L 170.743303 29.318125 
Q 170.743303 27.318125 168.743303 27.318125 
L 53.272991 27.318125 
Q 51.272991 27.318125 51.272991 29.318125 
L 51.272991 57.674375 
Q 51.272991 59.674375 53.272991 59.674375 
z
" style="fill: #ffffff; opacity: 0.8; stroke: #cccccc; stroke-linejoin: miter"/>
    </g>
    <g id="line2d_18">
     <path d="M 55.272991 35.416562 
L 65.272991 35.416562 
L 75.272991 35.416562 
" style="fill: none; stroke: #0070c0; stroke-width: 1.5; stroke-linecap: square"/>
    </g>
    <g id="text_17">
     <!-- Original data -->
     <g transform="translate(83.272991 38.916562) scale(0.1 -0.1)">
      <defs>
       <path id="DejaVuSans-4f" d="M 2522 4238 
Q 1834 4238 1429 3725 
Q 1025 3213 1025 2328 
Q 1025 1447 1429 934 
Q 1834 422 2522 422 
Q 3209 422 3611 934 
Q 4013 1447 4013 2328 
Q 4013 3213 3611 3725 
Q 3209 4238 2522 4238 
z
M 2522 4750 
Q 3503 4750 4090 4092 
Q 4678 3434 4678 2328 
Q 4678 1225 4090 567 
Q 3503 -91 2522 -91 
Q 1538 -91 948 565 
Q 359 1222 359 2328 
Q 359 3434 948 4092 
Q 1538 4750 2522 4750 
z
" transform="scale(0.015625)"/>
       <path id="DejaVuSans-64" d="M 2906 2969 
L 2906 4863 
L 3481 4863 
L 3481 0 
L 2906 0 
L 2906 525 
Q 2725 213 2448 61 
Q 2172 -91 1784 -91 
Q 1150 -91 751 415 
Q 353 922 353 1747 
Q 353 2572 751 3078 
Q 1150 3584 1784 3584 
Q 2172 3584 2448 3432 
Q 2725 3281 2906 2969 
z
M 947 1747 
Q 947 1113 1208 752 
Q 1469 391 1925 391 
Q 2381 391 2643 752 
Q 2906 1113 2906 1747 
Q 2906 2381 2643 2742 
Q 2381 3103 1925 3103 
Q 1469 3103 1208 2742 
Q 947 2381 947 1747 
z
" transform="scale(0.015625)"/>
      </defs>
      <use xlink:href="#DejaVuSans-4f"/>
      <use xlink:href="#DejaVuSans-72" x="78.710938"/>
      <use xlink:href="#DejaVuSans-69" x="119.824219"/>
      <use xlink:href="#DejaVuSans-67" x="147.607422"/>
      <use xlink:href="#DejaVuSans-69" x="211.083984"/>
      <use xlink:href="#DejaVuSans-6e" x="238.867188"/>
      <use xlink:href="#DejaVuSans-61" x="302.246094"/>
      <use xlink:href="#DejaVuSans-6c" x="363.525391"/>
      <use xlink:href="#DejaVuSans-20" x="391.308594"/>
      <use xlink:href="#DejaVuSans-64" x="423.095703"/>
      <use xlink:href="#DejaVuSans-61" x="486.572266"/>
      <use xlink:href="#DejaVuSans-74" x="547.851562"/>
      <use xlink:href="#DejaVuSans-61" x="587.060547"/>
     </g>
    </g>
    <g id="line2d_19">
     <path d="M 55.272991 50.094687 
L 65.272991 50.094687 
L 75.272991 50.094687 
" style="fill: none; stroke: #f27f19; stroke-width: 1.5; stroke-linecap: square"/>
    </g>
    <g id="text_18">
     <!-- Forecasting data -->
     <g transform="translate(83.272991 53.594687) scale(0.1 -0.1)">
      <defs>
       <path id="DejaVuSans-46" d="M 628 4666 
L 3309 4666 
L 3309 4134 
L 1259 4134 
L 1259 2759 
L 3109 2759 
L 3109 2228 
L 1259 2228 
L 1259 0 
L 628 0 
L 628 4666 
z
" transform="scale(0.015625)"/>
      </defs>
      <use xlink:href="#DejaVuSans-46"/>
      <use xlink:href="#DejaVuSans-6f" x="53.894531"/>
      <use xlink:href="#DejaVuSans-72" x="115.076172"/>
      <use xlink:href="#DejaVuSans-65" x="153.939453"/>
      <use xlink:href="#DejaVuSans-63" x="215.462891"/>
      <use xlink:href="#DejaVuSans-61" x="270.443359"/>
      <use xlink:href="#DejaVuSans-73" x="331.722656"/>
      <use xlink:href="#DejaVuSans-74" x="383.822266"/>
      <use xlink:href="#DejaVuSans-69" x="423.03125"/>
      <use xlink:href="#DejaVuSans-6e" x="450.814453"/>
      <use xlink:href="#DejaVuSans-67" x="514.193359"/>
      <use xlink:href="#DejaVuSans-20" x="577.669922"/>
      <use xlink:href="#DejaVuSans-64" x="609.457031"/>
      <use xlink:href="#DejaVuSans-61" x="672.933594"/>
      <use xlink:href="#DejaVuSans-74" x="734.212891"/>
      <use xlink:href="#DejaVuSans-61" x="773.421875"/>
     </g>
    </g>
   </g>
  </g>
 </g>
 <defs>
  <clipPath id="pcb787026a7">
   <rect x="46.272991" y="22.318125" width="558" height="195.84"/>
  </clipPath>
 </defs>
</svg>
